<?xml version="1.0" encoding="UTF-8" standalone="no"?>
<!-- Created with Inkscape (http://www.inkscape.org/) -->

<svg
   xmlns:dc="http://purl.org/dc/elements/1.1/"
   xmlns:cc="http://creativecommons.org/ns#"
   xmlns:rdf="http://www.w3.org/1999/02/22-rdf-syntax-ns#"
   xmlns:svg="http://www.w3.org/2000/svg"
   xmlns="http://www.w3.org/2000/svg"
   xmlns:sodipodi="http://sodipodi.sourceforge.net/DTD/sodipodi-0.dtd"
   xmlns:inkscape="http://www.inkscape.org/namespaces/inkscape"
   id="svg3355"
   version="1.1"
   inkscape:version="0.92.1 r15371"
   xml:space="preserve"
   width="323.01541"
   height="174.74016"
   viewBox="0 0 302.82693 163.81888"
   sodipodi:docname="ws2812b-bit-pattern.svg"><metadata
     id="metadata3361"><rdf:RDF><cc:Work
         rdf:about=""><dc:format>image/svg+xml</dc:format><dc:type
           rdf:resource="http://purl.org/dc/dcmitype/StillImage" /><dc:title></dc:title></cc:Work></rdf:RDF></metadata><defs
     id="defs3359"><marker
       inkscape:stockid="Arrow2Mstart"
       orient="auto"
       refY="0"
       refX="0"
       id="Arrow2Mstart"
       style="overflow:visible"
       inkscape:isstock="true"><path
         id="path4443"
         style="fill:#000000;fill-opacity:1;fill-rule:evenodd;stroke:#000000;stroke-width:0.625;stroke-linejoin:round;stroke-opacity:1"
         d="M 8.7185878,4.0337352 -2.2072895,0.01601326 8.7185884,-4.0017078 c -1.7454984,2.3720609 -1.7354408,5.6174519 -6e-7,8.035443 z"
         transform="scale(0.6)"
         inkscape:connector-curvature="0" /></marker><marker
       inkscape:stockid="Arrow1Mstart"
       orient="auto"
       refY="0"
       refX="0"
       id="marker5395"
       style="overflow:visible"
       inkscape:isstock="true"><path
         id="path5397"
         d="M 0,0 5,-5 -12.5,0 5,5 Z"
         style="fill:#000000;fill-opacity:1;fill-rule:evenodd;stroke:#000000;stroke-width:1.00000003pt;stroke-opacity:1"
         transform="matrix(0.4,0,0,0.4,4,0)"
         inkscape:connector-curvature="0" /></marker><marker
       inkscape:stockid="Arrow1Mstart"
       orient="auto"
       refY="0"
       refX="0"
       id="Arrow1Mstart"
       style="overflow:visible"
       inkscape:isstock="true"><path
         id="path4425"
         d="M 0,0 5,-5 -12.5,0 5,5 Z"
         style="fill:#000000;fill-opacity:1;fill-rule:evenodd;stroke:#000000;stroke-width:1.00000003pt;stroke-opacity:1"
         transform="matrix(0.4,0,0,0.4,4,0)"
         inkscape:connector-curvature="0" /></marker><marker
       inkscape:stockid="Arrow1Mend"
       orient="auto"
       refY="0"
       refX="0"
       id="marker4915"
       style="overflow:visible"
       inkscape:isstock="true"><path
         id="path4917"
         d="M 0,0 5,-5 -12.5,0 5,5 Z"
         style="fill:#000000;fill-opacity:1;fill-rule:evenodd;stroke:#000000;stroke-width:1.00000003pt;stroke-opacity:1"
         transform="matrix(-0.4,0,0,-0.4,-4,0)"
         inkscape:connector-curvature="0" /></marker><marker
       inkscape:stockid="Arrow2Mend"
       orient="auto"
       refY="0"
       refX="0"
       id="marker4857"
       style="overflow:visible"
       inkscape:isstock="true"><path
         id="path4859"
         style="fill:#000000;fill-opacity:1;fill-rule:evenodd;stroke:#000000;stroke-width:0.625;stroke-linejoin:round;stroke-opacity:1"
         d="M 8.7185878,4.0337352 -2.2072895,0.01601326 8.7185884,-4.0017078 c -1.7454984,2.3720609 -1.7354408,5.6174519 -6e-7,8.035443 z"
         transform="scale(-0.6)"
         inkscape:connector-curvature="0" /></marker><marker
       inkscape:stockid="Arrow2Mend"
       orient="auto"
       refY="0"
       refX="0"
       id="Arrow2Mend"
       style="overflow:visible"
       inkscape:isstock="true"><path
         id="path4446"
         style="fill:#000000;fill-opacity:1;fill-rule:evenodd;stroke:#000000;stroke-width:0.625;stroke-linejoin:round;stroke-opacity:1"
         d="M 8.7185878,4.0337352 -2.2072895,0.01601326 8.7185884,-4.0017078 c -1.7454984,2.3720609 -1.7354408,5.6174519 -6e-7,8.035443 z"
         transform="scale(-0.6)"
         inkscape:connector-curvature="0" /></marker><marker
       inkscape:stockid="Arrow1Mend"
       orient="auto"
       refY="0"
       refX="0"
       id="Arrow1Mend"
       style="overflow:visible"
       inkscape:isstock="true"><path
         id="path4428"
         d="M 0,0 5,-5 -12.5,0 5,5 Z"
         style="fill:#000000;fill-opacity:1;fill-rule:evenodd;stroke:#000000;stroke-width:1.00000003pt;stroke-opacity:1"
         transform="matrix(-0.4,0,0,-0.4,-4,0)"
         inkscape:connector-curvature="0" /></marker><marker
       inkscape:stockid="Arrow1Send"
       orient="auto"
       refY="0"
       refX="0"
       id="Arrow1Send"
       style="overflow:visible"
       inkscape:isstock="true"><path
         id="path4434"
         d="M 0,0 5,-5 -12.5,0 5,5 Z"
         style="fill:#000000;fill-opacity:1;fill-rule:evenodd;stroke:#000000;stroke-width:1.00000003pt;stroke-opacity:1"
         transform="matrix(-0.2,0,0,-0.2,-1.2,0)"
         inkscape:connector-curvature="0" /></marker><marker
       inkscape:stockid="Arrow1Sstart"
       orient="auto"
       refY="0"
       refX="0"
       id="Arrow1Sstart"
       style="overflow:visible"
       inkscape:isstock="true"><path
         id="path4431"
         d="M 0,0 5,-5 -12.5,0 5,5 Z"
         style="fill:#000000;fill-opacity:1;fill-rule:evenodd;stroke:#000000;stroke-width:1.00000003pt;stroke-opacity:1"
         transform="matrix(0.2,0,0,0.2,1.2,0)"
         inkscape:connector-curvature="0" /></marker><marker
       inkscape:stockid="Arrow1Lstart"
       orient="auto"
       refY="0"
       refX="0"
       id="Arrow1Lstart"
       style="overflow:visible"
       inkscape:isstock="true"><path
         id="path4419"
         d="M 0,0 5,-5 -12.5,0 5,5 Z"
         style="fill:#000000;fill-opacity:1;fill-rule:evenodd;stroke:#000000;stroke-width:1.00000003pt;stroke-opacity:1"
         transform="matrix(0.8,0,0,0.8,10,0)"
         inkscape:connector-curvature="0" /></marker><clipPath
       clipPathUnits="userSpaceOnUse"
       id="clipPath3417"><path
         d="M 0,0 H 163.9 V 123 H 0 Z"
         id="path3419"
         inkscape:connector-curvature="0" /></clipPath><clipPath
       clipPathUnits="userSpaceOnUse"
       id="clipPath3541"><path
         d="M 0,0 H 314.59 V 93.575 H 0 Z"
         id="path3543"
         inkscape:connector-curvature="0" /></clipPath><clipPath
       clipPathUnits="userSpaceOnUse"
       id="clipPath3691"><path
         d="M 0,0 H 462.96 V 357.82 H 0 Z"
         id="path3693"
         inkscape:connector-curvature="0" /></clipPath><marker
       inkscape:stockid="Arrow2Mstart"
       orient="auto"
       refY="0"
       refX="0"
       id="Arrow2Mstart-7"
       style="overflow:visible"
       inkscape:isstock="true"><path
         inkscape:connector-curvature="0"
         id="path4443-5"
         style="fill:#000000;fill-opacity:1;fill-rule:evenodd;stroke:#000000;stroke-width:0.625;stroke-linejoin:round;stroke-opacity:1"
         d="M 8.7185878,4.0337352 -2.2072895,0.01601326 8.7185884,-4.0017078 c -1.7454984,2.3720609 -1.7354408,5.6174519 -6e-7,8.035443 z"
         transform="scale(0.6)" /></marker><marker
       inkscape:stockid="Arrow2Mend"
       orient="auto"
       refY="0"
       refX="0"
       id="marker4857-3"
       style="overflow:visible"
       inkscape:isstock="true"><path
         inkscape:connector-curvature="0"
         id="path4859-5"
         style="fill:#000000;fill-opacity:1;fill-rule:evenodd;stroke:#000000;stroke-width:0.625;stroke-linejoin:round;stroke-opacity:1"
         d="M 8.7185878,4.0337352 -2.2072895,0.01601326 8.7185884,-4.0017078 c -1.7454984,2.3720609 -1.7354408,5.6174519 -6e-7,8.035443 z"
         transform="scale(-0.6)" /></marker><marker
       inkscape:stockid="Arrow2Mstart"
       orient="auto"
       refY="0"
       refX="0"
       id="Arrow2Mstart-7-2"
       style="overflow:visible"
       inkscape:isstock="true"><path
         inkscape:connector-curvature="0"
         id="path4443-5-9"
         style="fill:#000000;fill-opacity:1;fill-rule:evenodd;stroke:#000000;stroke-width:0.625;stroke-linejoin:round;stroke-opacity:1"
         d="M 8.7185878,4.0337352 -2.2072895,0.01601326 8.7185884,-4.0017078 c -1.7454984,2.3720609 -1.7354408,5.6174519 -6e-7,8.035443 z"
         transform="scale(0.6)" /></marker><marker
       inkscape:stockid="Arrow2Mend"
       orient="auto"
       refY="0"
       refX="0"
       id="marker4857-3-1"
       style="overflow:visible"
       inkscape:isstock="true"><path
         inkscape:connector-curvature="0"
         id="path4859-5-2"
         style="fill:#000000;fill-opacity:1;fill-rule:evenodd;stroke:#000000;stroke-width:0.625;stroke-linejoin:round;stroke-opacity:1"
         d="M 8.7185878,4.0337352 -2.2072895,0.01601326 8.7185884,-4.0017078 c -1.7454984,2.3720609 -1.7354408,5.6174519 -6e-7,8.035443 z"
         transform="scale(-0.6)" /></marker><marker
       inkscape:stockid="Arrow2Mstart"
       orient="auto"
       refY="0"
       refX="0"
       id="Arrow2Mstart-7-2-0"
       style="overflow:visible"
       inkscape:isstock="true"><path
         inkscape:connector-curvature="0"
         id="path4443-5-9-9"
         style="fill:#000000;fill-opacity:1;fill-rule:evenodd;stroke:#000000;stroke-width:0.625;stroke-linejoin:round;stroke-opacity:1"
         d="M 8.7185878,4.0337352 -2.2072895,0.01601326 8.7185884,-4.0017078 c -1.7454984,2.3720609 -1.7354408,5.6174519 -6e-7,8.035443 z"
         transform="scale(0.6)" /></marker><marker
       inkscape:stockid="Arrow2Mend"
       orient="auto"
       refY="0"
       refX="0"
       id="marker4857-3-1-3"
       style="overflow:visible"
       inkscape:isstock="true"><path
         inkscape:connector-curvature="0"
         id="path4859-5-2-6"
         style="fill:#000000;fill-opacity:1;fill-rule:evenodd;stroke:#000000;stroke-width:0.625;stroke-linejoin:round;stroke-opacity:1"
         d="M 8.7185878,4.0337352 -2.2072895,0.01601326 8.7185884,-4.0017078 c -1.7454984,2.3720609 -1.7354408,5.6174519 -6e-7,8.035443 z"
         transform="scale(-0.6)" /></marker><marker
       inkscape:stockid="Arrow2Mstart"
       orient="auto"
       refY="0"
       refX="0"
       id="Arrow2Mstart-6"
       style="overflow:visible"
       inkscape:isstock="true"><path
         id="path4443-2"
         style="fill:#000000;fill-opacity:1;fill-rule:evenodd;stroke:#000000;stroke-width:0.625;stroke-linejoin:round;stroke-opacity:1"
         d="M 8.7185878,4.0337352 -2.2072895,0.01601326 8.7185884,-4.0017078 c -1.7454984,2.3720609 -1.7354408,5.6174519 -6e-7,8.035443 z"
         transform="scale(0.6)"
         inkscape:connector-curvature="0" /></marker><marker
       inkscape:stockid="Arrow2Mend"
       orient="auto"
       refY="0"
       refX="0"
       id="marker4857-6"
       style="overflow:visible"
       inkscape:isstock="true"><path
         id="path4859-1"
         style="fill:#000000;fill-opacity:1;fill-rule:evenodd;stroke:#000000;stroke-width:0.625;stroke-linejoin:round;stroke-opacity:1"
         d="M 8.7185878,4.0337352 -2.2072895,0.01601326 8.7185884,-4.0017078 c -1.7454984,2.3720609 -1.7354408,5.6174519 -6e-7,8.035443 z"
         transform="scale(-0.6)"
         inkscape:connector-curvature="0" /></marker></defs><sodipodi:namedview
     pagecolor="#ffffff"
     bordercolor="#666666"
     borderopacity="1"
     objecttolerance="10"
     gridtolerance="10"
     guidetolerance="10"
     inkscape:pageopacity="0"
     inkscape:pageshadow="2"
     inkscape:window-width="1920"
     inkscape:window-height="1017"
     id="namedview3357"
     showgrid="false"
     fit-margin-top="0"
     fit-margin-left="0"
     fit-margin-right="0"
     fit-margin-bottom="0"
     inkscape:zoom="1.4142136"
     inkscape:cx="195.35835"
     inkscape:cy="78.301091"
     inkscape:window-x="-8"
     inkscape:window-y="-8"
     inkscape:window-maximized="1"
     inkscape:current-layer="g3363"
     showguides="true"
     inkscape:guide-bbox="true" /><g
     id="g3363"
     inkscape:groupmode="layer"
     inkscape:label="WS2812B"
     transform="matrix(1.25,0,0,-1.25,15.639647,998.49784)"><g
       id="g3377" /><g
       id="g3379" /><g
       id="g3387" /><g
       id="g3395" /><g
       id="g3403" /><g
       id="g3405" /><path
       inkscape:connector-curvature="0"
       id="path3423"
       style="fill:none;stroke:#24211d;stroke-width:1.49573803;stroke-linecap:butt;stroke-linejoin:round;stroke-miterlimit:10;stroke-dasharray:none;stroke-opacity:1"
       d="m 92.718898,683.85905 v 32.17567 h 82.447172 v -32.17567 h 53.8359 v 32.17567"
       sodipodi:nodetypes="cccccc" /><g
       aria-label="1-pattern = 110"
       transform="scale(1.0544199,-0.94838878)"
       style="font-variant:normal;font-weight:normal;line-height:0%;font-family:'Times New Roman';-inkscape-font-specification:'Times New';writing-mode:lr-tb;fill:#24211d;fill-opacity:1;fill-rule:nonzero;stroke:none"
       id="text3439"><path
         d="m -10.731207,-742.27277 2.2558595,-1.10058 h 0.2255859 v 7.82715 q 0,0.77929 0.061523,0.9707 0.068359,0.19141 0.2734375,0.29394 0.2050781,0.10254 0.8339843,0.11622 v 0.25293 h -3.4863277 v -0.25293 q 0.6562496,-0.0137 0.8476559,-0.10938 0.1914062,-0.10254 0.2666015,-0.2666 0.075195,-0.1709 0.075195,-1.00488 v -5.00391 q 0,-1.01172 -0.068359,-1.29883 -0.047852,-0.21875 -0.1777344,-0.32129 -0.1230469,-0.10254 -0.3007813,-0.10254 -0.2529297,0 -0.7041017,0.21192 z"
         style="font-size:14px;line-height:1.25"
         id="path99" /><path
         d="m -4.8044491,-737.56964 h 3.5341797 v 1.03223 h -3.5341797 z"
         style="font-size:14px;line-height:1.25"
         id="path101" /><path
         d="m -0.70972252,-739.55206 1.92773442,-0.7793 h 0.2597656 v 1.46289 q 0.4853515,-0.82715 0.9707031,-1.15527 0.4921875,-0.33496 1.0322266,-0.33496 0.9433593,0 1.5722656,0.73828 0.7724609,0.90234 0.7724609,2.35156 0,1.62012 -0.9296875,2.67969 -0.765625,0.86816 -1.9277343,0.86816 -0.5058594,0 -0.875,-0.14355 -0.2734375,-0.10254 -0.6152344,-0.41016 v 1.90723 q 0,0.64258 0.075195,0.81347 0.082031,0.17774 0.2734375,0.28028 0.1982422,0.10254 0.7109375,0.10254 v 0.25293 h -3.28125001 v -0.25293 h 0.17089844 q 0.37597656,0.007 0.64257813,-0.14356 0.12988281,-0.0752 0.19824218,-0.24609 0.0751953,-0.16406 0.0751953,-0.84766 v -5.91992 q 0,-0.6084 -0.0546875,-0.77246 -0.0546875,-0.16406 -0.17773438,-0.24609 -0.11621094,-0.082 -0.32128906,-0.082 -0.1640625,0 -0.41699219,0.0957 z m 2.18750002,1.08691 v 2.33789 q 0,0.75879 0.061523,0.99805 0.095703,0.39648 0.4648438,0.69726 0.3759765,0.30079 0.9433593,0.30079 0.6835938,0 1.1074219,-0.53321 0.553711,-0.69726 0.553711,-1.96191 0,-1.43555 -0.6289063,-2.20801 -0.4375,-0.5332 -1.0390625,-0.5332 -0.328125,0 -0.6494141,0.16406 -0.2460937,0.12305 -0.8134765,0.73828 z"
         style="font-size:14px;line-height:1.25"
         id="path103" /><path
         d="m 10.289301,-734.81476 q -0.9638673,0.74512 -1.209961,0.86133 -0.3691406,0.1709 -0.7861328,0.1709 -0.6494141,0 -1.0732422,-0.44434 -0.4169922,-0.44433 -0.4169922,-1.16894 0,-0.45801 0.2050781,-0.79297 0.2802735,-0.46485 0.9707031,-0.875 0.6972657,-0.41016 2.310547,-0.99805 v -0.24609 q 0,-0.93653 -0.3007813,-1.28516 -0.2939453,-0.34863 -0.8613282,-0.34863 -0.430664,0 -0.6835937,0.23242 -0.2597656,0.23242 -0.2597656,0.5332 l 0.013672,0.39649 q 0,0.31445 -0.1640625,0.48535 -0.1572265,0.1709 -0.4169921,0.1709 -0.2529297,0 -0.4169922,-0.17774 -0.1572266,-0.17773 -0.1572266,-0.48535 0,-0.58789 0.6015625,-1.08008 0.6015625,-0.49218 1.6884766,-0.49218 0.8339843,0 1.3671873,0.28027 0.40332,0.21191 0.594727,0.66309 0.123047,0.29394 0.123047,1.20312 v 2.12598 q 0,0.89551 0.03418,1.10058 0.03418,0.19825 0.109375,0.2666 0.08203,0.0684 0.184571,0.0684 0.109375,0 0.191406,-0.0478 0.143555,-0.0889 0.553711,-0.49902 v 0.38281 q -0.765625,1.02539 -1.462891,1.02539 -0.334961,0 -0.533203,-0.23242 -0.198242,-0.23242 -0.205078,-0.79297 z m 0,-0.44433 v -2.38575 q -1.0322266,0.41016 -1.3330079,0.58106 -0.5400391,0.30078 -0.7724609,0.6289 -0.2324219,0.32813 -0.2324219,0.71778 0,0.49219 0.2939453,0.82031 0.2939453,0.32129 0.6767578,0.32129 0.5195313,0 1.3671876,-0.68359 z"
         style="font-size:14px;line-height:1.25"
         id="path105" /><path
         d="m 14.76684,-742.23175 v 2.05762 h 1.462891 v 0.47851 H 14.76684 v 4.06055 q 0,0.6084 0.170898,0.82031 0.177735,0.21192 0.451172,0.21192 0.225586,0 0.4375,-0.13672 0.211914,-0.14356 0.328125,-0.417 h 0.266602 q -0.239258,0.66993 -0.676758,1.01172 -0.4375,0.33496 -0.902344,0.33496 -0.314453,0 -0.615234,-0.17089 -0.300781,-0.17774 -0.444336,-0.49903 -0.143555,-0.32812 -0.143555,-1.00488 v -4.21094 h -0.991211 v -0.22558 q 0.375977,-0.15039 0.765625,-0.50586 0.396485,-0.36231 0.704102,-0.8545 0.157226,-0.25976 0.4375,-0.95019 z"
         style="font-size:14px;line-height:1.25"
         id="path107" /><path
         d="m 18.649652,-742.23175 v 2.05762 h 1.462891 v 0.47851 h -1.462891 v 4.06055 q 0,0.6084 0.170899,0.82031 0.177734,0.21192 0.451172,0.21192 0.225586,0 0.4375,-0.13672 0.211914,-0.14356 0.328125,-0.417 h 0.266601 q -0.239257,0.66993 -0.676757,1.01172 -0.4375,0.33496 -0.902344,0.33496 -0.314453,0 -0.615235,-0.17089 -0.300781,-0.17774 -0.444336,-0.49903 -0.143554,-0.32812 -0.143554,-1.00488 v -4.21094 h -0.991211 v -0.22558 q 0.375976,-0.15039 0.765625,-0.50586 0.396484,-0.36231 0.704101,-0.8545 0.157227,-0.25976 0.4375,-0.95019 z"
         style="font-size:14px;line-height:1.25"
         id="path109" /><path
         d="m 21.76684,-737.81573 q -0.0068,1.39453 0.676758,2.1875 0.683594,0.79296 1.606445,0.79296 0.615234,0 1.066406,-0.33496 0.458008,-0.34179 0.765625,-1.16211 l 0.211914,0.13672 q -0.143554,0.93653 -0.833984,1.70899 -0.69043,0.76562 -1.729492,0.76562 -1.12793,0 -1.93457,-0.875 -0.799805,-0.88183 -0.799805,-2.36523 0,-1.60645 0.820312,-2.50196 0.827149,-0.90234 2.071289,-0.90234 1.052735,0 1.729493,0.69727 0.676757,0.69043 0.676757,1.85254 z m 0,-0.39649 h 2.898437 q -0.03418,-0.60156 -0.143554,-0.84766 -0.170899,-0.38281 -0.512696,-0.60156 -0.33496,-0.21875 -0.704101,-0.21875 -0.567383,0 -1.018555,0.44434 -0.444336,0.4375 -0.519531,1.22363 z"
         style="font-size:14px;line-height:1.25"
         id="path111" /><path
         d="m 28.753168,-740.3587 v 1.4082 q 0.786133,-1.4082 1.613281,-1.4082 0.375977,0 0.622071,0.23242 0.246093,0.22558 0.246093,0.52637 0,0.2666 -0.177734,0.45117 -0.177734,0.18457 -0.423828,0.18457 -0.239258,0 -0.540039,-0.23242 -0.293945,-0.23926 -0.4375,-0.23926 -0.123047,0 -0.266602,0.13672 -0.307617,0.28027 -0.635742,0.92285 v 3.00097 q 0,0.51954 0.129883,0.78614 0.08887,0.18457 0.314453,0.30761 0.225586,0.12305 0.649414,0.12305 v 0.2461 h -3.206055 v -0.2461 q 0.478516,0 0.710938,-0.15039 0.170898,-0.10937 0.239258,-0.34863 0.03418,-0.11621 0.03418,-0.66309 v -2.42676 q 0,-1.09375 -0.04785,-1.29882 -0.04102,-0.21192 -0.164063,-0.30762 -0.116211,-0.0957 -0.293945,-0.0957 -0.211914,0 -0.478516,0.10254 l -0.06836,-0.2461 1.893555,-0.76562 z"
         style="font-size:14px;line-height:1.25"
         id="path113" /><path
         d="m 33.422113,-739.03253 q 1.100586,-1.32617 2.098633,-1.32617 0.512696,0 0.881836,0.25976 0.369141,0.25293 0.587891,0.84082 0.15039,0.41016 0.15039,1.25781 v 2.67286 q 0,0.59472 0.0957,0.80664 0.0752,0.1709 0.239257,0.2666 0.170899,0.0957 0.622071,0.0957 v 0.2461 h -3.09668 v -0.2461 h 0.129883 q 0.4375,0 0.608398,-0.12988 0.177735,-0.13672 0.246094,-0.39649 0.02734,-0.10253 0.02734,-0.64257 v -2.56348 q 0,-0.85449 -0.225586,-1.2373 -0.21875,-0.38965 -0.745117,-0.38965 -0.813477,0 -1.620118,0.88867 v 3.30176 q 0,0.63574 0.0752,0.78613 0.0957,0.19824 0.259765,0.29394 0.170899,0.0889 0.683594,0.0889 v 0.2461 h -3.09668 v -0.2461 h 0.136719 q 0.478516,0 0.642578,-0.23926 0.170899,-0.24609 0.170899,-0.92968 v -2.32422 q 0,-1.12793 -0.05469,-1.37403 -0.04785,-0.24609 -0.157226,-0.33496 -0.102539,-0.0889 -0.280274,-0.0889 -0.191406,0 -0.458008,0.10254 l -0.102539,-0.2461 1.886719,-0.76562 h 0.293945 z"
         style="font-size:14px;line-height:1.25"
         id="path115" /><path
         d="m 41.912348,-739.94855 h 7.375976 v 0.56055 h -7.375976 z m 0,2.22852 h 7.375976 v 0.56055 h -7.375976 z"
         style="font-size:14px;line-height:1.25"
         id="path117" /><path
         d="m 54.702387,-742.27277 2.255859,-1.10058 h 0.225586 v 7.82715 q 0,0.77929 0.06152,0.9707 0.06836,0.19141 0.273437,0.29394 0.205078,0.10254 0.833984,0.11622 v 0.25293 h -3.486328 v -0.25293 q 0.65625,-0.0137 0.847657,-0.10938 0.191406,-0.10254 0.266601,-0.2666 0.0752,-0.1709 0.0752,-1.00488 v -5.00391 q 0,-1.01172 -0.06836,-1.29883 -0.04785,-0.21875 -0.177734,-0.32129 -0.123047,-0.10254 -0.300782,-0.10254 -0.252929,0 -0.704101,0.21192 z"
         style="font-size:14px;line-height:1.25"
         id="path119" /><path
         d="m 61.182856,-742.27277 2.255859,-1.10058 h 0.225586 v 7.82715 q 0,0.77929 0.06152,0.9707 0.06836,0.19141 0.273438,0.29394 0.205078,0.10254 0.833984,0.11622 v 0.25293 h -3.486328 v -0.25293 q 0.65625,-0.0137 0.847656,-0.10938 0.191407,-0.10254 0.266602,-0.2666 0.0752,-0.1709 0.0752,-1.00488 v -5.00391 q 0,-1.01172 -0.06836,-1.29883 -0.04785,-0.21875 -0.177735,-0.32129 -0.123046,-0.10254 -0.300781,-0.10254 -0.252929,0 -0.704101,0.21192 z"
         style="font-size:14px;line-height:1.25"
         id="path121" /><path
         d="m 67.04809,-738.49249 q 0,-1.58594 0.478516,-2.72754 0.478515,-1.14844 1.271484,-1.70899 0.615234,-0.44433 1.271484,-0.44433 1.066407,0 1.914063,1.08691 1.05957,1.34668 1.05957,3.65039 0,1.61328 -0.464844,2.74121 -0.464843,1.12793 -1.189453,1.64063 -0.717773,0.50586 -1.387695,0.50586 -1.326172,0 -2.208008,-1.56543 -0.745117,-1.31934 -0.745117,-3.17871 z m 1.339844,0.1709 q 0,1.91406 0.471679,3.12402 0.389649,1.01855 1.16211,1.01855 0.36914,0 0.765625,-0.32812 0.396484,-0.33496 0.601562,-1.11426 0.314453,-1.17578 0.314453,-3.31543 0,-1.58594 -0.328125,-2.64551 -0.246093,-0.78613 -0.635742,-1.11425 -0.280273,-0.22559 -0.676758,-0.22559 -0.464843,0 -0.827148,0.41699 -0.492188,0.56738 -0.669922,1.78418 -0.177734,1.2168 -0.177734,2.39942 z"
         style="font-size:14px;line-height:1.25"
         id="path123" /></g><g
       aria-label="417 ns"
       transform="scale(1,-1)"
       style="font-style:normal;font-variant:normal;font-weight:normal;font-stretch:normal;line-height:0%;font-family:'Times New Roman';-inkscape-font-specification:'Times New Roman, ';letter-spacing:0px;word-spacing:0px;fill:#000000;fill-opacity:1;stroke:none;stroke-width:1px;stroke-linecap:butt;stroke-linejoin:miter;stroke-opacity:1"
       id="text4211-35"><path
         d="m 195.24809,-705.93921 v 0.83203 h -1.0664 v 2.09766 h -0.9668 v -2.09766 h -3.36328 v -0.75 l 3.68555,-5.26172 h 0.64453 v 5.17969 z m -2.0332,0 v -3.94336 l -2.78906,3.94336 z"
         style="font-size:12px;line-height:1.25"
         id="path126" /><path
         d="m 197.07036,-710.17554 1.93359,-0.94336 h 0.19336 v 6.70899 q 0,0.66797 0.0527,0.83203 0.0586,0.16406 0.23437,0.25195 0.17578,0.0879 0.71484,0.0996 v 0.2168 h -2.98828 v -0.2168 q 0.5625,-0.0117 0.72657,-0.0937 0.16406,-0.0879 0.22851,-0.22851 0.0645,-0.14649 0.0645,-0.86133 v -4.28906 q 0,-0.86719 -0.0586,-1.11329 -0.041,-0.1875 -0.15234,-0.27539 -0.10547,-0.0879 -0.25782,-0.0879 -0.21679,0 -0.60351,0.18164 z"
         style="font-size:12px;line-height:1.25"
         id="path128" /><path
         d="m 202.87114,-710.95483 h 4.25977 v 0.22265 l -2.64844,7.88672 h -0.65625 l 2.37304,-7.1543 h -2.18554 q -0.66211,0 -0.94336,0.15821 -0.49219,0.26953 -0.79102,0.83203 l -0.16992,-0.0645 z"
         style="font-size:12px;line-height:1.25"
         id="path130" /><path
         d="m 212.60356,-707.39819 q 0.94336,-1.13672 1.79883,-1.13672 0.43945,0 0.75586,0.22265 0.31641,0.2168 0.50391,0.72071 0.1289,0.35156 0.1289,1.07812 v 2.29102 q 0,0.50976 0.082,0.6914 0.0645,0.14649 0.20508,0.22852 0.14649,0.082 0.5332,0.082 v 0.21094 h -2.65429 v -0.21094 h 0.11133 q 0.375,0 0.52148,-0.11133 0.15234,-0.11718 0.21094,-0.33984 0.0234,-0.0879 0.0234,-0.55078 v -2.19727 q 0,-0.73242 -0.19335,-1.06054 -0.1875,-0.33399 -0.63868,-0.33399 -0.69726,0 -1.38867,0.76172 v 2.83008 q 0,0.54492 0.0645,0.67383 0.082,0.16992 0.22266,0.25195 0.14649,0.0762 0.58594,0.0762 v 0.21094 h -2.6543 v -0.21094 h 0.11719 q 0.41016,0 0.55078,-0.20508 0.14648,-0.21093 0.14648,-0.79687 v -1.99219 q 0,-0.9668 -0.0469,-1.17773 -0.041,-0.21094 -0.13477,-0.28711 -0.0879,-0.0762 -0.24023,-0.0762 -0.16406,0 -0.39258,0.0879 l -0.0879,-0.21094 1.61719,-0.65625 h 0.25195 z"
         style="font-size:12px;line-height:1.25"
         id="path132" /><path
         d="m 220.50786,-708.53491 v 1.82812 h -0.19336 q -0.22266,-0.86133 -0.57422,-1.17187 -0.3457,-0.31055 -0.88477,-0.31055 -0.41015,0 -0.6621,0.2168 -0.25196,0.21679 -0.25196,0.48047 0,0.32812 0.1875,0.5625 0.18164,0.24023 0.73828,0.50976 l 0.85547,0.41602 q 1.18946,0.58008 1.18946,1.52929 0,0.73243 -0.55665,1.1836 -0.55078,0.44531 -1.23632,0.44531 -0.49219,0 -1.125,-0.17578 -0.19336,-0.0586 -0.31641,-0.0586 -0.13477,0 -0.21094,0.15234 h -0.19336 v -1.91602 h 0.19336 q 0.16407,0.82032 0.62696,1.23633 0.46289,0.41602 1.03711,0.41602 0.40429,0 0.65625,-0.23438 0.25781,-0.24023 0.25781,-0.57422 0,-0.40429 -0.28711,-0.67968 -0.28125,-0.27539 -1.13086,-0.69727 -0.84961,-0.42187 -1.11328,-0.76172 -0.26367,-0.33398 -0.26367,-0.84375 0,-0.66211 0.45117,-1.10742 0.45703,-0.44531 1.17773,-0.44531 0.31641,0 0.76758,0.13476 0.29883,0.0879 0.39844,0.0879 0.0937,0 0.14648,-0.041 0.0527,-0.041 0.12305,-0.18164 z"
         style="font-size:12px;line-height:1.25"
         id="path134" /></g><g
       aria-label=" "
       transform="scale(1,-1)"
       style="font-style:normal;font-weight:normal;line-height:0%;font-family:sans-serif;letter-spacing:0px;word-spacing:0px;fill:#000000;fill-opacity:1;stroke:none;stroke-width:1px;stroke-linecap:butt;stroke-linejoin:miter;stroke-opacity:1"
       id="text4257" /><g
       aria-label=" "
       transform="scale(1,-1)"
       style="font-style:normal;font-weight:normal;line-height:0%;font-family:sans-serif;letter-spacing:0px;word-spacing:0px;fill:#000000;fill-opacity:1;stroke:none;stroke-width:1px;stroke-linecap:butt;stroke-linejoin:miter;stroke-opacity:1"
       id="text4261" /><path
       style="fill:none;fill-rule:evenodd;stroke:#000000;stroke-width:0.80000001;stroke-linecap:butt;stroke-linejoin:miter;stroke-miterlimit:4;stroke-dasharray:0.8, 0.8;stroke-dashoffset:0;stroke-opacity:1;marker-start:url(#Arrow2Mstart);marker-end:url(#marker4857)"
       d="M 93.048708,681.24536 H 173.20213"
       id="path4683"
       inkscape:connector-curvature="0"
       sodipodi:nodetypes="cc" /><path
       style="opacity:0.97000002;fill:none;fill-rule:evenodd;stroke:#000000;stroke-width:0.80000001;stroke-linecap:butt;stroke-linejoin:miter;stroke-miterlimit:4;stroke-dasharray:0.8, 0.8;stroke-dashoffset:0;stroke-opacity:1"
       d="m 133.64369,714.44555 v -30"
       id="path5011"
       inkscape:connector-curvature="0" /><g
       aria-label="417 ns"
       transform="scale(1.0000045,-0.9999955)"
       style="font-style:normal;font-variant:normal;font-weight:normal;font-stretch:normal;line-height:0%;font-family:'Times New Roman';-inkscape-font-specification:'Times New Roman, ';letter-spacing:0px;word-spacing:0px;fill:#000000;fill-opacity:1;stroke:none;stroke-width:1px;stroke-linecap:butt;stroke-linejoin:miter;stroke-opacity:1"
       id="text4211-35-5"><path
         d="m 145.5426,-705.9425 v 0.83203 h -1.0664 v 2.09765 h -0.9668 v -2.09765 h -3.36328 v -0.75 l 3.68555,-5.26172 h 0.64453 v 5.17969 z m -2.0332,0 v -3.94336 l -2.78906,3.94336 z"
         style="font-size:12px;line-height:1.25"
         id="path139" /><path
         d="m 147.36487,-710.17883 1.93359,-0.94336 h 0.19336 v 6.70898 q 0,0.66797 0.0527,0.83203 0.0586,0.16407 0.23437,0.25196 0.17578,0.0879 0.71484,0.0996 v 0.21679 h -2.98828 v -0.21679 q 0.5625,-0.0117 0.72657,-0.0937 0.16406,-0.0879 0.22851,-0.22852 0.0645,-0.14648 0.0645,-0.86133 v -4.28906 q 0,-0.86719 -0.0586,-1.11328 -0.041,-0.1875 -0.15234,-0.27539 -0.10547,-0.0879 -0.25782,-0.0879 -0.21679,0 -0.60351,0.18164 z"
         style="font-size:12px;line-height:1.25"
         id="path141" /><path
         d="m 153.16565,-710.95813 h 4.25977 v 0.22266 l -2.64844,7.88672 h -0.65625 l 2.37304,-7.1543 h -2.18554 q -0.66211,0 -0.94336,0.1582 -0.49219,0.26953 -0.79102,0.83203 l -0.16992,-0.0644 z"
         style="font-size:12px;line-height:1.25"
         id="path143" /><path
         d="m 162.89807,-707.40149 q 0.94336,-1.13672 1.79883,-1.13672 0.43945,0 0.75586,0.22266 0.31641,0.2168 0.50391,0.7207 0.1289,0.35156 0.1289,1.07813 v 2.29101 q 0,0.50977 0.082,0.69141 0.0645,0.14648 0.20508,0.22851 0.14649,0.082 0.5332,0.082 v 0.21093 h -2.65429 v -0.21093 h 0.11133 q 0.375,0 0.52148,-0.11133 0.15234,-0.11719 0.21094,-0.33985 0.0234,-0.0879 0.0234,-0.55078 v -2.19726 q 0,-0.73243 -0.19335,-1.06055 -0.1875,-0.33398 -0.63868,-0.33398 -0.69726,0 -1.38867,0.76171 v 2.83008 q 0,0.54492 0.0645,0.67383 0.082,0.16992 0.22266,0.25195 0.14649,0.0762 0.58594,0.0762 v 0.21093 h -2.6543 v -0.21093 h 0.11719 q 0.41016,0 0.55078,-0.20508 0.14648,-0.21094 0.14648,-0.79688 v -1.99219 q 0,-0.96679 -0.0469,-1.17773 -0.041,-0.21094 -0.13477,-0.28711 -0.0879,-0.0762 -0.24023,-0.0762 -0.16406,0 -0.39258,0.0879 l -0.0879,-0.21094 1.61719,-0.65625 h 0.25195 z"
         style="font-size:12px;line-height:1.25"
         id="path145" /><path
         d="m 170.80237,-708.53821 v 1.82813 h -0.19336 q -0.22266,-0.86133 -0.57422,-1.17188 -0.3457,-0.31054 -0.88477,-0.31054 -0.41015,0 -0.6621,0.21679 -0.25196,0.2168 -0.25196,0.48047 0,0.32813 0.1875,0.5625 0.18164,0.24024 0.73828,0.50977 l 0.85547,0.41601 q 1.18946,0.58008 1.18946,1.5293 0,0.73242 -0.55665,1.18359 -0.55078,0.44532 -1.23632,0.44532 -0.49219,0 -1.125,-0.17579 -0.19336,-0.0586 -0.31641,-0.0586 -0.13477,0 -0.21094,0.15234 h -0.19336 v -1.91601 h 0.19336 q 0.16407,0.82031 0.62696,1.23633 0.46289,0.41601 1.03711,0.41601 0.40429,0 0.65625,-0.23437 0.25781,-0.24024 0.25781,-0.57422 0,-0.4043 -0.28711,-0.67969 -0.28125,-0.27539 -1.13086,-0.69726 -0.84961,-0.42188 -1.11328,-0.76172 -0.26367,-0.33399 -0.26367,-0.84375 0,-0.66211 0.45117,-1.10743 0.45703,-0.44531 1.17773,-0.44531 0.31641,0 0.76758,0.13477 0.29883,0.0879 0.39844,0.0879 0.0937,0 0.14648,-0.041 0.0527,-0.041 0.12305,-0.18164 z"
         style="font-size:12px;line-height:1.25"
         id="path147" /></g><g
       aria-label="417 ns"
       transform="scale(1,-1)"
       style="font-style:normal;font-variant:normal;font-weight:normal;font-stretch:normal;line-height:0%;font-family:'Times New Roman';-inkscape-font-specification:'Times New Roman, ';letter-spacing:0px;word-spacing:0px;fill:#000000;fill-opacity:1;stroke:none;stroke-width:1px;stroke-linecap:butt;stroke-linejoin:miter;stroke-opacity:1"
       id="text4211-35-2"><path
         d="m 104.75571,-705.93921 v 0.83203 h -1.06641 v 2.09766 h -0.9668 v -2.09766 h -3.363278 v -0.75 l 3.685548,-5.26172 h 0.64453 v 5.17969 z m -2.03321,0 v -3.94336 l -2.789059,3.94336 z"
         style="font-size:12px;line-height:1.25"
         id="path150" /><path
         d="m 106.57797,-710.17554 1.9336,-0.94336 h 0.19336 v 6.70899 q 0,0.66797 0.0527,0.83203 0.0586,0.16406 0.23437,0.25195 0.17579,0.0879 0.71485,0.0996 v 0.2168 h -2.98828 v -0.2168 q 0.5625,-0.0117 0.72656,-0.0937 0.16406,-0.0879 0.22852,-0.22851 0.0644,-0.14649 0.0644,-0.86133 v -4.28906 q 0,-0.86719 -0.0586,-1.11329 -0.041,-0.1875 -0.15234,-0.27539 -0.10547,-0.0879 -0.25781,-0.0879 -0.2168,0 -0.60352,0.18164 z"
         style="font-size:12px;line-height:1.25"
         id="path152" /><path
         d="m 112.37875,-710.95483 h 4.25977 v 0.22265 l -2.64844,7.88672 h -0.65625 l 2.37305,-7.1543 h -2.18555 q -0.66211,0 -0.94336,0.15821 -0.49219,0.26953 -0.79101,0.83203 l -0.16993,-0.0645 z"
         style="font-size:12px;line-height:1.25"
         id="path154" /><path
         d="m 122.11118,-707.39819 q 0.94335,-1.13672 1.79882,-1.13672 0.43946,0 0.75586,0.22265 0.31641,0.2168 0.50391,0.72071 0.12891,0.35156 0.12891,1.07812 v 2.29102 q 0,0.50976 0.082,0.6914 0.0645,0.14649 0.20507,0.22852 0.14649,0.082 0.53321,0.082 v 0.21094 h -2.6543 v -0.21094 h 0.11133 q 0.375,0 0.52148,-0.11133 0.15235,-0.11718 0.21094,-0.33984 0.0234,-0.0879 0.0234,-0.55078 v -2.19727 q 0,-0.73242 -0.19336,-1.06054 -0.1875,-0.33399 -0.63867,-0.33399 -0.69727,0 -1.38867,0.76172 v 2.83008 q 0,0.54492 0.0644,0.67383 0.082,0.16992 0.22265,0.25195 0.14649,0.0762 0.58594,0.0762 v 0.21094 h -2.65429 v -0.21094 h 0.11718 q 0.41016,0 0.55078,-0.20508 0.14649,-0.21093 0.14649,-0.79687 v -1.99219 q 0,-0.9668 -0.0469,-1.17773 -0.041,-0.21094 -0.13476,-0.28711 -0.0879,-0.0762 -0.24024,-0.0762 -0.16406,0 -0.39257,0.0879 l -0.0879,-0.21094 1.61719,-0.65625 h 0.25196 z"
         style="font-size:12px;line-height:1.25"
         id="path156" /><path
         d="m 130.01547,-708.53491 v 1.82812 h -0.19336 q -0.22265,-0.86133 -0.57422,-1.17187 -0.3457,-0.31055 -0.88476,-0.31055 -0.41016,0 -0.66211,0.2168 -0.25195,0.21679 -0.25195,0.48047 0,0.32812 0.1875,0.5625 0.18164,0.24023 0.73828,0.50976 l 0.85547,0.41602 q 1.18945,0.58008 1.18945,1.52929 0,0.73243 -0.55664,1.1836 -0.55078,0.44531 -1.23633,0.44531 -0.49219,0 -1.125,-0.17578 -0.19336,-0.0586 -0.31641,-0.0586 -0.13476,0 -0.21093,0.15234 h -0.19336 v -1.91602 h 0.19336 q 0.16406,0.82032 0.62695,1.23633 0.46289,0.41602 1.03711,0.41602 0.4043,0 0.65625,-0.23438 0.25781,-0.24023 0.25781,-0.57422 0,-0.40429 -0.28711,-0.67968 -0.28125,-0.27539 -1.13086,-0.69727 -0.84961,-0.42187 -1.11328,-0.76172 -0.26367,-0.33398 -0.26367,-0.84375 0,-0.66211 0.45117,-1.10742 0.45703,-0.44531 1.17774,-0.44531 0.3164,0 0.76757,0.13476 0.29883,0.0879 0.39844,0.0879 0.0937,0 0.14649,-0.041 0.0527,-0.041 0.12304,-0.18164 z"
         style="font-size:12px;line-height:1.25"
         id="path158" /></g><g
       aria-label="834 ns"
       transform="scale(1,-1)"
       style="font-style:normal;font-variant:normal;font-weight:normal;font-stretch:normal;line-height:0%;font-family:'Times New Roman';-inkscape-font-specification:'Times New Roman, ';letter-spacing:0px;word-spacing:0px;fill:#000000;fill-opacity:1;stroke:none;stroke-width:1px;stroke-linecap:butt;stroke-linejoin:miter;stroke-opacity:1"
       id="text4211-35-1"><path
         d="m 124.43742,-671.90918 q -0.94336,-0.77344 -1.21875,-1.24219 -0.26954,-0.46875 -0.26954,-0.97265 0,-0.77344 0.59766,-1.33008 0.59766,-0.5625 1.58789,-0.5625 0.96094,0 1.54688,0.52148 0.58593,0.52149 0.58593,1.18946 0,0.44531 -0.3164,0.9082 -0.31641,0.46289 -1.31836,1.08984 1.03125,0.79688 1.36523,1.25391 0.44532,0.59766 0.44532,1.25976 0,0.8379 -0.63868,1.43555 -0.63867,0.5918 -1.67578,0.5918 -1.13086,0 -1.76367,-0.70899 -0.50391,-0.56836 -0.50391,-1.24218 0,-0.52735 0.35157,-1.04297 0.35742,-0.52149 1.22461,-1.14844 z m 0.91992,-0.62695 q 0.70312,-0.63282 0.89062,-0.9961 0.1875,-0.36914 0.1875,-0.83203 0,-0.61523 -0.3457,-0.96094 -0.3457,-0.35156 -0.94336,-0.35156 -0.59766,0 -0.97266,0.34571 -0.375,0.3457 -0.375,0.80859 0,0.30469 0.15235,0.60937 0.1582,0.30469 0.44531,0.58008 z m -0.64453,0.84961 q -0.48633,0.41015 -0.72071,0.89648 -0.23437,0.48047 -0.23437,1.04297 0,0.75586 0.41015,1.21289 0.41602,0.45117 1.05469,0.45117 0.63281,0 1.01367,-0.35742 0.38086,-0.35742 0.38086,-0.86719 0,-0.42187 -0.22265,-0.75586 -0.41602,-0.62109 -1.68164,-1.62304 z"
         style="font-size:12px;line-height:1.25"
         id="path161" /><path
         d="m 128.74406,-674.34082 q 0.33984,-0.80273 0.85547,-1.23633 0.52148,-0.43945 1.29492,-0.43945 0.95508,0 1.46484,0.62109 0.38672,0.46289 0.38672,0.99024 0,0.86718 -1.08984,1.79297 0.73242,0.2871 1.10742,0.82031 0.375,0.5332 0.375,1.2539 0,1.03125 -0.65625,1.78711 -0.85547,0.98438 -2.47852,0.98438 -0.80273,0 -1.0957,-0.19922 -0.28711,-0.19922 -0.28711,-0.42773 0,-0.16993 0.13477,-0.29883 0.14062,-0.12891 0.33398,-0.12891 0.14648,0 0.29883,0.0469 0.0996,0.0293 0.45117,0.21679 0.35156,0.18164 0.48633,0.2168 0.21679,0.0644 0.46289,0.0644 0.59765,0 1.03711,-0.46289 0.44531,-0.46289 0.44531,-1.0957 0,-0.46289 -0.20508,-0.90234 -0.15234,-0.32813 -0.33398,-0.49805 -0.25196,-0.23438 -0.69141,-0.42188 -0.43945,-0.19336 -0.89648,-0.19336 h -0.1875 v -0.17578 q 0.46289,-0.0586 0.92578,-0.33398 0.46875,-0.27539 0.67969,-0.66211 0.21093,-0.38672 0.21093,-0.84961 0,-0.60352 -0.38086,-0.97266 -0.375,-0.375 -0.9375,-0.375 -0.9082,0 -1.51757,0.97266 z"
         style="font-size:12px;line-height:1.25"
         id="path163" /><path
         d="m 139.71867,-670.83691 v 0.83203 h -1.06641 v 2.09765 h -0.9668 v -2.09765 h -3.36328 v -0.75 l 3.68555,-5.26172 h 0.64453 v 5.17969 z m -2.03321,0 v -3.94336 l -2.78906,3.94336 z"
         style="font-size:12px;line-height:1.25"
         id="path165" /><path
         d="m 145.07413,-672.2959 q 0.94336,-1.13672 1.79883,-1.13672 0.43946,0 0.75586,0.22266 0.31641,0.2168 0.50391,0.7207 0.1289,0.35156 0.1289,1.07813 v 2.29101 q 0,0.50977 0.082,0.69141 0.0644,0.14648 0.20507,0.22851 0.14649,0.082 0.53321,0.082 v 0.21093 h -2.6543 v -0.21093 h 0.11133 q 0.375,0 0.52148,-0.11133 0.15235,-0.11719 0.21094,-0.33985 0.0234,-0.0879 0.0234,-0.55078 v -2.19726 q 0,-0.73242 -0.19336,-1.06055 -0.1875,-0.33398 -0.63867,-0.33398 -0.69727,0 -1.38868,0.76171 v 2.83008 q 0,0.54492 0.0645,0.67383 0.082,0.16992 0.22265,0.25195 0.14649,0.0762 0.58594,0.0762 v 0.21093 h -2.6543 v -0.21093 h 0.11719 q 0.41016,0 0.55078,-0.20508 0.14649,-0.21094 0.14649,-0.79688 v -1.99218 q 0,-0.9668 -0.0469,-1.17774 -0.041,-0.21094 -0.13476,-0.28711 -0.0879,-0.0762 -0.24024,-0.0762 -0.16406,0 -0.39258,0.0879 l -0.0879,-0.21094 1.61719,-0.65625 h 0.25195 z"
         style="font-size:12px;line-height:1.25"
         id="path167" /><path
         d="m 152.97843,-673.43262 v 1.82813 h -0.19336 q -0.22265,-0.86133 -0.57422,-1.17188 -0.3457,-0.31054 -0.88476,-0.31054 -0.41016,0 -0.66211,0.21679 -0.25195,0.2168 -0.25195,0.48047 0,0.32813 0.1875,0.5625 0.18164,0.24024 0.73828,0.50977 l 0.85547,0.41601 q 1.18945,0.58008 1.18945,1.5293 0,0.73242 -0.55664,1.18359 -0.55078,0.44532 -1.23633,0.44532 -0.49219,0 -1.125,-0.17579 -0.19336,-0.0586 -0.31641,-0.0586 -0.13476,0 -0.21093,0.15234 h -0.19336 v -1.91601 h 0.19336 q 0.16406,0.82031 0.62695,1.23633 0.46289,0.41601 1.03711,0.41601 0.4043,0 0.65625,-0.23437 0.25781,-0.24024 0.25781,-0.57422 0,-0.4043 -0.28711,-0.67969 -0.28125,-0.27539 -1.13086,-0.69726 -0.84961,-0.42188 -1.11328,-0.76172 -0.26367,-0.33399 -0.26367,-0.84375 0,-0.66211 0.45117,-1.10742 0.45703,-0.44532 1.17774,-0.44532 0.3164,0 0.76757,0.13477 0.29883,0.0879 0.39844,0.0879 0.0937,0 0.14649,-0.041 0.0527,-0.041 0.12304,-0.18164 z"
         style="font-size:12px;line-height:1.25"
         id="path169" /></g><g
       aria-label="0 bit"
       transform="scale(1.0000059,-0.9999941)"
       style="font-style:normal;font-variant:normal;font-weight:normal;font-stretch:normal;line-height:0%;font-family:'Times New Roman';-inkscape-font-specification:'Times New Roman, ';letter-spacing:0px;word-spacing:0px;fill:#000000;fill-opacity:1;stroke:none;stroke-width:1px;stroke-linecap:butt;stroke-linejoin:miter;stroke-opacity:1"
       id="text4211-35-7"><path
         d="m 193.25253,-695.30457 q 0,-1.35937 0.41016,-2.33789 0.41016,-0.98437 1.08984,-1.46484 0.52735,-0.38086 1.08985,-0.38086 0.91406,0 1.64062,0.93164 0.9082,1.1543 0.9082,3.12891 0,1.38281 -0.39843,2.34961 -0.39844,0.96679 -1.01953,1.40625 -0.61524,0.43359 -1.18946,0.43359 -1.13672,0 -1.89258,-1.3418 -0.63867,-1.13086 -0.63867,-2.72461 z m 1.14844,0.14649 q 0,1.64062 0.4043,2.67773 0.33398,0.87305 0.99609,0.87305 0.31641,0 0.65625,-0.28125 0.33984,-0.28711 0.51563,-0.95508 0.26953,-1.00781 0.26953,-2.84179 0,-1.35938 -0.28125,-2.26758 -0.21094,-0.67383 -0.54492,-0.95508 -0.24024,-0.19336 -0.58008,-0.19336 -0.39844,0 -0.70899,0.35742 -0.42187,0.48633 -0.57422,1.5293 -0.15234,1.04297 -0.15234,2.05664 z"
         style="font-size:12px;line-height:1.25"
         id="path172" /><path
         d="m 203.66464,-695.82019 q 0.7793,-1.08398 1.68164,-1.08398 0.82617,0 1.44141,0.70898 0.61523,0.70312 0.61523,1.92773 0,1.42969 -0.94922,2.30274 -0.81445,0.75 -1.8164,0.75 -0.46875,0 -0.95508,-0.16992 -0.48047,-0.16993 -0.98437,-0.50977 v -5.56055 q 0,-0.91406 -0.0469,-1.125 -0.041,-0.21093 -0.13477,-0.28711 -0.0937,-0.0762 -0.23437,-0.0762 -0.16406,0 -0.41016,0.0937 l -0.082,-0.20508 1.61133,-0.65625 h 0.26367 z m 0,0.375 v 3.21094 q 0.29883,0.29297 0.61524,0.44531 0.32226,0.14648 0.65625,0.14648 0.5332,0 0.99023,-0.58593 0.46289,-0.58594 0.46289,-1.70508 0,-1.03125 -0.46289,-1.58203 -0.45703,-0.55664 -1.04297,-0.55664 -0.31054,0 -0.62109,0.1582 -0.23438,0.11719 -0.59766,0.46875 z"
         style="font-size:12px;line-height:1.25"
         id="path174" /><path
         d="m 209.55917,-699.71082 q 0.2461,0 0.41602,0.17579 0.17578,0.16992 0.17578,0.41601 0,0.2461 -0.17578,0.42188 -0.16992,0.17578 -0.41602,0.17578 -0.24609,0 -0.42187,-0.17578 -0.17578,-0.17578 -0.17578,-0.42188 0,-0.24609 0.16992,-0.41601 0.17578,-0.17579 0.42773,-0.17579 z m 0.48633,2.80665 v 4.3125 q 0,0.5039 0.0703,0.67382 0.0762,0.16407 0.2168,0.2461 0.14649,0.082 0.52734,0.082 v 0.21094 h -2.60742 v -0.21094 q 0.39258,0 0.52735,-0.0762 0.13476,-0.0762 0.21093,-0.25196 0.082,-0.17578 0.082,-0.67382 v -2.06836 q 0,-0.87305 -0.0527,-1.13086 -0.041,-0.1875 -0.12891,-0.25782 -0.0879,-0.0762 -0.24023,-0.0762 -0.16406,0 -0.39844,0.0879 l -0.082,-0.21093 1.61719,-0.65625 z"
         style="font-size:12px;line-height:1.25"
         id="path176" /><path
         d="m 213.08066,-698.50964 v 1.76367 h 1.2539 v 0.41015 h -1.2539 v 3.48047 q 0,0.52149 0.14648,0.70313 0.15235,0.18164 0.38672,0.18164 0.19336,0 0.375,-0.11719 0.18164,-0.12305 0.28125,-0.35742 h 0.22852 q -0.20508,0.57422 -0.58008,0.86719 -0.375,0.28711 -0.77344,0.28711 -0.26953,0 -0.52734,-0.14649 -0.25782,-0.15234 -0.38086,-0.42773 -0.12305,-0.28125 -0.12305,-0.86133 v -3.60938 h -0.84961 v -0.19335 q 0.32227,-0.12891 0.65625,-0.4336 0.33985,-0.31055 0.60352,-0.73242 0.13476,-0.22266 0.375,-0.81445 z"
         style="font-size:12px;line-height:1.25"
         id="path178" /></g><g
       aria-label="1 bit"
       transform="scale(1.0000104,-0.9999896)"
       style="font-style:normal;font-variant:normal;font-weight:normal;font-stretch:normal;line-height:0%;font-family:'Times New Roman';-inkscape-font-specification:'Times New Roman, ';letter-spacing:0px;word-spacing:0px;fill:#000000;fill-opacity:1;stroke:none;stroke-width:1px;stroke-linecap:butt;stroke-linejoin:miter;stroke-opacity:1"
       id="text4211-35-5-9"><path
         d="m 142.92009,-698.54828 1.93359,-0.94336 h 0.19336 v 6.70899 q 0,0.66796 0.0527,0.83203 0.0586,0.16406 0.23437,0.25195 0.17578,0.0879 0.71485,0.0996 v 0.2168 h -2.98829 v -0.2168 q 0.5625,-0.0117 0.72657,-0.0937 0.16406,-0.0879 0.22851,-0.22852 0.0645,-0.14648 0.0645,-0.86132 v -4.28907 q 0,-0.86718 -0.0586,-1.11328 -0.041,-0.1875 -0.15234,-0.27539 -0.10547,-0.0879 -0.25781,-0.0879 -0.2168,0 -0.60352,0.18164 z"
         style="font-size:12px;line-height:1.25"
         id="path181" /><path
         d="m 152.35954,-695.82367 q 0.7793,-1.08398 1.68164,-1.08398 0.82618,0 1.44141,0.70898 0.61523,0.70313 0.61523,1.92773 0,1.42969 -0.94921,2.30274 -0.81446,0.75 -1.81641,0.75 -0.46875,0 -0.95508,-0.16992 -0.48047,-0.16992 -0.98437,-0.50977 v -5.56055 q 0,-0.91406 -0.0469,-1.125 -0.041,-0.21093 -0.13476,-0.2871 -0.0937,-0.0762 -0.23438,-0.0762 -0.16406,0 -0.41016,0.0937 l -0.082,-0.20507 1.61133,-0.65625 h 0.26367 z m 0,0.375 v 3.21094 q 0.29883,0.29297 0.61524,0.44531 0.32226,0.14648 0.65625,0.14648 0.5332,0 0.99023,-0.58593 0.46289,-0.58594 0.46289,-1.70508 0,-1.03125 -0.46289,-1.58203 -0.45703,-0.55664 -1.04297,-0.55664 -0.31054,0 -0.62109,0.1582 -0.23438,0.11719 -0.59766,0.46875 z"
         style="font-size:12px;line-height:1.25"
         id="path183" /><path
         d="m 158.25407,-699.71429 q 0.2461,0 0.41602,0.17578 0.17578,0.16992 0.17578,0.41601 0,0.2461 -0.17578,0.42188 -0.16992,0.17578 -0.41602,0.17578 -0.24609,0 -0.42187,-0.17578 -0.17578,-0.17578 -0.17578,-0.42188 0,-0.24609 0.16992,-0.41601 0.17578,-0.17578 0.42773,-0.17578 z m 0.48633,2.80664 v 4.3125 q 0,0.5039 0.0703,0.67382 0.0762,0.16407 0.2168,0.2461 0.14649,0.082 0.52735,0.082 v 0.21094 h -2.60743 v -0.21094 q 0.39258,0 0.52735,-0.0762 0.13476,-0.0762 0.21093,-0.25196 0.082,-0.17578 0.082,-0.67382 v -2.06836 q 0,-0.87305 -0.0527,-1.13086 -0.041,-0.1875 -0.1289,-0.25782 -0.0879,-0.0762 -0.24024,-0.0762 -0.16406,0 -0.39844,0.0879 l -0.082,-0.21093 1.61719,-0.65625 z"
         style="font-size:12px;line-height:1.25"
         id="path185" /><path
         d="m 161.77556,-698.51312 v 1.76367 h 1.2539 v 0.41016 h -1.2539 v 3.48046 q 0,0.52149 0.14648,0.70313 0.15235,0.18164 0.38672,0.18164 0.19336,0 0.375,-0.11719 0.18164,-0.12304 0.28125,-0.35742 h 0.22852 q -0.20508,0.57422 -0.58008,0.86719 -0.375,0.28711 -0.77344,0.28711 -0.26953,0 -0.52734,-0.14649 -0.25781,-0.15234 -0.38086,-0.42773 -0.12305,-0.28125 -0.12305,-0.86133 v -3.60937 h -0.84961 v -0.19336 q 0.32227,-0.12891 0.65625,-0.4336 0.33985,-0.31054 0.60352,-0.73242 0.13476,-0.22266 0.375,-0.81445 z"
         style="font-size:12px;line-height:1.25"
         id="path187" /></g><g
       aria-label="1 bit"
       transform="scale(1.0000059,-0.9999941)"
       style="font-style:normal;font-variant:normal;font-weight:normal;font-stretch:normal;line-height:0%;font-family:'Times New Roman';-inkscape-font-specification:'Times New Roman, ';letter-spacing:0px;word-spacing:0px;fill:#000000;fill-opacity:1;stroke:none;stroke-width:1px;stroke-linecap:butt;stroke-linejoin:miter;stroke-opacity:1"
       id="text4211-35-2-6"><path
         d="m 102.13343,-698.5448 1.93359,-0.94336 h 0.19336 v 6.70899 q 0,0.66796 0.0527,0.83203 0.0586,0.16406 0.23437,0.25195 0.17578,0.0879 0.71485,0.0996 v 0.2168 h -2.98828 v -0.2168 q 0.5625,-0.0117 0.72656,-0.0937 0.16406,-0.0879 0.22851,-0.22852 0.0645,-0.14648 0.0645,-0.86132 v -4.28907 q 0,-0.86718 -0.0586,-1.11328 -0.041,-0.1875 -0.15234,-0.27539 -0.10547,-0.0879 -0.25781,-0.0879 -0.2168,0 -0.60352,0.18164 z"
         style="font-size:12px;line-height:1.25"
         id="path190" /><path
         d="m 111.57288,-695.82019 q 0.7793,-1.08398 1.68164,-1.08398 0.82618,0 1.44141,0.70898 0.61523,0.70312 0.61523,1.92773 0,1.42969 -0.94921,2.30274 -0.81446,0.75 -1.81641,0.75 -0.46875,0 -0.95508,-0.16992 -0.48047,-0.16993 -0.98437,-0.50977 v -5.56055 q 0,-0.91406 -0.0469,-1.125 -0.041,-0.21093 -0.13476,-0.28711 -0.0937,-0.0762 -0.23438,-0.0762 -0.16406,0 -0.41016,0.0937 l -0.082,-0.20508 1.61133,-0.65625 h 0.26367 z m 0,0.375 v 3.21094 q 0.29883,0.29297 0.61524,0.44531 0.32226,0.14648 0.65625,0.14648 0.5332,0 0.99023,-0.58593 0.46289,-0.58594 0.46289,-1.70508 0,-1.03125 -0.46289,-1.58203 -0.45703,-0.55664 -1.04297,-0.55664 -0.31054,0 -0.62109,0.1582 -0.23438,0.11719 -0.59766,0.46875 z"
         style="font-size:12px;line-height:1.25"
         id="path192" /><path
         d="m 117.46741,-699.71082 q 0.2461,0 0.41602,0.17579 0.17578,0.16992 0.17578,0.41601 0,0.2461 -0.17578,0.42188 -0.16992,0.17578 -0.41602,0.17578 -0.24609,0 -0.42187,-0.17578 -0.17578,-0.17578 -0.17578,-0.42188 0,-0.24609 0.16992,-0.41601 0.17578,-0.17579 0.42773,-0.17579 z m 0.48633,2.80665 v 4.3125 q 0,0.5039 0.0703,0.67382 0.0762,0.16407 0.21679,0.2461 0.14649,0.082 0.52735,0.082 v 0.21094 h -2.60743 v -0.21094 q 0.39258,0 0.52735,-0.0762 0.13476,-0.0762 0.21094,-0.25196 0.082,-0.17578 0.082,-0.67382 v -2.06836 q 0,-0.87305 -0.0527,-1.13086 -0.041,-0.1875 -0.1289,-0.25782 -0.0879,-0.0762 -0.24024,-0.0762 -0.16406,0 -0.39844,0.0879 l -0.082,-0.21093 1.61719,-0.65625 z"
         style="font-size:12px;line-height:1.25"
         id="path194" /><path
         d="m 120.9889,-698.50964 v 1.76367 h 1.25391 v 0.41015 h -1.25391 v 3.48047 q 0,0.52149 0.14648,0.70313 0.15235,0.18164 0.38672,0.18164 0.19336,0 0.375,-0.11719 0.18164,-0.12305 0.28125,-0.35742 h 0.22852 q -0.20508,0.57422 -0.58008,0.86719 -0.375,0.28711 -0.77344,0.28711 -0.26953,0 -0.52734,-0.14649 -0.25781,-0.15234 -0.38086,-0.42773 -0.12305,-0.28125 -0.12305,-0.86133 v -3.60938 h -0.84961 v -0.19335 q 0.32227,-0.12891 0.65625,-0.4336 0.33985,-0.31055 0.60352,-0.73242 0.13476,-0.22266 0.375,-0.81445 z"
         style="font-size:12px;line-height:1.25"
         id="path196" /></g><path
       inkscape:connector-curvature="0"
       id="path3423-8"
       style="fill:none;stroke:#24211d;stroke-width:1.49573803;stroke-linecap:butt;stroke-linejoin:round;stroke-miterlimit:10;stroke-dasharray:none;stroke-opacity:1"
       d="m 92.718903,750.64173 v 32.17567 h 48.847167 v -32.17567 h 87.4359 v 32.17567"
       sodipodi:nodetypes="cccccc" /><g
       aria-label="0-pattern = 100"
       transform="scale(1.0544199,-0.94838878)"
       style="font-variant:normal;font-weight:normal;line-height:0%;font-family:'Times New Roman';-inkscape-font-specification:'Times New';writing-mode:lr-tb;fill:#24211d;fill-opacity:1;fill-rule:nonzero;stroke:none"
       id="text3439-7"><path
         d="m -11.865973,-808.90948 q 0,-1.58594 0.478516,-2.72754 0.478516,-1.14844 1.271484,-1.70899 0.6152349,-0.44433 1.2714849,-0.44433 1.0664062,0 1.9140625,1.08691 1.0595703,1.34668 1.0595703,3.65039 0,1.61328 -0.4648438,2.74121 -0.4648437,1.12793 -1.1894531,1.64063 -0.7177734,0.50586 -1.3876953,0.50586 -1.3261715,0 -2.2080075,-1.56543 -0.745118,-1.31934 -0.745118,-3.17871 z m 1.339844,0.17089 q 0,1.91407 0.47168,3.12403 0.3896484,1.01855 1.1621093,1.01855 0.3691406,0 0.765625,-0.32812 0.3964844,-0.33496 0.6015625,-1.11426 0.3144531,-1.17578 0.3144531,-3.31543 0,-1.58594 -0.328125,-2.64551 -0.2460937,-0.78613 -0.6357422,-1.11426 -0.2802734,-0.22558 -0.6767578,-0.22558 -0.4648437,0 -0.8271484,0.41699 -0.4921875,0.56738 -0.6699215,1.78418 -0.177735,1.2168 -0.177735,2.39941 z"
         style="font-size:14px;line-height:1.25"
         id="path199" /><path
         d="m -4.8044491,-807.98663 h 3.5341797 v 1.03222 h -3.5341797 z"
         style="font-size:14px;line-height:1.25"
         id="path201" /><path
         d="m -0.70972252,-809.96906 1.92773442,-0.77929 h 0.2597656 v 1.46289 q 0.4853515,-0.82715 0.9707031,-1.15527 0.4921875,-0.33497 1.0322266,-0.33497 0.9433593,0 1.5722656,0.73829 0.7724609,0.90234 0.7724609,2.35156 0,1.62012 -0.9296875,2.67969 -0.765625,0.86816 -1.9277343,0.86816 -0.5058594,0 -0.875,-0.14356 -0.2734375,-0.10253 -0.6152344,-0.41015 v 1.90723 q 0,0.64257 0.075195,0.81347 0.082031,0.17774 0.2734375,0.28028 0.1982422,0.10253 0.7109375,0.10253 v 0.25293 h -3.28125001 v -0.25293 h 0.17089844 q 0.37597656,0.007 0.64257813,-0.14355 0.12988281,-0.0752 0.19824218,-0.24609 0.0751953,-0.16407 0.0751953,-0.84766 v -5.91992 q 0,-0.6084 -0.0546875,-0.77246 -0.0546875,-0.16407 -0.17773438,-0.2461 -0.11621094,-0.082 -0.32128906,-0.082 -0.1640625,0 -0.41699219,0.0957 z m 2.18750002,1.08692 v 2.33789 q 0,0.75879 0.061523,0.99805 0.095703,0.39648 0.4648438,0.69726 0.3759765,0.30078 0.9433593,0.30078 0.6835938,0 1.1074219,-0.5332 0.553711,-0.69727 0.553711,-1.96191 0,-1.43555 -0.6289063,-2.20801 -0.4375,-0.5332 -1.0390625,-0.5332 -0.328125,0 -0.6494141,0.16406 -0.2460937,0.12304 -0.8134765,0.73828 z"
         style="font-size:14px;line-height:1.25"
         id="path203" /><path
         d="m 10.289301,-805.23175 q -0.9638673,0.74512 -1.209961,0.86133 -0.3691406,0.1709 -0.7861328,0.1709 -0.6494141,0 -1.0732422,-0.44434 -0.4169922,-0.44434 -0.4169922,-1.16895 0,-0.458 0.2050781,-0.79296 0.2802735,-0.46485 0.9707031,-0.875 0.6972657,-0.41016 2.310547,-0.99805 v -0.24609 q 0,-0.93653 -0.3007813,-1.28516 -0.2939453,-0.34863 -0.8613282,-0.34863 -0.430664,0 -0.6835937,0.23242 -0.2597656,0.23242 -0.2597656,0.5332 l 0.013672,0.39649 q 0,0.31445 -0.1640625,0.48535 -0.1572265,0.1709 -0.4169921,0.1709 -0.2529297,0 -0.4169922,-0.17774 -0.1572266,-0.17773 -0.1572266,-0.48535 0,-0.58789 0.6015625,-1.08008 0.6015625,-0.49219 1.6884766,-0.49219 0.8339843,0 1.3671873,0.28028 0.40332,0.21191 0.594727,0.66308 0.123047,0.29395 0.123047,1.20313 v 2.12598 q 0,0.8955 0.03418,1.10058 0.03418,0.19824 0.109375,0.2666 0.08203,0.0684 0.184571,0.0684 0.109375,0 0.191406,-0.0479 0.143555,-0.0889 0.553711,-0.49902 v 0.38281 q -0.765625,1.02539 -1.462891,1.02539 -0.334961,0 -0.533203,-0.23242 -0.198242,-0.23242 -0.205078,-0.79297 z m 0,-0.44434 v -2.38574 q -1.0322266,0.41016 -1.3330079,0.58106 -0.5400391,0.30078 -0.7724609,0.6289 -0.2324219,0.32813 -0.2324219,0.71778 0,0.49218 0.2939453,0.82031 0.2939453,0.32129 0.6767578,0.32129 0.5195313,0 1.3671876,-0.6836 z"
         style="font-size:14px;line-height:1.25"
         id="path205" /><path
         d="m 14.76684,-812.64874 v 2.05761 h 1.462891 v 0.47852 H 14.76684 v 4.06055 q 0,0.6084 0.170898,0.82031 0.177735,0.21191 0.451172,0.21191 0.225586,0 0.4375,-0.13672 0.211914,-0.14355 0.328125,-0.41699 h 0.266602 q -0.239258,0.66992 -0.676758,1.01172 -0.4375,0.33496 -0.902344,0.33496 -0.314453,0 -0.615234,-0.1709 -0.300781,-0.17773 -0.444336,-0.49902 -0.143555,-0.32812 -0.143555,-1.00488 v -4.21094 h -0.991211 v -0.22559 q 0.375977,-0.15039 0.765625,-0.50586 0.396485,-0.3623 0.704102,-0.85449 0.157226,-0.25976 0.4375,-0.95019 z"
         style="font-size:14px;line-height:1.25"
         id="path207" /><path
         d="m 18.649652,-812.64874 v 2.05761 h 1.462891 v 0.47852 h -1.462891 v 4.06055 q 0,0.6084 0.170899,0.82031 0.177734,0.21191 0.451172,0.21191 0.225586,0 0.4375,-0.13672 0.211914,-0.14355 0.328125,-0.41699 h 0.266601 q -0.239257,0.66992 -0.676757,1.01172 -0.4375,0.33496 -0.902344,0.33496 -0.314453,0 -0.615235,-0.1709 -0.300781,-0.17773 -0.444336,-0.49902 -0.143554,-0.32812 -0.143554,-1.00488 v -4.21094 h -0.991211 v -0.22559 q 0.375976,-0.15039 0.765625,-0.50586 0.396484,-0.3623 0.704101,-0.85449 0.157227,-0.25976 0.4375,-0.95019 z"
         style="font-size:14px;line-height:1.25"
         id="path209" /><path
         d="m 21.76684,-808.23273 q -0.0068,1.39453 0.676758,2.1875 0.683594,0.79297 1.606445,0.79297 0.615234,0 1.066406,-0.33496 0.458008,-0.3418 0.765625,-1.16211 l 0.211914,0.13672 q -0.143554,0.93652 -0.833984,1.70898 -0.69043,0.76563 -1.729492,0.76563 -1.12793,0 -1.93457,-0.875 -0.799805,-0.88184 -0.799805,-2.36523 0,-1.60645 0.820312,-2.50196 0.827149,-0.90234 2.071289,-0.90234 1.052735,0 1.729493,0.69726 0.676757,0.69043 0.676757,1.85254 z m 0,-0.39648 h 2.898437 q -0.03418,-0.60156 -0.143554,-0.84766 -0.170899,-0.38281 -0.512696,-0.60156 -0.33496,-0.21875 -0.704101,-0.21875 -0.567383,0 -1.018555,0.44434 -0.444336,0.4375 -0.519531,1.22363 z"
         style="font-size:14px;line-height:1.25"
         id="path211" /><path
         d="m 28.753168,-810.7757 v 1.40821 q 0.786133,-1.40821 1.613281,-1.40821 0.375977,0 0.622071,0.23243 0.246093,0.22558 0.246093,0.52636 0,0.2666 -0.177734,0.45118 -0.177734,0.18457 -0.423828,0.18457 -0.239258,0 -0.540039,-0.23243 -0.293945,-0.23925 -0.4375,-0.23925 -0.123047,0 -0.266602,0.13671 -0.307617,0.28028 -0.635742,0.92286 v 3.00097 q 0,0.51953 0.129883,0.78614 0.08887,0.18457 0.314453,0.30761 0.225586,0.12305 0.649414,0.12305 v 0.24609 h -3.206055 v -0.24609 q 0.478516,0 0.710938,-0.15039 0.170898,-0.10938 0.239258,-0.34863 0.03418,-0.11621 0.03418,-0.66309 v -2.42676 q 0,-1.09375 -0.04785,-1.29883 -0.04102,-0.21191 -0.164063,-0.30761 -0.116211,-0.0957 -0.293945,-0.0957 -0.211914,0 -0.478516,0.10254 l -0.06836,-0.24609 1.893555,-0.76563 z"
         style="font-size:14px;line-height:1.25"
         id="path213" /><path
         d="m 33.422113,-809.44952 q 1.100586,-1.32618 2.098633,-1.32618 0.512696,0 0.881836,0.25977 0.369141,0.25293 0.587891,0.84082 0.15039,0.41016 0.15039,1.25781 v 2.67285 q 0,0.59473 0.0957,0.80664 0.0752,0.1709 0.239257,0.26661 0.170899,0.0957 0.622071,0.0957 v 0.24609 h -3.09668 v -0.24609 h 0.129883 q 0.4375,0 0.608398,-0.12988 0.177735,-0.13672 0.246094,-0.39649 0.02734,-0.10254 0.02734,-0.64258 v -2.56347 q 0,-0.85449 -0.225586,-1.23731 -0.21875,-0.38965 -0.745117,-0.38965 -0.813477,0 -1.620118,0.88868 v 3.30175 q 0,0.63575 0.0752,0.78614 0.0957,0.19824 0.259765,0.29394 0.170899,0.0889 0.683594,0.0889 v 0.24609 h -3.09668 v -0.24609 h 0.136719 q 0.478516,0 0.642578,-0.23926 0.170899,-0.24609 0.170899,-0.92969 v -2.32421 q 0,-1.12793 -0.05469,-1.37403 -0.04785,-0.24609 -0.157226,-0.33496 -0.102539,-0.0889 -0.280274,-0.0889 -0.191406,0 -0.458008,0.10254 l -0.102539,-0.24609 1.886719,-0.76563 h 0.293945 z"
         style="font-size:14px;line-height:1.25"
         id="path215" /><path
         d="m 41.912348,-810.36554 h 7.375976 v 0.56055 h -7.375976 z m 0,2.22852 h 7.375976 v 0.56054 h -7.375976 z"
         style="font-size:14px;line-height:1.25"
         id="path217" /><path
         d="m 54.702387,-812.68976 2.255859,-1.10058 h 0.225586 v 7.82714 q 0,0.7793 0.06152,0.97071 0.06836,0.1914 0.273437,0.29394 0.205078,0.10254 0.833984,0.11621 v 0.25293 h -3.486328 v -0.25293 q 0.65625,-0.0137 0.847657,-0.10937 0.191406,-0.10254 0.266601,-0.2666 0.0752,-0.1709 0.0752,-1.00489 v -5.0039 q 0,-1.01172 -0.06836,-1.29883 -0.04785,-0.21875 -0.177734,-0.32129 -0.123047,-0.10254 -0.300782,-0.10254 -0.252929,0 -0.704101,0.21192 z"
         style="font-size:14px;line-height:1.25"
         id="path219" /><path
         d="m 60.567621,-808.90948 q 0,-1.58594 0.478516,-2.72754 0.478515,-1.14844 1.271484,-1.70899 0.615235,-0.44433 1.271485,-0.44433 1.066406,0 1.914062,1.08691 1.05957,1.34668 1.05957,3.65039 0,1.61328 -0.464843,2.74121 -0.464844,1.12793 -1.189453,1.64063 -0.717774,0.50586 -1.387696,0.50586 -1.326172,0 -2.208008,-1.56543 -0.745117,-1.31934 -0.745117,-3.17871 z m 1.339844,0.17089 q 0,1.91407 0.47168,3.12403 0.389648,1.01855 1.162109,1.01855 0.369141,0 0.765625,-0.32812 0.396484,-0.33496 0.601563,-1.11426 0.314453,-1.17578 0.314453,-3.31543 0,-1.58594 -0.328125,-2.64551 -0.246094,-0.78613 -0.635743,-1.11426 -0.280273,-0.22558 -0.676757,-0.22558 -0.464844,0 -0.827149,0.41699 -0.492187,0.56738 -0.669922,1.78418 -0.177734,1.2168 -0.177734,2.39941 z"
         style="font-size:14px;line-height:1.25"
         id="path221" /><path
         d="m 67.567621,-808.90948 q 0,-1.58594 0.478516,-2.72754 0.478515,-1.14844 1.271484,-1.70899 0.615235,-0.44433 1.271485,-0.44433 1.066406,0 1.914062,1.08691 1.05957,1.34668 1.05957,3.65039 0,1.61328 -0.464843,2.74121 -0.464844,1.12793 -1.189453,1.64063 -0.717774,0.50586 -1.387696,0.50586 -1.326172,0 -2.208008,-1.56543 -0.745117,-1.31934 -0.745117,-3.17871 z m 1.339844,0.17089 q 0,1.91407 0.47168,3.12403 0.389648,1.01855 1.162109,1.01855 0.369141,0 0.765625,-0.32812 0.396484,-0.33496 0.601563,-1.11426 0.314453,-1.17578 0.314453,-3.31543 0,-1.58594 -0.328125,-2.64551 -0.246094,-0.78613 -0.635743,-1.11426 -0.280273,-0.22558 -0.676757,-0.22558 -0.464844,0 -0.827149,0.41699 -0.492187,0.56738 -0.669922,1.78418 -0.177734,1.2168 -0.177734,2.39941 z"
         style="font-size:14px;line-height:1.25"
         id="path223" /></g><g
       aria-label="417 ns"
       transform="scale(1,-1)"
       style="font-style:normal;font-variant:normal;font-weight:normal;font-stretch:normal;line-height:0%;font-family:'Times New Roman';-inkscape-font-specification:'Times New Roman, ';letter-spacing:0px;word-spacing:0px;fill:#000000;fill-opacity:1;stroke:none;stroke-width:1px;stroke-linecap:butt;stroke-linejoin:miter;stroke-opacity:1"
       id="text4211-35-20"><path
         d="m 200.04814,-772.72174 v 0.83203 h -1.0664 v 2.09766 h -0.9668 v -2.09766 h -3.36328 v -0.75 l 3.68554,-5.26172 h 0.64454 v 5.17969 z m -2.0332,0 v -3.94336 l -2.78906,3.94336 z"
         style="font-size:12px;line-height:1.25"
         id="path226" /><path
         d="m 201.87041,-776.95807 1.93359,-0.94336 h 0.19336 v 6.70899 q 0,0.66796 0.0527,0.83203 0.0586,0.16406 0.23438,0.25195 0.17578,0.0879 0.71484,0.0996 v 0.2168 h -2.98828 v -0.2168 q 0.5625,-0.0117 0.72656,-0.0937 0.16407,-0.0879 0.22852,-0.22852 0.0645,-0.14648 0.0645,-0.86132 v -4.28907 q 0,-0.86718 -0.0586,-1.11328 -0.041,-0.1875 -0.15234,-0.27539 -0.10547,-0.0879 -0.25782,-0.0879 -0.21679,0 -0.60351,0.18164 z"
         style="font-size:12px;line-height:1.25"
         id="path228" /><path
         d="m 207.67119,-777.73737 h 4.25976 v 0.22266 l -2.64843,7.88672 h -0.65625 l 2.37304,-7.1543 h -2.18554 q -0.66211,0 -0.94336,0.15821 -0.49219,0.26953 -0.79102,0.83203 l -0.16992,-0.0645 z"
         style="font-size:12px;line-height:1.25"
         id="path230" /><path
         d="m 217.40361,-774.18073 q 0.94336,-1.13671 1.79883,-1.13671 0.43945,0 0.75586,0.22265 0.3164,0.2168 0.5039,0.72071 0.12891,0.35156 0.12891,1.07812 v 2.29102 q 0,0.50976 0.082,0.6914 0.0645,0.14649 0.20508,0.22852 0.14648,0.082 0.5332,0.082 v 0.21094 h -2.65429 v -0.21094 h 0.11132 q 0.375,0 0.52149,-0.11133 0.15234,-0.11719 0.21094,-0.33984 0.0234,-0.0879 0.0234,-0.55078 v -2.19727 q 0,-0.73242 -0.19336,-1.06055 -0.1875,-0.33398 -0.63867,-0.33398 -0.69726,0 -1.38867,0.76172 v 2.83008 q 0,0.54492 0.0645,0.67382 0.082,0.16993 0.22266,0.25196 0.14648,0.0762 0.58594,0.0762 v 0.21094 h -2.6543 v -0.21094 h 0.11719 q 0.41015,0 0.55078,-0.20508 0.14648,-0.21094 0.14648,-0.79687 v -1.99219 q 0,-0.9668 -0.0469,-1.17774 -0.041,-0.21093 -0.13477,-0.28711 -0.0879,-0.0762 -0.24023,-0.0762 -0.16406,0 -0.39258,0.0879 l -0.0879,-0.21093 1.61719,-0.65625 h 0.25195 z"
         style="font-size:12px;line-height:1.25"
         id="path232" /><path
         d="m 225.30791,-775.31744 v 1.82812 h -0.19336 q -0.22266,-0.86133 -0.57422,-1.17187 -0.3457,-0.31055 -0.88477,-0.31055 -0.41015,0 -0.66211,0.2168 -0.25195,0.21679 -0.25195,0.48046 0,0.32813 0.1875,0.5625 0.18164,0.24024 0.73828,0.50977 l 0.85547,0.41602 q 1.18945,0.58007 1.18945,1.52929 0,0.73242 -0.55664,1.1836 -0.55078,0.44531 -1.23632,0.44531 -0.49219,0 -1.125,-0.17578 -0.19336,-0.0586 -0.31641,-0.0586 -0.13477,0 -0.21094,0.15235 h -0.19336 v -1.91602 h 0.19336 q 0.16406,0.82031 0.62695,1.23633 0.4629,0.41602 1.03711,0.41602 0.4043,0 0.65625,-0.23438 0.25782,-0.24023 0.25782,-0.57422 0,-0.40429 -0.28711,-0.67969 -0.28125,-0.27539 -1.13086,-0.69726 -0.84961,-0.42188 -1.11328,-0.76172 -0.26368,-0.33398 -0.26368,-0.84375 0,-0.66211 0.45118,-1.10742 0.45703,-0.44531 1.17773,-0.44531 0.31641,0 0.76758,0.13476 0.29883,0.0879 0.39844,0.0879 0.0937,0 0.14648,-0.041 0.0527,-0.041 0.12305,-0.18164 z"
         style="font-size:12px;line-height:1.25"
         id="path234" /></g><path
       style="fill:none;fill-rule:evenodd;stroke:#000000;stroke-width:0.80000001;stroke-linecap:butt;stroke-linejoin:miter;stroke-miterlimit:4;stroke-dasharray:0.8, 0.8;stroke-dashoffset:0;stroke-opacity:1;marker-start:url(#Arrow2Mstart-6);marker-end:url(#marker4857-6)"
       d="m 145.20867,784.82804 h 80.15342"
       id="path4683-7"
       inkscape:connector-curvature="0"
       sodipodi:nodetypes="cc" /><path
       style="opacity:0.97000002;fill:none;fill-rule:evenodd;stroke:#000000;stroke-width:0.80000001;stroke-linecap:butt;stroke-linejoin:miter;stroke-miterlimit:4;stroke-dasharray:0.8, 0.8;stroke-dashoffset:0;stroke-opacity:1"
       d="m 186.44369,781.22823 v -30"
       id="path5011-5"
       inkscape:connector-curvature="0" /><g
       aria-label="417 ns"
       transform="scale(1.0000045,-0.99999551)"
       style="font-style:normal;font-variant:normal;font-weight:normal;font-stretch:normal;line-height:0%;font-family:'Times New Roman';-inkscape-font-specification:'Times New Roman, ';letter-spacing:0px;word-spacing:0px;fill:#000000;fill-opacity:1;stroke:none;stroke-width:1px;stroke-linecap:butt;stroke-linejoin:miter;stroke-opacity:1"
       id="text4211-35-5-92"><path
         d="m 155.14255,-772.72559 v 0.83204 h -1.06641 v 2.09765 h -0.9668 v -2.09765 h -3.36328 v -0.75 l 3.68555,-5.26172 h 0.64453 v 5.17968 z m -2.03321,0 v -3.94336 l -2.78906,3.94336 z"
         style="font-size:12px;line-height:1.25"
         id="path237" /><path
         d="m 156.96481,-776.96191 1.9336,-0.94336 h 0.19336 v 6.70898 q 0,0.66797 0.0527,0.83203 0.0586,0.16406 0.23438,0.25196 0.17578,0.0879 0.71484,0.0996 v 0.2168 h -2.98828 v -0.2168 q 0.5625,-0.0117 0.72656,-0.0937 0.16406,-0.0879 0.22852,-0.22851 0.0644,-0.14649 0.0644,-0.86133 v -4.28906 q 0,-0.86719 -0.0586,-1.11328 -0.041,-0.1875 -0.15235,-0.27539 -0.10547,-0.0879 -0.25781,-0.0879 -0.2168,0 -0.60352,0.18164 z"
         style="font-size:12px;line-height:1.25"
         id="path239" /><path
         d="m 162.76559,-777.74121 h 4.25977 v 0.22266 l -2.64844,7.88671 h -0.65625 l 2.37305,-7.15429 h -2.18555 q -0.66211,0 -0.94336,0.1582 -0.49218,0.26953 -0.79101,0.83203 l -0.16992,-0.0645 z"
         style="font-size:12px;line-height:1.25"
         id="path241" /><path
         d="m 172.49802,-774.18457 q 0.94336,-1.13672 1.79882,-1.13672 0.43946,0 0.75586,0.22266 0.31641,0.21679 0.50391,0.7207 0.12891,0.35156 0.12891,1.07813 v 2.29101 q 0,0.50977 0.082,0.69141 0.0644,0.14648 0.20508,0.22851 0.14648,0.082 0.5332,0.082 v 0.21094 h -2.6543 v -0.21094 h 0.11133 q 0.375,0 0.52148,-0.11132 0.15235,-0.11719 0.21094,-0.33985 0.0234,-0.0879 0.0234,-0.55078 v -2.19726 q 0,-0.73243 -0.19336,-1.06055 -0.1875,-0.33399 -0.63867,-0.33399 -0.69727,0 -1.38867,0.76172 v 2.83008 q 0,0.54492 0.0644,0.67383 0.082,0.16992 0.22266,0.25195 0.14648,0.0762 0.58593,0.0762 v 0.21094 h -2.65429 v -0.21094 h 0.11718 q 0.41016,0 0.55079,-0.20507 0.14648,-0.21094 0.14648,-0.79688 v -1.99219 q 0,-0.96679 -0.0469,-1.17773 -0.041,-0.21094 -0.13476,-0.28711 -0.0879,-0.0762 -0.24024,-0.0762 -0.16406,0 -0.39257,0.0879 l -0.0879,-0.21094 1.61718,-0.65625 h 0.25196 z"
         style="font-size:12px;line-height:1.25"
         id="path243" /><path
         d="m 180.40231,-775.32129 v 1.82813 h -0.19336 q -0.22265,-0.86133 -0.57421,-1.17188 -0.34571,-0.31055 -0.88477,-0.31055 -0.41016,0 -0.66211,0.2168 -0.25195,0.2168 -0.25195,0.48047 0,0.32812 0.1875,0.5625 0.18164,0.24023 0.73828,0.50977 l 0.85547,0.41601 q 1.18945,0.58008 1.18945,1.5293 0,0.73242 -0.55664,1.18359 -0.55078,0.44531 -1.23633,0.44531 -0.49219,0 -1.125,-0.17578 -0.19336,-0.0586 -0.3164,-0.0586 -0.13477,0 -0.21094,0.15234 h -0.19336 v -1.91601 h 0.19336 q 0.16406,0.82031 0.62695,1.23633 0.46289,0.41601 1.03711,0.41601 0.4043,0 0.65625,-0.23437 0.25781,-0.24024 0.25781,-0.57422 0,-0.4043 -0.28711,-0.67969 -0.28125,-0.27539 -1.13086,-0.69727 -0.84961,-0.42187 -1.11328,-0.76171 -0.26367,-0.33399 -0.26367,-0.84375 0,-0.66211 0.45117,-1.10743 0.45703,-0.44531 1.17774,-0.44531 0.3164,0 0.76758,0.13477 0.29882,0.0879 0.39843,0.0879 0.0937,0 0.14649,-0.041 0.0527,-0.041 0.12304,-0.18164 z"
         style="font-size:12px;line-height:1.25"
         id="path245" /></g><g
       aria-label="417 ns"
       transform="scale(1,-1)"
       style="font-style:normal;font-variant:normal;font-weight:normal;font-stretch:normal;line-height:0%;font-family:'Times New Roman';-inkscape-font-specification:'Times New Roman, ';letter-spacing:0px;word-spacing:0px;fill:#000000;fill-opacity:1;stroke:none;stroke-width:1px;stroke-linecap:butt;stroke-linejoin:miter;stroke-opacity:1"
       id="text4211-35-2-8"><path
         d="m 107.9557,-772.72174 v 0.83203 h -1.0664 v 2.09766 h -0.9668 v -2.09766 h -3.36328 v -0.75 l 3.68555,-5.26172 h 0.64453 v 5.17969 z m -2.0332,0 v -3.94336 l -2.78906,3.94336 z"
         style="font-size:12px;line-height:1.25"
         id="path248" /><path
         d="m 109.77797,-776.95807 1.93359,-0.94336 h 0.19336 v 6.70899 q 0,0.66796 0.0527,0.83203 0.0586,0.16406 0.23437,0.25195 0.17578,0.0879 0.71485,0.0996 v 0.2168 h -2.98829 v -0.2168 q 0.5625,-0.0117 0.72657,-0.0937 0.16406,-0.0879 0.22851,-0.22852 0.0645,-0.14648 0.0645,-0.86132 v -4.28907 q 0,-0.86718 -0.0586,-1.11328 -0.041,-0.1875 -0.15234,-0.27539 -0.10547,-0.0879 -0.25781,-0.0879 -0.2168,0 -0.60352,0.18164 z"
         style="font-size:12px;line-height:1.25"
         id="path250" /><path
         d="m 115.57875,-777.73737 h 4.25977 v 0.22266 l -2.64844,7.88672 h -0.65625 l 2.37305,-7.1543 h -2.18555 q -0.66211,0 -0.94336,0.15821 -0.49219,0.26953 -0.79102,0.83203 l -0.16992,-0.0645 z"
         style="font-size:12px;line-height:1.25"
         id="path252" /><path
         d="m 125.31117,-774.18073 q 0.94336,-1.13671 1.79883,-1.13671 0.43945,0 0.75586,0.22265 0.31641,0.2168 0.50391,0.72071 0.1289,0.35156 0.1289,1.07812 v 2.29102 q 0,0.50976 0.082,0.6914 0.0645,0.14649 0.20508,0.22852 0.14649,0.082 0.5332,0.082 v 0.21094 h -2.65429 v -0.21094 h 0.11133 q 0.375,0 0.52148,-0.11133 0.15234,-0.11719 0.21094,-0.33984 0.0234,-0.0879 0.0234,-0.55078 v -2.19727 q 0,-0.73242 -0.19336,-1.06055 -0.1875,-0.33398 -0.63868,-0.33398 -0.69726,0 -1.38867,0.76172 v 2.83008 q 0,0.54492 0.0645,0.67382 0.082,0.16993 0.22265,0.25196 0.14649,0.0762 0.58594,0.0762 v 0.21094 h -2.6543 v -0.21094 h 0.11719 q 0.41016,0 0.55078,-0.20508 0.14649,-0.21094 0.14649,-0.79687 v -1.99219 q 0,-0.9668 -0.0469,-1.17774 -0.041,-0.21093 -0.13477,-0.28711 -0.0879,-0.0762 -0.24023,-0.0762 -0.16406,0 -0.39258,0.0879 l -0.0879,-0.21093 1.61719,-0.65625 h 0.25195 z"
         style="font-size:12px;line-height:1.25"
         id="path254" /><path
         d="m 133.21547,-775.31744 v 1.82812 h -0.19336 q -0.22266,-0.86133 -0.57422,-1.17187 -0.3457,-0.31055 -0.88476,-0.31055 -0.41016,0 -0.66211,0.2168 -0.25196,0.21679 -0.25196,0.48046 0,0.32813 0.1875,0.5625 0.18164,0.24024 0.73828,0.50977 l 0.85547,0.41602 q 1.18946,0.58007 1.18946,1.52929 0,0.73242 -0.55664,1.1836 -0.55079,0.44531 -1.23633,0.44531 -0.49219,0 -1.125,-0.17578 -0.19336,-0.0586 -0.31641,-0.0586 -0.13476,0 -0.21094,0.15235 h -0.19336 v -1.91602 h 0.19336 q 0.16407,0.82031 0.62696,1.23633 0.46289,0.41602 1.03711,0.41602 0.40429,0 0.65625,-0.23438 0.25781,-0.24023 0.25781,-0.57422 0,-0.40429 -0.28711,-0.67969 -0.28125,-0.27539 -1.13086,-0.69726 -0.84961,-0.42188 -1.11328,-0.76172 -0.26367,-0.33398 -0.26367,-0.84375 0,-0.66211 0.45117,-1.10742 0.45703,-0.44531 1.17773,-0.44531 0.31641,0 0.76758,0.13476 0.29883,0.0879 0.39844,0.0879 0.0937,0 0.14648,-0.041 0.0527,-0.041 0.12305,-0.18164 z"
         style="font-size:12px;line-height:1.25"
         id="path256" /></g><g
       aria-label="834 ns"
       transform="scale(1,-1)"
       style="font-style:normal;font-variant:normal;font-weight:normal;font-stretch:normal;line-height:0%;font-family:'Times New Roman';-inkscape-font-specification:'Times New Roman, ';letter-spacing:0px;word-spacing:0px;fill:#000000;fill-opacity:1;stroke:none;stroke-width:1px;stroke-linecap:butt;stroke-linejoin:miter;stroke-opacity:1"
       id="text4211-35-1-7"><path
         d="m 172.43756,-794.69086 q -0.94336,-0.77343 -1.21875,-1.24218 -0.26953,-0.46875 -0.26953,-0.97266 0,-0.77344 0.59766,-1.33008 0.59765,-0.5625 1.58789,-0.5625 0.96093,0 1.54687,0.52149 0.58594,0.52148 0.58594,1.18945 0,0.44531 -0.31641,0.9082 -0.3164,0.46289 -1.31836,1.08985 1.03125,0.79687 1.36524,1.2539 0.44531,0.59766 0.44531,1.25977 0,0.83789 -0.63867,1.43554 -0.63867,0.5918 -1.67578,0.5918 -1.13086,0 -1.76367,-0.70898 -0.50391,-0.56836 -0.50391,-1.24219 0,-0.52734 0.35156,-1.04297 0.35742,-0.52148 1.22461,-1.14844 z m 0.91992,-0.62695 q 0.70313,-0.63281 0.89063,-0.99609 0.1875,-0.36914 0.1875,-0.83204 0,-0.61523 -0.34571,-0.96093 -0.3457,-0.35157 -0.94335,-0.35157 -0.59766,0 -0.97266,0.34571 -0.375,0.3457 -0.375,0.80859 0,0.30469 0.15234,0.60938 0.15821,0.30468 0.44532,0.58007 z m -0.64453,0.84961 q -0.48633,0.41016 -0.7207,0.89648 -0.23438,0.48047 -0.23438,1.04297 0,0.75586 0.41016,1.21289 0.41602,0.45117 1.05469,0.45117 0.63281,0 1.01367,-0.35742 0.38086,-0.35742 0.38086,-0.86718 0,-0.42188 -0.22266,-0.75586 -0.41601,-0.6211 -1.68164,-1.62305 z"
         style="font-size:12px;line-height:1.25"
         id="path259" /><path
         d="m 176.7442,-797.1225 q 0.33985,-0.80273 0.85547,-1.23633 0.52148,-0.43945 1.29492,-0.43945 0.95508,0 1.46485,0.62109 0.38671,0.4629 0.38671,0.99024 0,0.86719 -1.08984,1.79297 0.73242,0.28711 1.10742,0.82031 0.375,0.5332 0.375,1.25391 0,1.03125 -0.65625,1.78711 -0.85547,0.98437 -2.47851,0.98437 -0.80274,0 -1.09571,-0.19922 -0.28711,-0.19922 -0.28711,-0.42773 0,-0.16992 0.13477,-0.29883 0.14063,-0.12891 0.33398,-0.12891 0.14649,0 0.29883,0.0469 0.0996,0.0293 0.45117,0.2168 0.35157,0.18164 0.48633,0.21679 0.2168,0.0645 0.46289,0.0645 0.59766,0 1.03711,-0.4629 0.44532,-0.46289 0.44532,-1.0957 0,-0.46289 -0.20508,-0.90234 -0.15235,-0.32813 -0.33399,-0.49805 -0.25195,-0.23437 -0.6914,-0.42187 -0.43946,-0.19336 -0.89649,-0.19336 h -0.1875 v -0.17578 q 0.46289,-0.0586 0.92578,-0.33399 0.46875,-0.27539 0.67969,-0.66211 0.21094,-0.38672 0.21094,-0.84961 0,-0.60351 -0.38086,-0.97265 -0.375,-0.375 -0.9375,-0.375 -0.9082,0 -1.51758,0.97265 z"
         style="font-size:12px;line-height:1.25"
         id="path261" /><path
         d="m 187.71881,-793.61859 v 0.83203 h -1.06641 v 2.09766 h -0.96679 v -2.09766 h -3.36328 v -0.75 l 3.68554,-5.26172 h 0.64453 v 5.17969 z m -2.0332,0 v -3.94336 l -2.78906,3.94336 z"
         style="font-size:12px;line-height:1.25"
         id="path263" /><path
         d="m 193.07428,-795.07758 q 0.94336,-1.13671 1.79883,-1.13671 0.43945,0 0.75586,0.22265 0.3164,0.2168 0.5039,0.7207 0.12891,0.35157 0.12891,1.07813 v 2.29102 q 0,0.50976 0.082,0.6914 0.0645,0.14649 0.20508,0.22852 0.14648,0.082 0.5332,0.082 v 0.21094 h -2.65429 v -0.21094 h 0.11132 q 0.375,0 0.52149,-0.11133 0.15234,-0.11719 0.21094,-0.33984 0.0234,-0.0879 0.0234,-0.55078 v -2.19727 q 0,-0.73242 -0.19336,-1.06055 -0.1875,-0.33398 -0.63867,-0.33398 -0.69726,0 -1.38867,0.76172 v 2.83008 q 0,0.54492 0.0645,0.67382 0.082,0.16993 0.22266,0.25196 0.14648,0.0762 0.58594,0.0762 v 0.21094 h -2.6543 v -0.21094 h 0.11719 q 0.41015,0 0.55078,-0.20508 0.14648,-0.21094 0.14648,-0.79687 v -1.99219 q 0,-0.9668 -0.0469,-1.17774 -0.041,-0.21093 -0.13477,-0.28711 -0.0879,-0.0762 -0.24023,-0.0762 -0.16406,0 -0.39258,0.0879 l -0.0879,-0.21093 1.61719,-0.65625 h 0.25195 z"
         style="font-size:12px;line-height:1.25"
         id="path265" /><path
         d="m 200.97858,-796.21429 v 1.82812 h -0.19336 q -0.22266,-0.86133 -0.57422,-1.17187 -0.3457,-0.31055 -0.88477,-0.31055 -0.41015,0 -0.66211,0.2168 -0.25195,0.21679 -0.25195,0.48046 0,0.32813 0.1875,0.5625 0.18164,0.24024 0.73828,0.50977 l 0.85547,0.41602 q 1.18945,0.58007 1.18945,1.52929 0,0.73242 -0.55664,1.1836 -0.55078,0.44531 -1.23633,0.44531 -0.49218,0 -1.125,-0.17578 -0.19335,-0.0586 -0.3164,-0.0586 -0.13477,0 -0.21094,0.15235 h -0.19336 v -1.91602 h 0.19336 q 0.16406,0.82031 0.62695,1.23633 0.46289,0.41602 1.03711,0.41602 0.4043,0 0.65625,-0.23438 0.25782,-0.24023 0.25782,-0.57422 0,-0.4043 -0.28711,-0.67969 -0.28125,-0.27539 -1.13086,-0.69726 -0.84961,-0.42188 -1.11328,-0.76172 -0.26368,-0.33398 -0.26368,-0.84375 0,-0.66211 0.45118,-1.10742 0.45703,-0.44531 1.17773,-0.44531 0.31641,0 0.76758,0.13476 0.29883,0.0879 0.39844,0.0879 0.0937,0 0.14648,-0.041 0.0527,-0.041 0.12305,-0.18164 z"
         style="font-size:12px;line-height:1.25"
         id="path267" /></g><g
       aria-label="0 bit"
       transform="scale(1.0000059,-0.9999941)"
       style="font-style:normal;font-variant:normal;font-weight:normal;font-stretch:normal;line-height:0%;font-family:'Times New Roman';-inkscape-font-specification:'Times New Roman, ';letter-spacing:0px;word-spacing:0px;fill:#000000;fill-opacity:1;stroke:none;stroke-width:1px;stroke-linecap:butt;stroke-linejoin:miter;stroke-opacity:1"
       id="text4211-35-7-6"><path
         d="m 198.05251,-762.08777 q 0,-1.35937 0.41015,-2.33789 0.41016,-0.98437 1.08985,-1.46484 0.52734,-0.38086 1.08984,-0.38086 0.91406,0 1.64062,0.93164 0.90821,1.1543 0.90821,3.1289 0,1.38282 -0.39844,2.34961 -0.39844,0.9668 -1.01953,1.40625 -0.61524,0.4336 -1.18945,0.4336 -1.13672,0 -1.89258,-1.3418 -0.63867,-1.13086 -0.63867,-2.72461 z m 1.14843,0.14649 q 0,1.64062 0.4043,2.67773 0.33398,0.87305 0.99609,0.87305 0.31641,0 0.65625,-0.28125 0.33985,-0.28711 0.51563,-0.95508 0.26953,-1.00781 0.26953,-2.8418 0,-1.35937 -0.28125,-2.26758 -0.21094,-0.67382 -0.54492,-0.95507 -0.24024,-0.19336 -0.58008,-0.19336 -0.39844,0 -0.70898,0.35742 -0.42188,0.48633 -0.57422,1.5293 -0.15235,1.04296 -0.15235,2.05664 z"
         style="font-size:12px;line-height:1.25"
         id="path270" /><path
         d="m 208.46461,-762.60339 q 0.7793,-1.08399 1.68165,-1.08399 0.82617,0 1.4414,0.70899 0.61524,0.70312 0.61524,1.92773 0,1.42969 -0.94922,2.30274 -0.81446,0.75 -1.81641,0.75 -0.46875,0 -0.95508,-0.16993 -0.48047,-0.16992 -0.98437,-0.50976 v -5.56055 q 0,-0.91406 -0.0469,-1.125 -0.041,-0.21094 -0.13476,-0.28711 -0.0937,-0.0762 -0.23438,-0.0762 -0.16406,0 -0.41015,0.0937 l -0.082,-0.20508 1.61133,-0.65625 h 0.26367 z m 0,0.375 v 3.21093 q 0.29883,0.29297 0.61524,0.44532 0.32226,0.14648 0.65625,0.14648 0.5332,0 0.99023,-0.58594 0.46289,-0.58593 0.46289,-1.70507 0,-1.03125 -0.46289,-1.58204 -0.45703,-0.55664 -1.04297,-0.55664 -0.31054,0 -0.62109,0.15821 -0.23437,0.11718 -0.59766,0.46875 z"
         style="font-size:12px;line-height:1.25"
         id="path272" /><path
         d="m 214.35915,-766.49402 q 0.24609,0 0.41601,0.17578 0.17578,0.16992 0.17578,0.41602 0,0.24609 -0.17578,0.42187 -0.16992,0.17578 -0.41601,0.17578 -0.2461,0 -0.42188,-0.17578 -0.17578,-0.17578 -0.17578,-0.42187 0,-0.2461 0.16992,-0.41602 0.17578,-0.17578 0.42774,-0.17578 z m 0.48632,2.80664 v 4.3125 q 0,0.50391 0.0703,0.67383 0.0762,0.16406 0.21679,0.24609 0.14649,0.082 0.52735,0.082 v 0.21093 h -2.60742 v -0.21093 q 0.39257,0 0.52734,-0.0762 0.13476,-0.0762 0.21094,-0.25195 0.082,-0.17578 0.082,-0.67383 v -2.06836 q 0,-0.87304 -0.0527,-1.13086 -0.041,-0.1875 -0.1289,-0.25781 -0.0879,-0.0762 -0.24024,-0.0762 -0.16406,0 -0.39843,0.0879 l -0.082,-0.21094 1.61719,-0.65625 z"
         style="font-size:12px;line-height:1.25"
         id="path274" /><path
         d="m 217.88063,-765.29285 v 1.76368 h 1.25391 v 0.41015 h -1.25391 v 3.48047 q 0,0.52148 0.14648,0.70313 0.15235,0.18164 0.38672,0.18164 0.19336,0 0.375,-0.11719 0.18164,-0.12305 0.28125,-0.35742 h 0.22852 q -0.20508,0.57422 -0.58008,0.86718 -0.375,0.28711 -0.77344,0.28711 -0.26953,0 -0.52734,-0.14648 -0.25781,-0.15234 -0.38086,-0.42774 -0.12305,-0.28125 -0.12305,-0.86132 v -3.60938 h -0.84961 v -0.19336 q 0.32227,-0.1289 0.65625,-0.43359 0.33985,-0.31055 0.60352,-0.73242 0.13477,-0.22266 0.375,-0.81446 z"
         style="font-size:12px;line-height:1.25"
         id="path276" /></g><g
       aria-label="0 bit"
       transform="scale(1.0000104,-0.9999896)"
       style="font-style:normal;font-variant:normal;font-weight:normal;font-stretch:normal;line-height:0%;font-family:'Times New Roman';-inkscape-font-specification:'Times New Roman, ';letter-spacing:0px;word-spacing:0px;fill:#000000;fill-opacity:1;stroke:none;stroke-width:1px;stroke-linecap:butt;stroke-linejoin:miter;stroke-opacity:1"
       id="text4211-35-5-9-2"><path
         d="m 151.54738,-762.09149 q 0,-1.35938 0.41015,-2.33789 0.41016,-0.98438 1.08985,-1.46485 0.52734,-0.38086 1.08984,-0.38086 0.91406,0 1.64063,0.93165 0.9082,1.15429 0.9082,3.1289 0,1.38281 -0.39844,2.34961 -0.39843,0.9668 -1.01953,1.40625 -0.61523,0.43359 -1.18945,0.43359 -1.13672,0 -1.89258,-1.34179 -0.63867,-1.13086 -0.63867,-2.72461 z m 1.14844,0.14648 q 0,1.64063 0.40429,2.67774 0.33399,0.87304 0.9961,0.87304 0.3164,0 0.65625,-0.28125 0.33984,-0.28711 0.51562,-0.95507 0.26953,-1.00782 0.26953,-2.8418 0,-1.35938 -0.28125,-2.26758 -0.21093,-0.67383 -0.54492,-0.95508 -0.24023,-0.19336 -0.58008,-0.19336 -0.39843,0 -0.70898,0.35743 -0.42188,0.48632 -0.57422,1.52929 -0.15234,1.04297 -0.15234,2.05664 z"
         style="font-size:12px;line-height:1.25"
         id="path279" /><path
         d="m 161.95949,-762.60712 q 0.77929,-1.08398 1.68164,-1.08398 0.82617,0 1.4414,0.70898 0.61524,0.70313 0.61524,1.92774 0,1.42969 -0.94922,2.30273 -0.81445,0.75 -1.81641,0.75 -0.46875,0 -0.95507,-0.16992 -0.48047,-0.16992 -0.98438,-0.50977 v -5.56054 q 0,-0.91406 -0.0469,-1.125 -0.041,-0.21094 -0.13477,-0.28711 -0.0937,-0.0762 -0.23437,-0.0762 -0.16407,0 -0.41016,0.0937 l -0.082,-0.20508 1.61133,-0.65625 h 0.26367 z m 0,0.375 v 3.21094 q 0.29883,0.29297 0.61523,0.44531 0.32227,0.14649 0.65625,0.14649 0.53321,0 0.99024,-0.58594 0.46289,-0.58594 0.46289,-1.70508 0,-1.03125 -0.46289,-1.58203 -0.45703,-0.55664 -1.04297,-0.55664 -0.31055,0 -0.6211,0.1582 -0.23437,0.11719 -0.59765,0.46875 z"
         style="font-size:12px;line-height:1.25"
         id="path281" /><path
         d="m 167.85402,-766.49774 q 0.24609,0 0.41601,0.17578 0.17579,0.16992 0.17579,0.41602 0,0.24609 -0.17579,0.42187 -0.16992,0.17578 -0.41601,0.17578 -0.24609,0 -0.42188,-0.17578 -0.17578,-0.17578 -0.17578,-0.42187 0,-0.2461 0.16992,-0.41602 0.17579,-0.17578 0.42774,-0.17578 z m 0.48633,2.80664 v 4.3125 q 0,0.50391 0.0703,0.67383 0.0762,0.16406 0.2168,0.24609 0.14648,0.082 0.52734,0.082 v 0.21094 h -2.60742 v -0.21094 q 0.39258,0 0.52734,-0.0762 0.13477,-0.0762 0.21094,-0.25195 0.082,-0.17578 0.082,-0.67383 v -2.06836 q 0,-0.87305 -0.0527,-1.13086 -0.041,-0.1875 -0.12891,-0.25781 -0.0879,-0.0762 -0.24023,-0.0762 -0.16407,0 -0.39844,0.0879 l -0.082,-0.21094 1.61718,-0.65625 z"
         style="font-size:12px;line-height:1.25"
         id="path283" /><path
         d="m 171.3755,-765.29657 v 1.76367 h 1.25391 v 0.41016 h -1.25391 v 3.48047 q 0,0.52148 0.14649,0.70312 0.15234,0.18164 0.38672,0.18164 0.19336,0 0.375,-0.11718 0.18164,-0.12305 0.28125,-0.35743 h 0.22851 q -0.20508,0.57422 -0.58008,0.86719 -0.375,0.28711 -0.77343,0.28711 -0.26953,0 -0.52735,-0.14648 -0.25781,-0.15235 -0.38086,-0.42774 -0.12304,-0.28125 -0.12304,-0.86133 v -3.60937 h -0.84961 v -0.19336 q 0.32226,-0.12891 0.65625,-0.43359 0.33984,-0.31055 0.60351,-0.73243 0.13477,-0.22265 0.375,-0.81445 z"
         style="font-size:12px;line-height:1.25"
         id="path285" /></g><g
       aria-label="1 bit"
       transform="scale(1.0000059,-0.9999941)"
       style="font-style:normal;font-variant:normal;font-weight:normal;font-stretch:normal;line-height:0%;font-family:'Times New Roman';-inkscape-font-specification:'Times New Roman, ';letter-spacing:0px;word-spacing:0px;fill:#000000;fill-opacity:1;stroke:none;stroke-width:1px;stroke-linecap:butt;stroke-linejoin:miter;stroke-opacity:1"
       id="text4211-35-2-6-3"><path
         d="m 105.33341,-765.328 1.9336,-0.94336 h 0.19336 v 6.70898 q 0,0.66797 0.0527,0.83203 0.0586,0.16407 0.23437,0.25196 0.17579,0.0879 0.71485,0.0996 v 0.21679 h -2.98828 v -0.21679 q 0.5625,-0.0117 0.72656,-0.0937 0.16406,-0.0879 0.22852,-0.22852 0.0645,-0.14648 0.0645,-0.86133 v -4.28906 q 0,-0.86719 -0.0586,-1.11328 -0.041,-0.1875 -0.15234,-0.27539 -0.10547,-0.0879 -0.25781,-0.0879 -0.2168,0 -0.60352,0.18164 z"
         style="font-size:12px;line-height:1.25"
         id="path288" /><path
         d="m 114.77287,-762.60339 q 0.77929,-1.08399 1.68164,-1.08399 0.82617,0 1.4414,0.70899 0.61524,0.70312 0.61524,1.92773 0,1.42969 -0.94922,2.30274 -0.81446,0.75 -1.81641,0.75 -0.46875,0 -0.95508,-0.16993 -0.48047,-0.16992 -0.98437,-0.50976 v -5.56055 q 0,-0.91406 -0.0469,-1.125 -0.041,-0.21094 -0.13476,-0.28711 -0.0937,-0.0762 -0.23438,-0.0762 -0.16406,0 -0.41015,0.0937 l -0.082,-0.20508 1.61132,-0.65625 h 0.26368 z m 0,0.375 v 3.21093 q 0.29882,0.29297 0.61523,0.44532 0.32227,0.14648 0.65625,0.14648 0.5332,0 0.99023,-0.58594 0.46289,-0.58593 0.46289,-1.70507 0,-1.03125 -0.46289,-1.58204 -0.45703,-0.55664 -1.04296,-0.55664 -0.31055,0 -0.6211,0.15821 -0.23437,0.11718 -0.59765,0.46875 z"
         style="font-size:12px;line-height:1.25"
         id="path290" /><path
         d="m 120.6674,-766.49402 q 0.24609,0 0.41601,0.17578 0.17578,0.16992 0.17578,0.41602 0,0.24609 -0.17578,0.42187 -0.16992,0.17578 -0.41601,0.17578 -0.2461,0 -0.42188,-0.17578 -0.17578,-0.17578 -0.17578,-0.42187 0,-0.2461 0.16992,-0.41602 0.17578,-0.17578 0.42774,-0.17578 z m 0.48632,2.80664 v 4.3125 q 0,0.50391 0.0703,0.67383 0.0762,0.16406 0.21679,0.24609 0.14649,0.082 0.52735,0.082 v 0.21093 h -2.60742 v -0.21093 q 0.39257,0 0.52734,-0.0762 0.13477,-0.0762 0.21094,-0.25195 0.082,-0.17578 0.082,-0.67383 v -2.06836 q 0,-0.87304 -0.0527,-1.13086 -0.041,-0.1875 -0.1289,-0.25781 -0.0879,-0.0762 -0.24024,-0.0762 -0.16406,0 -0.39843,0.0879 l -0.082,-0.21094 1.61719,-0.65625 z"
         style="font-size:12px;line-height:1.25"
         id="path292" /><path
         d="m 124.18888,-765.29285 v 1.76368 h 1.25391 v 0.41015 h -1.25391 v 3.48047 q 0,0.52148 0.14649,0.70313 0.15234,0.18164 0.38671,0.18164 0.19336,0 0.375,-0.11719 0.18164,-0.12305 0.28125,-0.35742 h 0.22852 q -0.20508,0.57422 -0.58008,0.86718 -0.375,0.28711 -0.77344,0.28711 -0.26953,0 -0.52734,-0.14648 -0.25781,-0.15234 -0.38086,-0.42774 -0.12305,-0.28125 -0.12305,-0.86132 v -3.60938 h -0.84961 v -0.19336 q 0.32227,-0.1289 0.65625,-0.43359 0.33985,-0.31055 0.60352,-0.73242 0.13477,-0.22266 0.375,-0.81446 z"
         style="font-size:12px;line-height:1.25"
         id="path294" /></g><g
       aria-label=" "
       transform="scale(1,-1)"
       style="font-style:normal;font-weight:normal;line-height:0%;font-family:sans-serif;letter-spacing:0px;word-spacing:0px;fill:#000000;fill-opacity:1;stroke:none;stroke-width:1px;stroke-linecap:butt;stroke-linejoin:miter;stroke-opacity:1"
       id="text5949" /></g></svg>