<?xml version="1.0" encoding="UTF-8" standalone="no"?>
<svg
   xmlns:dc="http://purl.org/dc/elements/1.1/"
   xmlns:cc="http://creativecommons.org/ns#"
   xmlns:rdf="http://www.w3.org/1999/02/22-rdf-syntax-ns#"
   xmlns:svg="http://www.w3.org/2000/svg"
   xmlns="http://www.w3.org/2000/svg"
   viewBox="0 0 205.84219 143.79296"
   height="143.79297"
   width="205.84219"
   xml:space="preserve"
   version="1.1"
   id="svg3355"><metadata
     id="metadata3361"><rdf:RDF><cc:Work
         rdf:about=""><dc:format>image/svg+xml</dc:format><dc:type
           rdf:resource="http://purl.org/dc/dcmitype/StillImage" /><dc:title></dc:title></cc:Work></rdf:RDF></metadata><defs
     id="defs3359"><marker
       style="overflow:visible"
       id="Arrow2Mstart"
       refX="0"
       refY="0"
       orient="auto"><path
         transform="scale(0.6,0.6)"
         d="M 8.7185878,4.0337352 -2.2072895,0.01601326 8.7185884,-4.0017078 c -1.7454984,2.3720609 -1.7354408,5.6174519 -6e-7,8.035443 z"
         style="fill:#000000;fill-opacity:1;fill-rule:evenodd;stroke:#000000;stroke-width:0.625;stroke-linejoin:round;stroke-opacity:1"
         id="path4443" /></marker><marker
       style="overflow:visible"
       id="marker5395"
       refX="0"
       refY="0"
       orient="auto"><path
         transform="matrix(0.4,0,0,0.4,4,0)"
         style="fill:#000000;fill-opacity:1;fill-rule:evenodd;stroke:#000000;stroke-width:1pt;stroke-opacity:1"
         d="M 0,0 5,-5 -12.5,0 5,5 0,0 Z"
         id="path5397" /></marker><marker
       style="overflow:visible"
       id="Arrow1Mstart"
       refX="0"
       refY="0"
       orient="auto"><path
         transform="matrix(0.4,0,0,0.4,4,0)"
         style="fill:#000000;fill-opacity:1;fill-rule:evenodd;stroke:#000000;stroke-width:1pt;stroke-opacity:1"
         d="M 0,0 5,-5 -12.5,0 5,5 0,0 Z"
         id="path4425" /></marker><marker
       style="overflow:visible"
       id="marker4915"
       refX="0"
       refY="0"
       orient="auto"><path
         transform="matrix(-0.4,0,0,-0.4,-4,0)"
         style="fill:#000000;fill-opacity:1;fill-rule:evenodd;stroke:#000000;stroke-width:1pt;stroke-opacity:1"
         d="M 0,0 5,-5 -12.5,0 5,5 0,0 Z"
         id="path4917" /></marker><marker
       style="overflow:visible"
       id="marker4857"
       refX="0"
       refY="0"
       orient="auto"><path
         transform="scale(-0.6,-0.6)"
         d="M 8.7185878,4.0337352 -2.2072895,0.01601326 8.7185884,-4.0017078 c -1.7454984,2.3720609 -1.7354408,5.6174519 -6e-7,8.035443 z"
         style="fill:#000000;fill-opacity:1;fill-rule:evenodd;stroke:#000000;stroke-width:0.625;stroke-linejoin:round;stroke-opacity:1"
         id="path4859" /></marker><marker
       style="overflow:visible"
       id="Arrow2Mend"
       refX="0"
       refY="0"
       orient="auto"><path
         transform="scale(-0.6,-0.6)"
         d="M 8.7185878,4.0337352 -2.2072895,0.01601326 8.7185884,-4.0017078 c -1.7454984,2.3720609 -1.7354408,5.6174519 -6e-7,8.035443 z"
         style="fill:#000000;fill-opacity:1;fill-rule:evenodd;stroke:#000000;stroke-width:0.625;stroke-linejoin:round;stroke-opacity:1"
         id="path4446" /></marker><marker
       style="overflow:visible"
       id="Arrow1Mend"
       refX="0"
       refY="0"
       orient="auto"><path
         transform="matrix(-0.4,0,0,-0.4,-4,0)"
         style="fill:#000000;fill-opacity:1;fill-rule:evenodd;stroke:#000000;stroke-width:1pt;stroke-opacity:1"
         d="M 0,0 5,-5 -12.5,0 5,5 0,0 Z"
         id="path4428" /></marker><marker
       style="overflow:visible"
       id="Arrow1Send"
       refX="0"
       refY="0"
       orient="auto"><path
         transform="matrix(-0.2,0,0,-0.2,-1.2,0)"
         style="fill:#000000;fill-opacity:1;fill-rule:evenodd;stroke:#000000;stroke-width:1pt;stroke-opacity:1"
         d="M 0,0 5,-5 -12.5,0 5,5 0,0 Z"
         id="path4434" /></marker><marker
       style="overflow:visible"
       id="Arrow1Sstart"
       refX="0"
       refY="0"
       orient="auto"><path
         transform="matrix(0.2,0,0,0.2,1.2,0)"
         style="fill:#000000;fill-opacity:1;fill-rule:evenodd;stroke:#000000;stroke-width:1pt;stroke-opacity:1"
         d="M 0,0 5,-5 -12.5,0 5,5 0,0 Z"
         id="path4431" /></marker><marker
       style="overflow:visible"
       id="Arrow1Lstart"
       refX="0"
       refY="0"
       orient="auto"><path
         transform="matrix(0.8,0,0,0.8,10,0)"
         style="fill:#000000;fill-opacity:1;fill-rule:evenodd;stroke:#000000;stroke-width:1pt;stroke-opacity:1"
         d="M 0,0 5,-5 -12.5,0 5,5 0,0 Z"
         id="path4419" /></marker><clipPath
       id="clipPath3417"
       clipPathUnits="userSpaceOnUse"><path
         id="path3419"
         d="m 0,0 163.9,0 0,123 L 0,123 0,0 Z" /></clipPath><clipPath
       id="clipPath3541"
       clipPathUnits="userSpaceOnUse"><path
         id="path3543"
         d="m 0,0 314.59,0 0,93.575 L 0,93.575 0,0 Z" /></clipPath><clipPath
       id="clipPath3691"
       clipPathUnits="userSpaceOnUse"><path
         id="path3693"
         d="m 0,0 462.96,0 0,357.82 L 0,357.82 0,0 Z" /></clipPath><marker
       style="overflow:visible"
       id="Arrow2Mstart-7"
       refX="0"
       refY="0"
       orient="auto"><path
         transform="scale(0.6,0.6)"
         d="M 8.7185878,4.0337352 -2.2072895,0.01601326 8.7185884,-4.0017078 c -1.7454984,2.3720609 -1.7354408,5.6174519 -6e-7,8.035443 z"
         style="fill:#000000;fill-opacity:1;fill-rule:evenodd;stroke:#000000;stroke-width:0.625;stroke-linejoin:round;stroke-opacity:1"
         id="path4443-5" /></marker><marker
       style="overflow:visible"
       id="marker4857-3"
       refX="0"
       refY="0"
       orient="auto"><path
         transform="scale(-0.6,-0.6)"
         d="M 8.7185878,4.0337352 -2.2072895,0.01601326 8.7185884,-4.0017078 c -1.7454984,2.3720609 -1.7354408,5.6174519 -6e-7,8.035443 z"
         style="fill:#000000;fill-opacity:1;fill-rule:evenodd;stroke:#000000;stroke-width:0.625;stroke-linejoin:round;stroke-opacity:1"
         id="path4859-5" /></marker><marker
       style="overflow:visible"
       id="Arrow2Mstart-7-2"
       refX="0"
       refY="0"
       orient="auto"><path
         transform="scale(0.6,0.6)"
         d="M 8.7185878,4.0337352 -2.2072895,0.01601326 8.7185884,-4.0017078 c -1.7454984,2.3720609 -1.7354408,5.6174519 -6e-7,8.035443 z"
         style="fill:#000000;fill-opacity:1;fill-rule:evenodd;stroke:#000000;stroke-width:0.625;stroke-linejoin:round;stroke-opacity:1"
         id="path4443-5-9" /></marker><marker
       style="overflow:visible"
       id="marker4857-3-1"
       refX="0"
       refY="0"
       orient="auto"><path
         transform="scale(-0.6,-0.6)"
         d="M 8.7185878,4.0337352 -2.2072895,0.01601326 8.7185884,-4.0017078 c -1.7454984,2.3720609 -1.7354408,5.6174519 -6e-7,8.035443 z"
         style="fill:#000000;fill-opacity:1;fill-rule:evenodd;stroke:#000000;stroke-width:0.625;stroke-linejoin:round;stroke-opacity:1"
         id="path4859-5-2" /></marker><marker
       style="overflow:visible"
       id="Arrow2Mstart-7-2-0"
       refX="0"
       refY="0"
       orient="auto"><path
         transform="scale(0.6,0.6)"
         d="M 8.7185878,4.0337352 -2.2072895,0.01601326 8.7185884,-4.0017078 c -1.7454984,2.3720609 -1.7354408,5.6174519 -6e-7,8.035443 z"
         style="fill:#000000;fill-opacity:1;fill-rule:evenodd;stroke:#000000;stroke-width:0.625;stroke-linejoin:round;stroke-opacity:1"
         id="path4443-5-9-9" /></marker><marker
       style="overflow:visible"
       id="marker4857-3-1-3"
       refX="0"
       refY="0"
       orient="auto"><path
         transform="scale(-0.6,-0.6)"
         d="M 8.7185878,4.0337352 -2.2072895,0.01601326 8.7185884,-4.0017078 c -1.7454984,2.3720609 -1.7354408,5.6174519 -6e-7,8.035443 z"
         style="fill:#000000;fill-opacity:1;fill-rule:evenodd;stroke:#000000;stroke-width:0.625;stroke-linejoin:round;stroke-opacity:1"
         id="path4859-5-2-6" /></marker></defs><g
     transform="matrix(1.25,0,0,-1.25,-80.856002,984.3499)"
     id="g3363"><g
       id="g3377" /><g
       id="g3379" /><g
       id="g3387" /><g
       id="g3395" /><g
       id="g3403" /><g
       id="g3405" /><path
       d="m 103.52762,754.55185 0,32.18021 53.83969,0 0,-32.18021 71.24338,0 0,32.18021"
       style="fill:none;stroke:#24211d;stroke-width:1.49573803;stroke-linecap:butt;stroke-linejoin:round;stroke-miterlimit:10;stroke-dasharray:none;stroke-opacity:1"
       id="path3421" /><path
       d="m 103.52762,683.85905 0,32.17567 71.24717,0 0,-32.17567 53.8359,0 0,32.17567"
       style="fill:none;stroke:#24211d;stroke-width:1.49573803;stroke-linecap:butt;stroke-linejoin:round;stroke-miterlimit:10;stroke-dasharray:none;stroke-opacity:1"
       id="path3423" /><g
       id="text3431"
       style="font-variant:normal;font-weight:normal;font-size:14.26761055px;font-family:'Times New Roman';-inkscape-font-specification:'Times New';writing-mode:lr-tb;fill:#24211d;fill-opacity:1;fill-rule:nonzero;stroke:none"
       transform="scale(1.0544199,-0.94838878)"><path
         id="path9196"
         style="font-size:14px"
         d="m 61.34634,-812.24945 q 0,-1.58594 0.478516,-2.72754 0.478515,-1.14844 1.271484,-1.70898 0.615235,-0.44434 1.271485,-0.44434 1.066406,0 1.914062,1.08691 1.05957,1.34668 1.05957,3.65039 0,1.61329 -0.464843,2.74122 -0.464844,1.12793 -1.189454,1.64062 -0.717773,0.50586 -1.387695,0.50586 -1.326172,0 -2.208008,-1.56543 -0.745117,-1.31934 -0.745117,-3.17871 z m 1.339844,0.1709 q 0,1.91406 0.47168,3.12402 0.389648,1.01856 1.162109,1.01856 0.369141,0 0.765625,-0.32813 0.396484,-0.33496 0.601562,-1.11426 0.314454,-1.17578 0.314454,-3.31543 0,-1.58593 -0.328125,-2.6455 -0.246094,-0.78614 -0.635743,-1.11426 -0.280273,-0.22559 -0.676757,-0.22559 -0.464844,0 -0.827149,0.41699 -0.492187,0.56739 -0.669922,1.78418 -0.177734,1.2168 -0.177734,2.39942 z" /><path
         id="path9198"
         style="font-size:14px"
         d="m 73.493801,-812.85101 q 0.90918,-1.26465 1.961914,-1.26465 0.963867,0 1.681641,0.82715 0.717773,0.82031 0.717773,2.24902 0,1.66797 -1.107422,2.68652 -0.950195,0.875 -2.11914,0.875 -0.546875,0 -1.114258,-0.19824 -0.560547,-0.19824 -1.148438,-0.59473 l 0,-6.4873 q 0,-1.06641 -0.05469,-1.3125 -0.04785,-0.24609 -0.157227,-0.33496 -0.109375,-0.0889 -0.273437,-0.0889 -0.191406,0 -0.478516,0.10938 l -0.0957,-0.23926 1.879883,-0.76563 0.307617,0 0,4.53907 z m 0,0.4375 0,3.74609 q 0.348633,0.3418 0.717774,0.51953 0.375976,0.1709 0.765625,0.1709 0.62207,0 1.155273,-0.68359 0.540039,-0.6836 0.540039,-1.98926 0,-1.20313 -0.540039,-1.8457 -0.533203,-0.64942 -1.216797,-0.64942 -0.362305,0 -0.724609,0.18457 -0.273438,0.13672 -0.697266,0.54688 z" /><path
         id="path9200"
         style="font-size:14px"
         d="m 80.370754,-817.39008 q 0.28711,0 0.485352,0.20508 0.205078,0.19824 0.205078,0.48535 0,0.28711 -0.205078,0.49219 -0.198242,0.20508 -0.485352,0.20508 -0.287109,0 -0.492187,-0.20508 -0.205078,-0.20508 -0.205078,-0.49219 0,-0.28711 0.198242,-0.48535 0.205078,-0.20508 0.499023,-0.20508 z m 0.567383,3.27442 0,5.03125 q 0,0.58789 0.08203,0.78613 0.08887,0.19141 0.25293,0.28711 0.170898,0.0957 0.615234,0.0957 l 0,0.2461 -3.041992,0 0,-0.2461 q 0.458008,0 0.615235,-0.0889 0.157226,-0.0889 0.246093,-0.29395 0.0957,-0.20508 0.0957,-0.78613 l 0,-2.41309 q 0,-1.01855 -0.06152,-1.31933 -0.04785,-0.21875 -0.150391,-0.30078 -0.102539,-0.0889 -0.280273,-0.0889 -0.191406,0 -0.464844,0.10254 l -0.0957,-0.2461 1.886719,-0.76562 0.300781,0 z" /><path
         id="path9202"
         style="font-size:14px"
         d="m 84.479153,-815.98871 0,2.05762 1.46289,0 0,0.47851 -1.46289,0 0,4.06055 q 0,0.6084 0.170898,0.82031 0.177734,0.21192 0.451172,0.21192 0.225586,0 0.4375,-0.13672 0.211914,-0.14356 0.328125,-0.41699 l 0.266602,0 q -0.239258,0.66992 -0.676758,1.01172 -0.4375,0.33496 -0.902344,0.33496 -0.314453,0 -0.615234,-0.1709 -0.300782,-0.17774 -0.444336,-0.49903 -0.143555,-0.32812 -0.143555,-1.00488 l 0,-4.21094 -0.991211,0 0,-0.22558 q 0.375977,-0.15039 0.765625,-0.50586 0.396484,-0.36231 0.704102,-0.85449 0.157226,-0.25977 0.4375,-0.9502 l 0.211914,0 z" /></g><g
       id="text3439"
       style="font-variant:normal;font-weight:normal;font-size:14px;font-family:'Times New Roman';-inkscape-font-specification:'Times New';writing-mode:lr-tb;fill:#24211d;fill-opacity:1;fill-rule:nonzero;stroke:none"
       transform="scale(1.0544199,-0.94838878)"><path
         id="path9187"
         style=""
         d="m 61.733955,-742.27277 2.25586,-1.10058 0.225586,0 0,7.82715 q 0,0.77929 0.06152,0.9707 0.06836,0.19141 0.273438,0.29394 0.205078,0.10254 0.833984,0.11622 l 0,0.25293 -3.486328,0 0,-0.25293 q 0.65625,-0.0137 0.847656,-0.10938 0.191406,-0.10254 0.266602,-0.2666 0.0752,-0.1709 0.0752,-1.00488 l 0,-5.00391 q 0,-1.01172 -0.06836,-1.29883 -0.04785,-0.21875 -0.177735,-0.32129 -0.123047,-0.10254 -0.300781,-0.10254 -0.25293,0 -0.704102,0.21192 l -0.102539,-0.21192 z" /><path
         id="path9189"
         style=""
         d="m 72.746651,-739.09406 q 0.909179,-1.26464 1.961914,-1.26464 0.963867,0 1.68164,0.82714 0.717774,0.82032 0.717774,2.24903 0,1.66797 -1.107422,2.68652 -0.950195,0.875 -2.119141,0.875 -0.546875,0 -1.114257,-0.19824 -0.560547,-0.19824 -1.148438,-0.59473 l 0,-6.4873 q 0,-1.06641 -0.05469,-1.3125 -0.04785,-0.2461 -0.157227,-0.33496 -0.109375,-0.0889 -0.273438,-0.0889 -0.191406,0 -0.478515,0.10938 l -0.0957,-0.23926 1.879883,-0.76563 0.307617,0 0,4.53906 z m 0,0.4375 0,3.7461 q 0.348633,0.3418 0.717773,0.51953 0.375977,0.1709 0.765625,0.1709 0.62207,0 1.155274,-0.6836 0.540039,-0.68359 0.540039,-1.98925 0,-1.20313 -0.540039,-1.84571 -0.533204,-0.64941 -1.216797,-0.64941 -0.362305,0 -0.72461,0.18457 -0.273437,0.13672 -0.697265,0.54687 z" /><path
         id="path9191"
         style=""
         d="m 79.623604,-743.63312 q 0.287109,0 0.485351,0.20508 0.205079,0.19824 0.205079,0.48535 0,0.28711 -0.205079,0.49219 -0.198242,0.20508 -0.485351,0.20508 -0.28711,0 -0.492188,-0.20508 -0.205078,-0.20508 -0.205078,-0.49219 0,-0.28711 0.198242,-0.48535 0.205079,-0.20508 0.499024,-0.20508 z m 0.567383,3.27442 0,5.03125 q 0,0.58789 0.08203,0.78613 0.08887,0.19141 0.25293,0.28711 0.170898,0.0957 0.615234,0.0957 l 0,0.2461 -3.041992,0 0,-0.2461 q 0.458008,0 0.615234,-0.0889 0.157227,-0.0889 0.246094,-0.29394 0.0957,-0.20508 0.0957,-0.78613 l 0,-2.41309 q 0,-1.01855 -0.06152,-1.31934 -0.04785,-0.21875 -0.150391,-0.30078 -0.102539,-0.0889 -0.280273,-0.0889 -0.191407,0 -0.464844,0.10254 l -0.0957,-0.2461 1.886718,-0.76562 0.300782,0 z" /><path
         id="path9193"
         style=""
         d="m 83.732002,-742.23175 0,2.05762 1.462891,0 0,0.47851 -1.462891,0 0,4.06055 q 0,0.6084 0.170899,0.82031 0.177734,0.21192 0.451172,0.21192 0.225586,0 0.4375,-0.13672 0.211914,-0.14356 0.328125,-0.417 l 0.266601,0 q -0.239258,0.66993 -0.676758,1.01172 -0.4375,0.33496 -0.902343,0.33496 -0.314454,0 -0.615235,-0.17089 -0.300781,-0.17774 -0.444336,-0.49903 -0.143554,-0.32812 -0.143554,-1.00488 l 0,-4.21094 -0.991211,0 0,-0.22558 q 0.375976,-0.15039 0.765625,-0.50586 0.396484,-0.36231 0.704101,-0.8545 0.157227,-0.25976 0.4375,-0.95019 l 0.211914,0 z" /></g><g
       id="text4211"
       style="font-style:normal;font-variant:normal;font-weight:normal;font-stretch:normal;font-size:8px;line-height:125%;font-family:'Times New Roman';-inkscape-font-specification:'Times New Roman, ';letter-spacing:0px;word-spacing:0px;fill:#000000;fill-opacity:1;stroke:none;stroke-width:1px;stroke-linecap:butt;stroke-linejoin:miter;stroke-opacity:1"
       transform="scale(1,-1)"><path
         id="path9176"
         style="font-size:12px"
         d="m 121.29411,-772.63208 0,0.83203 -1.0664,0 0,2.09766 -0.9668,0 0,-2.09766 -3.36328,0 0,-0.75 3.68555,-5.26172 0.64453,0 0,5.17969 1.0664,0 z m -2.0332,0 0,-3.94336 -2.78906,3.94336 2.78906,0 z" /><path
         id="path9178"
         style="font-size:12px"
         d="m 122.14372,-773.62817 q 0,-1.35938 0.41016,-2.33789 0.41016,-0.98438 1.08984,-1.46485 0.52735,-0.38086 1.08985,-0.38086 0.91406,0 1.64062,0.93164 0.9082,1.1543 0.9082,3.12891 0,1.38281 -0.39843,2.34961 -0.39844,0.9668 -1.01953,1.40625 -0.61524,0.43359 -1.18946,0.43359 -1.13672,0 -1.89258,-1.34179 -0.63867,-1.13086 -0.63867,-2.72461 z m 1.14844,0.14648 q 0,1.64063 0.4043,2.67773 0.33398,0.87305 0.99609,0.87305 0.31641,0 0.65625,-0.28125 0.33984,-0.28711 0.51563,-0.95508 0.26953,-1.00781 0.26953,-2.84179 0,-1.35938 -0.28125,-2.26758 -0.21094,-0.67383 -0.54492,-0.95508 -0.24024,-0.19336 -0.58008,-0.19336 -0.39844,0 -0.70899,0.35742 -0.42187,0.48633 -0.57422,1.5293 -0.15234,1.04297 -0.15234,2.05664 z" /><path
         id="path9180"
         style="font-size:12px"
         d="m 128.14372,-773.62817 q 0,-1.35938 0.41016,-2.33789 0.41016,-0.98438 1.08984,-1.46485 0.52735,-0.38086 1.08985,-0.38086 0.91406,0 1.64062,0.93164 0.9082,1.1543 0.9082,3.12891 0,1.38281 -0.39843,2.34961 -0.39844,0.9668 -1.01953,1.40625 -0.61524,0.43359 -1.18946,0.43359 -1.13672,0 -1.89258,-1.34179 -0.63867,-1.13086 -0.63867,-2.72461 z m 1.14844,0.14648 q 0,1.64063 0.4043,2.67773 0.33398,0.87305 0.99609,0.87305 0.31641,0 0.65625,-0.28125 0.33984,-0.28711 0.51563,-0.95508 0.26953,-1.00781 0.26953,-2.84179 0,-1.35938 -0.28125,-2.26758 -0.21094,-0.67383 -0.54492,-0.95508 -0.24024,-0.19336 -0.58008,-0.19336 -0.39844,0 -0.70899,0.35742 -0.42187,0.48633 -0.57422,1.5293 -0.15234,1.04297 -0.15234,2.05664 z" /><path
         id="path9182"
         style="font-size:12px"
         d="m 135.64958,-774.09106 q 0.94336,-1.13672 1.79883,-1.13672 0.43945,0 0.75586,0.22265 0.31641,0.2168 0.50391,0.72071 0.1289,0.35156 0.1289,1.07812 l 0,2.29102 q 0,0.50976 0.082,0.6914 0.0645,0.14649 0.20508,0.22852 0.14649,0.082 0.5332,0.082 l 0,0.21094 -2.65429,0 0,-0.21094 0.11133,0 q 0.375,0 0.52148,-0.11133 0.15234,-0.11719 0.21094,-0.33984 0.0234,-0.0879 0.0234,-0.55078 l 0,-2.19727 q 0,-0.73242 -0.19336,-1.06055 -0.1875,-0.33398 -0.63868,-0.33398 -0.69726,0 -1.38867,0.76172 l 0,2.83008 q 0,0.54492 0.0645,0.67382 0.082,0.16993 0.22265,0.25196 0.14649,0.0762 0.58594,0.0762 l 0,0.21094 -2.6543,0 0,-0.21094 0.11719,0 q 0.41016,0 0.55078,-0.20508 0.14649,-0.21094 0.14649,-0.79687 l 0,-1.99219 q 0,-0.9668 -0.0469,-1.17774 -0.041,-0.21093 -0.13477,-0.2871 -0.0879,-0.0762 -0.24023,-0.0762 -0.16406,0 -0.39258,0.0879 l -0.0879,-0.21093 1.61719,-0.65625 0.25195,0 0,1.13672 z" /><path
         id="path9184"
         style="font-size:12px"
         d="m 143.55388,-775.22778 0,1.82812 -0.19336,0 q -0.22266,-0.86133 -0.57422,-1.17187 -0.3457,-0.31055 -0.88476,-0.31055 -0.41016,0 -0.66211,0.2168 -0.25196,0.21679 -0.25196,0.48047 0,0.32812 0.1875,0.5625 0.18164,0.24023 0.73828,0.50976 l 0.85547,0.41602 q 1.18946,0.58007 1.18946,1.52929 0,0.73243 -0.55664,1.1836 -0.55079,0.44531 -1.23633,0.44531 -0.49219,0 -1.125,-0.17578 -0.19336,-0.0586 -0.31641,-0.0586 -0.13476,0 -0.21094,0.15235 l -0.19336,0 0,-1.91602 0.19336,0 q 0.16407,0.82032 0.62696,1.23633 0.46289,0.41602 1.03711,0.41602 0.40429,0 0.65625,-0.23438 0.25781,-0.24023 0.25781,-0.57422 0,-0.40429 -0.28711,-0.67968 -0.28125,-0.2754 -1.13086,-0.69727 -0.84961,-0.42188 -1.11328,-0.76172 -0.26367,-0.33398 -0.26367,-0.84375 0,-0.66211 0.45117,-1.10742 0.45703,-0.44531 1.17773,-0.44531 0.31641,0 0.76758,0.13476 0.29883,0.0879 0.39844,0.0879 0.0937,0 0.14648,-0.041 0.0527,-0.041 0.12305,-0.18164 l 0.19336,0 z" /></g><g
       id="text4211-7"
       style="font-style:normal;font-variant:normal;font-weight:normal;font-stretch:normal;font-size:8px;line-height:125%;font-family:'Times New Roman';-inkscape-font-specification:'Times New Roman, ';letter-spacing:0px;word-spacing:0px;fill:#000000;fill-opacity:1;stroke:none;stroke-width:1px;stroke-linecap:butt;stroke-linejoin:miter;stroke-opacity:1"
       transform="scale(1,-1)"><path
         id="path9165"
         style="font-size:12px"
         d="m 126.02493,-701.53467 q -0.94336,-0.77344 -1.21875,-1.24219 -0.26954,-0.46875 -0.26954,-0.97265 0,-0.77344 0.59766,-1.33008 0.59766,-0.5625 1.58789,-0.5625 0.96094,0 1.54688,0.52148 0.58593,0.52149 0.58593,1.18946 0,0.44531 -0.3164,0.9082 -0.31641,0.46289 -1.31836,1.08984 1.03125,0.79688 1.36523,1.25391 0.44531,0.59766 0.44531,1.25977 0,0.83789 -0.63867,1.43554 -0.63867,0.5918 -1.67578,0.5918 -1.13086,0 -1.76367,-0.70898 -0.50391,-0.56836 -0.50391,-1.24219 0,-0.52735 0.35157,-1.04297 0.35742,-0.52148 1.22461,-1.14844 z m 0.91992,-0.62695 q 0.70312,-0.63281 0.89062,-0.99609 0.1875,-0.36915 0.1875,-0.83204 0,-0.61523 -0.3457,-0.96093 -0.3457,-0.35157 -0.94336,-0.35157 -0.59766,0 -0.97266,0.34571 -0.375,0.3457 -0.375,0.80859 0,0.30469 0.15235,0.60938 0.1582,0.30468 0.44531,0.58007 l 0.96094,0.79688 z m -0.64453,0.84961 q -0.48633,0.41015 -0.72071,0.89648 -0.23437,0.48047 -0.23437,1.04297 0,0.75586 0.41015,1.21289 0.41602,0.45117 1.05469,0.45117 0.63281,0 1.01367,-0.35742 0.38086,-0.35742 0.38086,-0.86719 0,-0.42187 -0.22265,-0.75585 -0.41602,-0.6211 -1.68164,-1.62305 z" /><path
         id="path9167"
         style="font-size:12px"
         d="m 134.93118,-705.47803 -0.45704,0.9961 -2.39062,0 -0.52149,1.0664 q 1.55274,0.22852 2.46094,1.1543 0.7793,0.79687 0.7793,1.875 0,0.62695 -0.25781,1.16016 -0.25196,0.5332 -0.63868,0.9082 -0.38671,0.375 -0.86132,0.60351 -0.67383,0.32227 -1.38282,0.32227 -0.71484,0 -1.04296,-0.24023 -0.32227,-0.2461 -0.32227,-0.53907 0,-0.16406 0.13477,-0.28711 0.13476,-0.1289 0.33984,-0.1289 0.15234,0 0.26367,0.0469 0.11719,0.0469 0.39258,0.24024 0.43945,0.30468 0.89062,0.30468 0.68555,0 1.20118,-0.51562 0.52148,-0.52148 0.52148,-1.26563 0,-0.7207 -0.46289,-1.34179 -0.46289,-0.62696 -1.27734,-0.9668 -0.63868,-0.26367 -1.74024,-0.30469 l 1.52344,-3.08789 2.84766,0 z" /><path
         id="path9169"
         style="font-size:12px"
         d="m 136.15578,-701.4585 q 0,-1.35937 0.41016,-2.33789 0.41016,-0.98437 1.08984,-1.46484 0.52735,-0.38086 1.08985,-0.38086 0.91406,0 1.64062,0.93164 0.90821,1.1543 0.90821,3.12891 0,1.38281 -0.39844,2.34961 -0.39844,0.96679 -1.01953,1.40625 -0.61524,0.43359 -1.18946,0.43359 -1.13671,0 -1.89257,-1.3418 -0.63868,-1.13086 -0.63868,-2.72461 z m 1.14844,0.14649 q 0,1.64062 0.4043,2.67773 0.33398,0.87305 0.99609,0.87305 0.31641,0 0.65625,-0.28125 0.33985,-0.28711 0.51563,-0.95508 0.26953,-1.00781 0.26953,-2.8418 0,-1.35937 -0.28125,-2.26757 -0.21094,-0.67383 -0.54492,-0.95508 -0.24024,-0.19336 -0.58008,-0.19336 -0.39844,0 -0.70899,0.35742 -0.42187,0.48633 -0.57421,1.5293 -0.15235,1.04297 -0.15235,2.05664 z" /><path
         id="path9171"
         style="font-size:12px"
         d="m 143.66164,-701.92139 q 0.94336,-1.13672 1.79883,-1.13672 0.43946,0 0.75586,0.22266 0.31641,0.2168 0.50391,0.7207 0.1289,0.35157 0.1289,1.07813 l 0,2.29101 q 0,0.50977 0.082,0.69141 0.0644,0.14649 0.20507,0.22852 0.14649,0.082 0.53321,0.082 l 0,0.21094 -2.6543,0 0,-0.21094 0.11133,0 q 0.375,0 0.52148,-0.11133 0.15235,-0.11719 0.21094,-0.33984 0.0234,-0.0879 0.0234,-0.55079 l 0,-2.19726 q 0,-0.73242 -0.19336,-1.06055 -0.1875,-0.33398 -0.63867,-0.33398 -0.69727,0 -1.38868,0.76172 l 0,2.83007 q 0,0.54493 0.0645,0.67383 0.082,0.16992 0.22265,0.25196 0.14649,0.0762 0.58594,0.0762 l 0,0.21094 -2.6543,0 0,-0.21094 0.11719,0 q 0.41016,0 0.55078,-0.20508 0.14649,-0.21094 0.14649,-0.79688 l 0,-1.99218 q 0,-0.9668 -0.0469,-1.17774 -0.041,-0.21093 -0.13476,-0.28711 -0.0879,-0.0762 -0.24024,-0.0762 -0.16406,0 -0.39258,0.0879 l -0.0879,-0.21094 1.61719,-0.65625 0.25195,0 0,1.13672 z" /><path
         id="path9173"
         style="font-size:12px"
         d="m 151.56594,-703.05811 0,1.82813 -0.19336,0 q -0.22265,-0.86133 -0.57422,-1.17188 -0.3457,-0.31054 -0.88476,-0.31054 -0.41016,0 -0.66211,0.21679 -0.25196,0.2168 -0.25196,0.48047 0,0.32813 0.1875,0.5625 0.18165,0.24024 0.73829,0.50977 l 0.85546,0.41601 q 1.18946,0.58008 1.18946,1.5293 0,0.73242 -0.55664,1.1836 -0.55078,0.44531 -1.23633,0.44531 -0.49219,0 -1.125,-0.17578 -0.19336,-0.0586 -0.31641,-0.0586 -0.13476,0 -0.21093,0.15235 l -0.19336,0 0,-1.91602 0.19336,0 q 0.16406,0.82031 0.62695,1.23633 0.46289,0.41601 1.03711,0.41601 0.40429,0 0.65625,-0.23437 0.25781,-0.24023 0.25781,-0.57422 0,-0.4043 -0.28711,-0.67969 -0.28125,-0.27539 -1.13086,-0.69726 -0.84961,-0.42188 -1.11328,-0.76172 -0.26367,-0.33399 -0.26367,-0.84375 0,-0.66211 0.45117,-1.10742 0.45703,-0.44532 1.17773,-0.44532 0.31641,0 0.76758,0.13477 0.29883,0.0879 0.39844,0.0879 0.0937,0 0.14648,-0.041 0.0527,-0.041 0.12305,-0.18165 l 0.19336,0 z" /></g><g
       id="text4211-35"
       style="font-style:normal;font-variant:normal;font-weight:normal;font-stretch:normal;font-size:8px;line-height:125%;font-family:'Times New Roman';-inkscape-font-specification:'Times New Roman, ';letter-spacing:0px;word-spacing:0px;fill:#000000;fill-opacity:1;stroke:none;stroke-width:1px;stroke-linecap:butt;stroke-linejoin:miter;stroke-opacity:1"
       transform="scale(1,-1)"><path
         id="path9154"
         style="font-size:12px"
         d="m 194.85681,-699.78131 0,0.83203 -1.0664,0 0,2.09766 -0.9668,0 0,-2.09766 -3.36328,0 0,-0.75 3.68554,-5.26172 0.64454,0 0,5.17969 1.0664,0 z m -2.0332,0 0,-3.94336 -2.78906,3.94336 2.78906,0 z" /><path
         id="path9156"
         style="font-size:12px"
         d="m 195.70642,-700.7774 q 0,-1.35938 0.41016,-2.3379 0.41015,-0.98437 1.08984,-1.46484 0.52734,-0.38086 1.08984,-0.38086 0.91407,0 1.64063,0.93164 0.9082,1.1543 0.9082,3.12891 0,1.38281 -0.39843,2.34961 -0.39844,0.96679 -1.01954,1.40625 -0.61523,0.43359 -1.18945,0.43359 -1.13672,0 -1.89258,-1.3418 -0.63867,-1.13085 -0.63867,-2.7246 z m 1.14844,0.14648 q 0,1.64062 0.4043,2.67773 0.33398,0.87305 0.99609,0.87305 0.31641,0 0.65625,-0.28125 0.33984,-0.28711 0.51562,-0.95508 0.26954,-1.00781 0.26954,-2.84179 0,-1.35938 -0.28125,-2.26758 -0.21094,-0.67383 -0.54493,-0.95508 -0.24023,-0.19336 -0.58007,-0.19336 -0.39844,0 -0.70899,0.35742 -0.42187,0.48633 -0.57422,1.5293 -0.15234,1.04297 -0.15234,2.05664 z" /><path
         id="path9158"
         style="font-size:12px"
         d="m 201.70642,-700.7774 q 0,-1.35938 0.41016,-2.3379 0.41015,-0.98437 1.08984,-1.46484 0.52734,-0.38086 1.08984,-0.38086 0.91407,0 1.64063,0.93164 0.9082,1.1543 0.9082,3.12891 0,1.38281 -0.39843,2.34961 -0.39844,0.96679 -1.01954,1.40625 -0.61523,0.43359 -1.18945,0.43359 -1.13672,0 -1.89258,-1.3418 -0.63867,-1.13085 -0.63867,-2.7246 z m 1.14844,0.14648 q 0,1.64062 0.4043,2.67773 0.33398,0.87305 0.99609,0.87305 0.31641,0 0.65625,-0.28125 0.33984,-0.28711 0.51562,-0.95508 0.26954,-1.00781 0.26954,-2.84179 0,-1.35938 -0.28125,-2.26758 -0.21094,-0.67383 -0.54493,-0.95508 -0.24023,-0.19336 -0.58007,-0.19336 -0.39844,0 -0.70899,0.35742 -0.42187,0.48633 -0.57422,1.5293 -0.15234,1.04297 -0.15234,2.05664 z" /><path
         id="path9160"
         style="font-size:12px"
         d="m 209.21228,-701.2403 q 0.94336,-1.13671 1.79883,-1.13671 0.43945,0 0.75586,0.22265 0.3164,0.2168 0.5039,0.72071 0.12891,0.35156 0.12891,1.07812 l 0,2.29102 q 0,0.50976 0.082,0.6914 0.0644,0.14649 0.20508,0.22852 0.14648,0.082 0.5332,0.082 l 0,0.21094 -2.65429,0 0,-0.21094 0.11132,0 q 0.375,0 0.52149,-0.11133 0.15234,-0.11719 0.21094,-0.33984 0.0234,-0.0879 0.0234,-0.55078 l 0,-2.19727 q 0,-0.73242 -0.19336,-1.06055 -0.1875,-0.33398 -0.63867,-0.33398 -0.69726,0 -1.38867,0.76172 l 0,2.83008 q 0,0.54492 0.0644,0.67382 0.082,0.16993 0.22266,0.25196 0.14648,0.0762 0.58594,0.0762 l 0,0.21094 -2.6543,0 0,-0.21094 0.11719,0 q 0.41015,0 0.55078,-0.20508 0.14648,-0.21094 0.14648,-0.79687 l 0,-1.99219 q 0,-0.9668 -0.0469,-1.17774 -0.041,-0.21093 -0.13477,-0.28711 -0.0879,-0.0762 -0.24023,-0.0762 -0.16406,0 -0.39258,0.0879 l -0.0879,-0.21093 1.61719,-0.65625 0.25195,0 0,1.13671 z" /><path
         id="path9162"
         style="font-size:12px"
         d="m 217.11658,-702.37701 0,1.82812 -0.19336,0 q -0.22266,-0.86133 -0.57422,-1.17187 -0.3457,-0.31055 -0.88477,-0.31055 -0.41015,0 -0.66211,0.2168 -0.25195,0.21679 -0.25195,0.48046 0,0.32813 0.1875,0.5625 0.18164,0.24024 0.73828,0.50977 l 0.85547,0.41602 q 1.18945,0.58007 1.18945,1.52929 0,0.73242 -0.55664,1.1836 -0.55078,0.44531 -1.23632,0.44531 -0.49219,0 -1.125,-0.17578 -0.19336,-0.0586 -0.31641,-0.0586 -0.13477,0 -0.21094,0.15235 l -0.19336,0 0,-1.91602 0.19336,0 q 0.16406,0.82031 0.62695,1.23633 0.4629,0.41602 1.03711,0.41602 0.4043,0 0.65625,-0.23438 0.25782,-0.24023 0.25782,-0.57422 0,-0.40429 -0.28711,-0.67969 -0.28125,-0.27539 -1.13086,-0.69726 -0.84961,-0.42188 -1.11328,-0.76172 -0.26368,-0.33398 -0.26368,-0.84375 0,-0.66211 0.45118,-1.10742 0.45703,-0.44531 1.17773,-0.44531 0.31641,0 0.76758,0.13476 0.29883,0.0879 0.39844,0.0879 0.0937,0 0.14648,-0.041 0.0527,-0.041 0.12305,-0.18164 l 0.19336,0 z" /></g><text
       transform="scale(1,-1)"
       id="text4257"
       y="-680.18903"
       x="209.88692"
       style="font-style:normal;font-weight:normal;font-size:32px;line-height:125%;font-family:sans-serif;letter-spacing:0px;word-spacing:0px;fill:#000000;fill-opacity:1;stroke:none;stroke-width:1px;stroke-linecap:butt;stroke-linejoin:miter;stroke-opacity:1"
       xml:space="preserve"><tspan
         y="-680.18903"
         x="209.88692"
         id="tspan4259" /></text>
<text
       transform="scale(1,-1)"
       id="text4261"
       y="-758.32349"
       x="279.41852"
       style="font-style:normal;font-weight:normal;font-size:32px;line-height:125%;font-family:sans-serif;letter-spacing:0px;word-spacing:0px;fill:#000000;fill-opacity:1;stroke:none;stroke-width:1px;stroke-linecap:butt;stroke-linejoin:miter;stroke-opacity:1"
       xml:space="preserve"><tspan
         y="-758.32349"
         x="279.41852"
         id="tspan4263" /></text>
<g
       id="text4211-7-3"
       style="font-style:normal;font-variant:normal;font-weight:normal;font-stretch:normal;font-size:8px;line-height:125%;font-family:'Times New Roman';-inkscape-font-specification:'Times New Roman, ';letter-spacing:0px;word-spacing:0px;fill:#000000;fill-opacity:1;stroke:none;stroke-width:1px;stroke-linecap:butt;stroke-linejoin:miter;stroke-opacity:1"
       transform="scale(1,-1)"><path
         id="path9143"
         style="font-size:12px"
         d="m 181.59204,-774.03455 q -0.94336,-0.77343 -1.21875,-1.24218 -0.26953,-0.46875 -0.26953,-0.97266 0,-0.77344 0.59766,-1.33008 0.59765,-0.5625 1.58789,-0.5625 0.96093,0 1.54687,0.52149 0.58594,0.52148 0.58594,1.18945 0,0.44531 -0.31641,0.9082 -0.3164,0.46289 -1.31836,1.08985 1.03125,0.79687 1.36524,1.2539 0.44531,0.59766 0.44531,1.25977 0,0.83789 -0.63867,1.43555 -0.63867,0.59179 -1.67578,0.59179 -1.13086,0 -1.76367,-0.70898 -0.50391,-0.56836 -0.50391,-1.24219 0,-0.52734 0.35156,-1.04297 0.35742,-0.52148 1.22461,-1.14844 z m 0.91992,-0.62695 q 0.70313,-0.63281 0.89063,-0.99609 0.1875,-0.36914 0.1875,-0.83203 0,-0.61524 -0.34571,-0.96094 -0.3457,-0.35156 -0.94335,-0.35156 -0.59766,0 -0.97266,0.3457 -0.375,0.3457 -0.375,0.80859 0,0.30469 0.15234,0.60938 0.15821,0.30469 0.44532,0.58008 l 0.96093,0.79687 z m -0.64453,0.84961 q -0.48633,0.41016 -0.7207,0.89648 -0.23438,0.48047 -0.23438,1.04297 0,0.75586 0.41016,1.21289 0.41602,0.45118 1.05469,0.45118 0.63281,0 1.01367,-0.35743 0.38086,-0.35742 0.38086,-0.86718 0,-0.42188 -0.22266,-0.75586 -0.41601,-0.6211 -1.68164,-1.62305 z" /><path
         id="path9145"
         style="font-size:12px"
         d="m 190.49829,-777.97791 -0.45703,0.9961 -2.39063,0 -0.52148,1.0664 q 1.55273,0.22852 2.46094,1.1543 0.77929,0.79688 0.77929,1.875 0,0.62695 -0.25781,1.16016 -0.25195,0.5332 -0.63867,0.9082 -0.38672,0.375 -0.86133,0.60352 -0.67383,0.32226 -1.38281,0.32226 -0.71484,0 -1.04297,-0.24023 -0.32226,-0.2461 -0.32226,-0.53906 0,-0.16407 0.13476,-0.28711 0.13477,-0.12891 0.33984,-0.12891 0.15235,0 0.26368,0.0469 0.11718,0.0469 0.39257,0.24024 0.43946,0.30469 0.89063,0.30469 0.68555,0 1.20117,-0.51563 0.52149,-0.52148 0.52149,-1.26562 0,-0.72071 -0.46289,-1.3418 -0.4629,-0.62695 -1.27735,-0.9668 -0.63867,-0.26367 -1.74023,-0.30468 l 1.52343,-3.0879 2.84766,0 z" /><path
         id="path9147"
         style="font-size:12px"
         d="m 191.7229,-773.95837 q 0,-1.35938 0.41016,-2.33789 0.41015,-0.98438 1.08984,-1.46485 0.52734,-0.38086 1.08984,-0.38086 0.91407,0 1.64063,0.93164 0.9082,1.1543 0.9082,3.12891 0,1.38281 -0.39844,2.34961 -0.39843,0.9668 -1.01953,1.40625 -0.61523,0.43359 -1.18945,0.43359 -1.13672,0 -1.89258,-1.34179 -0.63867,-1.13086 -0.63867,-2.72461 z m 1.14844,0.14648 q 0,1.64063 0.40429,2.67773 0.33399,0.87305 0.9961,0.87305 0.3164,0 0.65625,-0.28125 0.33984,-0.28711 0.51562,-0.95508 0.26953,-1.00781 0.26953,-2.84179 0,-1.35938 -0.28125,-2.26758 -0.21093,-0.67383 -0.54492,-0.95508 -0.24023,-0.19336 -0.58008,-0.19336 -0.39843,0 -0.70898,0.35742 -0.42187,0.48633 -0.57422,1.5293 -0.15234,1.04297 -0.15234,2.05664 z" /><path
         id="path9149"
         style="font-size:12px"
         d="m 199.22876,-774.42126 q 0.94336,-1.13672 1.79883,-1.13672 0.43945,0 0.75586,0.22265 0.3164,0.2168 0.5039,0.72071 0.12891,0.35156 0.12891,1.07812 l 0,2.29102 q 0,0.50976 0.082,0.6914 0.0644,0.14649 0.20508,0.22852 0.14648,0.082 0.5332,0.082 l 0,0.21094 -2.65429,0 0,-0.21094 0.11132,0 q 0.375,0 0.52149,-0.11133 0.15234,-0.11719 0.21094,-0.33984 0.0234,-0.0879 0.0234,-0.55078 l 0,-2.19727 q 0,-0.73242 -0.19336,-1.06055 -0.1875,-0.33398 -0.63867,-0.33398 -0.69726,0 -1.38867,0.76172 l 0,2.83008 q 0,0.54492 0.0644,0.67382 0.082,0.16993 0.22266,0.25196 0.14648,0.0762 0.58594,0.0762 l 0,0.21094 -2.6543,0 0,-0.21094 0.11719,0 q 0.41015,0 0.55078,-0.20508 0.14648,-0.21094 0.14648,-0.79687 l 0,-1.99219 q 0,-0.9668 -0.0469,-1.17774 -0.041,-0.21093 -0.13477,-0.2871 -0.0879,-0.0762 -0.24023,-0.0762 -0.16406,0 -0.39258,0.0879 l -0.0879,-0.21093 1.61719,-0.65625 0.25195,0 0,1.13672 z" /><path
         id="path9151"
         style="font-size:12px"
         d="m 207.13306,-775.55798 0,1.82812 -0.19336,0 q -0.22266,-0.86133 -0.57422,-1.17187 -0.3457,-0.31055 -0.88477,-0.31055 -0.41015,0 -0.66211,0.2168 -0.25195,0.21679 -0.25195,0.48047 0,0.32812 0.1875,0.5625 0.18164,0.24023 0.73828,0.50976 l 0.85547,0.41602 q 1.18945,0.58007 1.18945,1.52929 0,0.73243 -0.55664,1.1836 -0.55078,0.44531 -1.23633,0.44531 -0.49218,0 -1.125,-0.17578 -0.19335,-0.0586 -0.3164,-0.0586 -0.13477,0 -0.21094,0.15235 l -0.19336,0 0,-1.91602 0.19336,0 q 0.16406,0.82032 0.62695,1.23633 0.46289,0.41602 1.03711,0.41602 0.4043,0 0.65625,-0.23438 0.25782,-0.24023 0.25782,-0.57422 0,-0.40429 -0.28711,-0.67968 -0.28125,-0.2754 -1.13086,-0.69727 -0.84961,-0.42188 -1.11328,-0.76172 -0.26368,-0.33398 -0.26368,-0.84375 0,-0.66211 0.45118,-1.10742 0.45703,-0.44531 1.17773,-0.44531 0.31641,0 0.76758,0.13476 0.29883,0.0879 0.39844,0.0879 0.0937,0 0.14648,-0.041 0.0527,-0.041 0.12305,-0.18164 l 0.19336,0 z" /></g><path
       id="path4683"
       d="m 105.45743,686.04536 67.35342,0"
       style="fill:none;fill-rule:evenodd;stroke:#000000;stroke-width:0.80000001;stroke-linecap:butt;stroke-linejoin:miter;stroke-miterlimit:4;stroke-dasharray:0.8, 0.8;stroke-dashoffset:0;stroke-opacity:1;marker-start:url(#Arrow2Mstart);marker-end:url(#marker4857)" /><path
       id="path4683-6"
       d="m 159.11112,785.36536 67.35342,0"
       style="fill:none;fill-rule:evenodd;stroke:#000000;stroke-width:0.80000001;stroke-linecap:butt;stroke-linejoin:miter;stroke-miterlimit:4;stroke-dasharray:0.8, 0.8;stroke-dashoffset:0;stroke-opacity:1;marker-start:url(#Arrow2Mstart-7);marker-end:url(#marker4857-3)" /><path
       id="path4683-6-7"
       d="m 105.46863,756.73096 49.9136,0"
       style="fill:none;fill-rule:evenodd;stroke:#000000;stroke-width:0.80000001;stroke-linecap:butt;stroke-linejoin:miter;stroke-miterlimit:4;stroke-dasharray:0.8, 0.8;stroke-dashoffset:0;stroke-opacity:1;marker-start:url(#Arrow2Mstart-7-2);marker-end:url(#marker4857-3-1)" /><path
       id="path4683-6-7-0"
       d="m 176.7909,713.72536 49.9136,0"
       style="fill:none;fill-rule:evenodd;stroke:#000000;stroke-width:0.80000001;stroke-linecap:butt;stroke-linejoin:miter;stroke-miterlimit:4;stroke-dasharray:0.8, 0.8;stroke-dashoffset:0;stroke-opacity:1;marker-start:url(#Arrow2Mstart-7-2-0);marker-end:url(#marker4857-3-1-3)" /><g
       id="text8620"
       style="font-style:normal;font-weight:normal;font-size:32px;line-height:125%;font-family:sans-serif;letter-spacing:0px;word-spacing:0px;fill:#000000;fill-opacity:1;stroke:none;stroke-width:1px;stroke-linecap:butt;stroke-linejoin:miter;stroke-opacity:1"
       transform="scale(1,-1)"><path
         id="path9120"
         style="font-style:normal;font-variant:normal;font-weight:normal;font-stretch:normal;font-family:'Times New Roman';-inkscape-font-specification:'Times New Roman, '"
         d="m 107.01381,-751.94714 0,3.27148 q 0.54199,-0.5957 0.85937,-0.76172 0.31739,-0.1709 0.63477,-0.1709 0.38086,0 0.6543,0.20996 0.27343,0.20997 0.40527,0.65918 0.0928,0.3125 0.0928,1.14258 l 0,1.58203 q 0,0.42481 0.0684,0.58106 0.0488,0.11719 0.16602,0.18555 0.11719,0.0684 0.42969,0.0684 l 0,0.17579 -2.19727,0 0,-0.17579 0.10254,0 q 0.3125,0 0.43457,-0.0928 0.12207,-0.0977 0.1709,-0.2832 0.0147,-0.0781 0.0147,-0.45899 l 0,-1.58203 q 0,-0.73242 -0.0781,-0.96191 -0.0732,-0.22949 -0.23926,-0.3418 -0.16601,-0.11719 -0.40039,-0.11719 -0.23925,0 -0.49804,0.12696 -0.25879,0.12695 -0.62012,0.51269 l 0,2.36328 q 0,0.45899 0.0488,0.57129 0.0537,0.11231 0.19043,0.19043 0.1416,0.0732 0.4834,0.0732 l 0,0.17579 -2.2168,0 0,-0.17579 q 0.29785,0 0.46875,-0.0928 0.0977,-0.0488 0.15625,-0.18555 0.0586,-0.13671 0.0586,-0.55664 l 0,-4.04785 q 0,-0.7666 -0.0391,-0.94238 -0.0342,-0.17578 -0.1123,-0.23926 -0.0733,-0.0635 -0.2002,-0.0635 -0.10254,0 -0.33203,0.0781 l -0.0684,-0.1709 1.33789,-0.54687 0.22461,0 z" /><path
         id="path9122"
         style="font-style:normal;font-variant:normal;font-weight:normal;font-stretch:normal;font-family:'Times New Roman';-inkscape-font-specification:'Times New Roman, '"
         d="m 111.83803,-751.94714 q 0.20508,0 0.34668,0.14648 0.14648,0.1416 0.14648,0.34668 0,0.20508 -0.14648,0.35156 -0.1416,0.14649 -0.34668,0.14649 -0.20508,0 -0.35156,-0.14649 -0.14649,-0.14648 -0.14649,-0.35156 0,-0.20508 0.1416,-0.34668 0.14649,-0.14648 0.35645,-0.14648 z m 0.40527,2.33886 0,3.59375 q 0,0.41993 0.0586,0.56153 0.0635,0.13672 0.18066,0.20508 0.12207,0.0684 0.43945,0.0684 l 0,0.17579 -2.17285,0 0,-0.17579 q 0.32715,0 0.43945,-0.0635 0.11231,-0.0635 0.17579,-0.20996 0.0683,-0.14649 0.0683,-0.56153 l 0,-1.72363 q 0,-0.72754 -0.0439,-0.94238 -0.0342,-0.15625 -0.10742,-0.21485 -0.0732,-0.0635 -0.2002,-0.0635 -0.13672,0 -0.33203,0.0732 l -0.0684,-0.17578 1.34766,-0.54688 0.21484,0 z" /><path
         id="path9124"
         style="font-style:normal;font-variant:normal;font-weight:normal;font-stretch:normal;font-family:'Times New Roman';-inkscape-font-specification:'Times New Roman, '"
         d="m 114.67006,-746.63464 q -0.41016,-0.2002 -0.62988,-0.55664 -0.21973,-0.36133 -0.21973,-0.7959 0,-0.66407 0.49805,-1.14258 0.50293,-0.47852 1.28418,-0.47852 0.63964,0 1.10839,0.3125 l 0.94727,0 q 0.20996,0 0.24414,0.0147 0.0342,0.01 0.0488,0.0391 0.0293,0.0439 0.0293,0.15625 0,0.12696 -0.0244,0.17579 -0.0147,0.0244 -0.0537,0.0391 -0.0342,0.0147 -0.24414,0.0147 l -0.58105,0 q 0.27343,0.35156 0.27343,0.89843 0,0.625 -0.47851,1.06934 -0.47852,0.44434 -1.28418,0.44434 -0.33203,0 -0.67871,-0.0977 -0.21485,0.18555 -0.29297,0.32715 -0.0732,0.13672 -0.0732,0.23437 0,0.083 0.0781,0.16114 0.083,0.0781 0.31738,0.1123 0.13672,0.0195 0.6836,0.0342 1.00586,0.0244 1.30371,0.0684 0.4541,0.0635 0.72265,0.33691 0.27344,0.27344 0.27344,0.67383 0,0.55176 -0.51758,1.03516 -0.76171,0.71289 -1.9873,0.71289 -0.94238,0 -1.5918,-0.42481 -0.36621,-0.24414 -0.36621,-0.50781 0,-0.11719 0.0537,-0.23437 0.083,-0.18067 0.3418,-0.50293 0.0342,-0.0439 0.49805,-0.52735 -0.25391,-0.15136 -0.36133,-0.26855 -0.10254,-0.12207 -0.10254,-0.27344 0,-0.1709 0.13672,-0.40039 0.1416,-0.22949 0.64453,-0.64941 z m 0.84961,-2.73926 q -0.36133,0 -0.60547,0.28808 -0.24414,0.28809 -0.24414,0.88379 0,0.77149 0.33203,1.19629 0.25391,0.32227 0.64453,0.32227 0.3711,0 0.61035,-0.27832 0.23926,-0.27832 0.23926,-0.87403 0,-0.77636 -0.33691,-1.21582 -0.24903,-0.32226 -0.63965,-0.32226 z m -0.89844,4.37012 q -0.22949,0.24902 -0.34668,0.46386 -0.11719,0.21485 -0.11719,0.39551 0,0.23438 0.28321,0.41016 0.48828,0.30273 1.41113,0.30273 0.87891,0 1.29395,-0.3125 0.41992,-0.30762 0.41992,-0.65918 0,-0.2539 -0.24903,-0.36133 -0.2539,-0.10742 -1.00586,-0.12695 -1.09863,-0.0293 -1.68945,-0.1123 z" /><path
         id="path9126"
         style="font-style:normal;font-variant:normal;font-weight:normal;font-stretch:normal;font-family:'Times New Roman';-inkscape-font-specification:'Times New Roman, '"
         d="m 119.78725,-751.94714 0,3.27148 q 0.54199,-0.5957 0.85937,-0.76172 0.31738,-0.1709 0.63477,-0.1709 0.38086,0 0.65429,0.20996 0.27344,0.20997 0.40528,0.65918 0.0928,0.3125 0.0928,1.14258 l 0,1.58203 q 0,0.42481 0.0684,0.58106 0.0488,0.11719 0.16602,0.18555 0.11718,0.0684 0.42968,0.0684 l 0,0.17579 -2.19726,0 0,-0.17579 0.10254,0 q 0.3125,0 0.43457,-0.0928 0.12207,-0.0977 0.1709,-0.2832 0.0146,-0.0781 0.0146,-0.45899 l 0,-1.58203 q 0,-0.73242 -0.0781,-0.96191 -0.0732,-0.22949 -0.23926,-0.3418 -0.16601,-0.11719 -0.40039,-0.11719 -0.23926,0 -0.49805,0.12696 -0.25879,0.12695 -0.62011,0.51269 l 0,2.36328 q 0,0.45899 0.0488,0.57129 0.0537,0.11231 0.19043,0.19043 0.14161,0.0732 0.4834,0.0732 l 0,0.17579 -2.21679,0 0,-0.17579 q 0.29785,0 0.46875,-0.0928 0.0977,-0.0488 0.15625,-0.18555 0.0586,-0.13671 0.0586,-0.55664 l 0,-4.04785 q 0,-0.7666 -0.0391,-0.94238 -0.0342,-0.17578 -0.11231,-0.23926 -0.0732,-0.0635 -0.20019,-0.0635 -0.10254,0 -0.33203,0.0781 l -0.0684,-0.1709 1.33789,-0.54687 0.22461,0 z" /><path
         id="path9128"
         style="font-style:normal;font-variant:normal;font-weight:normal;font-stretch:normal;font-family:'Times New Roman';-inkscape-font-specification:'Times New Roman, '"
         d="m 125.74428,-749.47644 2.10449,0 0,0.18066 -0.13672,0 q -0.19043,0 -0.29297,0.0928 -0.0976,0.0928 -0.0976,0.24902 0,0.1709 0.10254,0.40527 l 1.04003,2.47071 1.04493,-2.56348 q 0.1123,-0.27344 0.1123,-0.41504 0,-0.0684 -0.0391,-0.1123 -0.0537,-0.0733 -0.13672,-0.0977 -0.083,-0.0293 -0.33691,-0.0293 l 0,-0.18066 1.45996,0 0,0.18066 q -0.25391,0.0195 -0.35157,0.10254 -0.17089,0.14649 -0.30761,0.48828 l -1.58692,3.83789 -0.20019,0 -1.59668,-3.77441 q -0.10742,-0.26367 -0.20508,-0.37598 -0.0977,-0.11718 -0.24902,-0.19531 -0.083,-0.0439 -0.32715,-0.083 l 0,-0.18066 z" /><path
         id="path9130"
         style="font-style:normal;font-variant:normal;font-weight:normal;font-stretch:normal;font-family:'Times New Roman';-inkscape-font-specification:'Times New Roman, '"
         d="m 133.16127,-749.60828 q 1.01563,0 1.63086,0.77149 0.52246,0.65918 0.52246,1.51367 0,0.60059 -0.28809,1.21582 -0.28808,0.61523 -0.79589,0.92773 -0.50293,0.3125 -1.12305,0.3125 -1.01074,0 -1.60645,-0.80566 -0.50293,-0.67871 -0.50293,-1.52344 0,-0.61523 0.30274,-1.2207 0.30762,-0.61035 0.80566,-0.89844 0.49805,-0.29297 1.05469,-0.29297 z m -0.15137,0.31739 q -0.25879,0 -0.52246,0.15625 -0.25879,0.15136 -0.41992,0.53711 -0.16113,0.38574 -0.16113,0.99121 0,0.97656 0.38574,1.68457 0.39062,0.708 1.02539,0.708 0.47363,0 0.78125,-0.39062 0.30762,-0.39063 0.30762,-1.34277 0,-1.19141 -0.5127,-1.875 -0.34668,-0.46875 -0.88379,-0.46875 z" /><path
         id="path9132"
         style="font-style:normal;font-variant:normal;font-weight:normal;font-stretch:normal;font-family:'Times New Roman';-inkscape-font-specification:'Times New Roman, '"
         d="m 137.51186,-751.94714 0,5.93261 q 0,0.41993 0.0586,0.55664 0.0635,0.13672 0.19043,0.20997 0.12695,0.0684 0.47363,0.0684 l 0,0.17579 -2.19238,0 0,-0.17579 q 0.30762,0 0.41992,-0.0635 0.11231,-0.0635 0.17578,-0.20996 0.0635,-0.14649 0.0635,-0.56153 l 0,-4.0625 q 0,-0.75683 -0.0342,-0.92773 -0.0342,-0.17578 -0.11231,-0.23926 -0.0732,-0.0635 -0.19042,-0.0635 -0.12696,0 -0.32227,0.0781 l -0.083,-0.1709 1.33301,-0.54687 0.21973,0 z" /><path
         id="path9134"
         style="font-style:normal;font-variant:normal;font-weight:normal;font-stretch:normal;font-family:'Times New Roman';-inkscape-font-specification:'Times New Roman, '"
         d="m 140.04604,-750.94617 0,1.46973 1.04492,0 0,0.3418 -1.04492,0 0,2.90039 q 0,0.43457 0.12207,0.58593 0.12695,0.15137 0.32226,0.15137 0.16113,0 0.3125,-0.0977 0.15137,-0.10254 0.23438,-0.29786 l 0.19043,0 q -0.1709,0.47852 -0.4834,0.72266 -0.3125,0.23926 -0.64453,0.23926 -0.22461,0 -0.43946,-0.12207 -0.21484,-0.12696 -0.31738,-0.35645 -0.10254,-0.23437 -0.10254,-0.71777 l 0,-3.00781 -0.70801,0 0,-0.16114 q 0.26856,-0.10742 0.54688,-0.36132 0.2832,-0.25879 0.50293,-0.61036 0.1123,-0.18554 0.3125,-0.67871 l 0.15137,0 z" /><path
         id="path9136"
         style="font-style:normal;font-variant:normal;font-weight:normal;font-stretch:normal;font-family:'Times New Roman';-inkscape-font-specification:'Times New Roman, '"
         d="m 144.05482,-745.64832 q -0.68847,0.53223 -0.86425,0.61524 -0.26367,0.12207 -0.56153,0.12207 -0.46386,0 -0.7666,-0.31738 -0.29785,-0.31739 -0.29785,-0.83496 0,-0.32715 0.14648,-0.56641 0.2002,-0.33203 0.69336,-0.625 0.49805,-0.29297 1.65039,-0.71289 l 0,-0.17578 q 0,-0.66895 -0.21484,-0.91797 -0.20996,-0.24902 -0.61523,-0.24902 -0.30762,0 -0.48828,0.16601 -0.18555,0.16602 -0.18555,0.38086 l 0.01,0.2832 q 0,0.22461 -0.11718,0.34668 -0.11231,0.12207 -0.29785,0.12207 -0.18067,0 -0.29786,-0.12695 -0.1123,-0.12695 -0.1123,-0.34668 0,-0.41992 0.42969,-0.77148 0.42968,-0.35157 1.20605,-0.35157 0.5957,0 0.97656,0.2002 0.28809,0.15137 0.42481,0.47363 0.0879,0.20996 0.0879,0.85938 l 0,1.51855 q 0,0.63965 0.0244,0.78613 0.0244,0.14161 0.0781,0.19043 0.0586,0.0488 0.13183,0.0488 0.0781,0 0.13672,-0.0342 0.10254,-0.0635 0.39551,-0.35644 l 0,0.27343 q -0.54687,0.73243 -1.04492,0.73243 -0.23926,0 -0.38086,-0.16602 -0.1416,-0.16601 -0.14649,-0.56641 z m 0,-0.31738 0,-1.7041 q -0.7373,0.29297 -0.95214,0.41504 -0.38575,0.21484 -0.55176,0.44922 -0.16602,0.23437 -0.16602,0.51269 0,0.35157 0.20996,0.58594 0.20996,0.22949 0.4834,0.22949 0.3711,0 0.97656,-0.48828 z" /><path
         id="path9138"
         style="font-style:normal;font-variant:normal;font-weight:normal;font-stretch:normal;font-family:'Times New Roman';-inkscape-font-specification:'Times New Roman, '"
         d="m 147.15053,-746.63464 q -0.41016,-0.2002 -0.62988,-0.55664 -0.21973,-0.36133 -0.21973,-0.7959 0,-0.66407 0.49805,-1.14258 0.50293,-0.47852 1.28418,-0.47852 0.63964,0 1.10839,0.3125 l 0.94727,0 q 0.20996,0 0.24414,0.0147 0.0342,0.01 0.0488,0.0391 0.0293,0.0439 0.0293,0.15625 0,0.12696 -0.0244,0.17579 -0.0146,0.0244 -0.0537,0.0391 -0.0342,0.0147 -0.24414,0.0147 l -0.58106,0 q 0.27344,0.35156 0.27344,0.89843 0,0.625 -0.47851,1.06934 -0.47852,0.44434 -1.28418,0.44434 -0.33203,0 -0.67871,-0.0977 -0.21485,0.18555 -0.29297,0.32715 -0.0733,0.13672 -0.0733,0.23437 0,0.083 0.0781,0.16114 0.083,0.0781 0.31738,0.1123 0.13672,0.0195 0.6836,0.0342 1.00586,0.0244 1.30371,0.0684 0.4541,0.0635 0.72265,0.33691 0.27344,0.27344 0.27344,0.67383 0,0.55176 -0.51758,1.03516 -0.76172,0.71289 -1.9873,0.71289 -0.94238,0 -1.5918,-0.42481 -0.36621,-0.24414 -0.36621,-0.50781 0,-0.11719 0.0537,-0.23437 0.083,-0.18067 0.3418,-0.50293 0.0342,-0.0439 0.49805,-0.52735 -0.25391,-0.15136 -0.36133,-0.26855 -0.10254,-0.12207 -0.10254,-0.27344 0,-0.1709 0.13672,-0.40039 0.1416,-0.22949 0.64453,-0.64941 z m 0.84961,-2.73926 q -0.36133,0 -0.60547,0.28808 -0.24414,0.28809 -0.24414,0.88379 0,0.77149 0.33203,1.19629 0.25391,0.32227 0.64453,0.32227 0.37109,0 0.61035,-0.27832 0.23926,-0.27832 0.23926,-0.87403 0,-0.77636 -0.33691,-1.21582 -0.24903,-0.32226 -0.63965,-0.32226 z m -0.89844,4.37012 q -0.22949,0.24902 -0.34668,0.46386 -0.11719,0.21485 -0.11719,0.39551 0,0.23438 0.28321,0.41016 0.48828,0.30273 1.41113,0.30273 0.8789,0 1.29394,-0.3125 0.41993,-0.30762 0.41993,-0.65918 0,-0.2539 -0.24903,-0.36133 -0.2539,-0.10742 -1.00586,-0.12695 -1.09863,-0.0293 -1.68945,-0.1123 z" /><path
         id="path9140"
         style="font-style:normal;font-variant:normal;font-weight:normal;font-stretch:normal;font-family:'Times New Roman';-inkscape-font-specification:'Times New Roman, '"
         d="m 151.70619,-747.79187 q -0.005,0.99609 0.4834,1.5625 0.48828,0.56641 1.14746,0.56641 0.43945,0 0.76172,-0.23926 0.32715,-0.24414 0.54688,-0.83008 l 0.15136,0.0977 q -0.10254,0.66894 -0.5957,1.2207 -0.49316,0.54687 -1.23535,0.54687 -0.80567,0 -1.38184,-0.625 -0.57129,-0.62988 -0.57129,-1.68945 0,-1.14746 0.58594,-1.78711 0.59082,-0.64453 1.47949,-0.64453 0.75196,0 1.23535,0.49805 0.4834,0.49316 0.4834,1.32324 l -3.09082,0 z m 0,-0.2832 2.07031,0 q -0.0244,-0.42969 -0.10253,-0.60547 -0.12207,-0.27344 -0.36622,-0.42969 -0.23925,-0.15625 -0.50293,-0.15625 -0.40527,0 -0.72753,0.31738 -0.31739,0.3125 -0.3711,0.87403 z" /></g><g
       id="text8620-6"
       style="font-style:normal;font-weight:normal;font-size:32px;line-height:125%;font-family:sans-serif;letter-spacing:0px;word-spacing:0px;fill:#000000;fill-opacity:1;stroke:none;stroke-width:1px;stroke-linecap:butt;stroke-linejoin:miter;stroke-opacity:1"
       transform="scale(1,-1)"><path
         id="path9097"
         style="font-style:normal;font-variant:normal;font-weight:normal;font-stretch:normal;font-family:'Times New Roman';-inkscape-font-specification:'Times New Roman, '"
         d="m 115.07748,-681.54712 0,3.27149 q 0.54199,-0.59571 0.85937,-0.76172 0.31738,-0.1709 0.63477,-0.1709 0.38086,0 0.65429,0.20996 0.27344,0.20996 0.40528,0.65918 0.0928,0.3125 0.0928,1.14258 l 0,1.58203 q 0,0.4248 0.0684,0.58105 0.0488,0.11719 0.16602,0.18555 0.11718,0.0684 0.42968,0.0684 l 0,0.17578 -2.19726,0 0,-0.17578 0.10254,0 q 0.3125,0 0.43457,-0.0928 0.12207,-0.0977 0.1709,-0.28321 0.0146,-0.0781 0.0146,-0.45898 l 0,-1.58203 q 0,-0.73243 -0.0781,-0.96192 -0.0732,-0.22949 -0.23926,-0.34179 -0.16601,-0.11719 -0.40039,-0.11719 -0.23926,0 -0.49805,0.12695 -0.25879,0.12695 -0.62011,0.5127 l 0,2.36328 q 0,0.45898 0.0488,0.57129 0.0537,0.1123 0.19043,0.19043 0.14161,0.0732 0.4834,0.0732 l 0,0.17578 -2.21679,0 0,-0.17578 q 0.29785,0 0.46875,-0.0928 0.0976,-0.0488 0.15625,-0.18555 0.0586,-0.13672 0.0586,-0.55664 l 0,-4.04785 q 0,-0.76661 -0.0391,-0.94239 -0.0342,-0.17578 -0.11231,-0.23925 -0.0732,-0.0635 -0.20019,-0.0635 -0.10254,0 -0.33203,0.0781 l -0.0684,-0.17089 1.33789,-0.54688 0.22461,0 z" /><path
         id="path9099"
         style="font-style:normal;font-variant:normal;font-weight:normal;font-stretch:normal;font-family:'Times New Roman';-inkscape-font-specification:'Times New Roman, '"
         d="m 119.9017,-681.54712 q 0.20507,0 0.34667,0.14649 0.14649,0.1416 0.14649,0.34667 0,0.20508 -0.14649,0.35157 -0.1416,0.14648 -0.34667,0.14648 -0.20508,0 -0.35157,-0.14648 -0.14648,-0.14649 -0.14648,-0.35157 0,-0.20507 0.1416,-0.34667 0.14648,-0.14649 0.35645,-0.14649 z m 0.40527,2.33887 0,3.59375 q 0,0.41992 0.0586,0.56152 0.0635,0.13672 0.18067,0.20508 0.12207,0.0684 0.43945,0.0684 l 0,0.17578 -2.17285,0 0,-0.17578 q 0.32715,0 0.43945,-0.0635 0.11231,-0.0635 0.17578,-0.20996 0.0684,-0.14648 0.0684,-0.56152 l 0,-1.72363 q 0,-0.72754 -0.0439,-0.94239 -0.0342,-0.15625 -0.10743,-0.21484 -0.0732,-0.0635 -0.20019,-0.0635 -0.13672,0 -0.33203,0.0732 l -0.0684,-0.17578 1.34765,-0.54687 0.21485,0 z" /><path
         id="path9101"
         style="font-style:normal;font-variant:normal;font-weight:normal;font-stretch:normal;font-family:'Times New Roman';-inkscape-font-specification:'Times New Roman, '"
         d="m 122.73373,-676.23462 q -0.41016,-0.20019 -0.62989,-0.55664 -0.21972,-0.36133 -0.21972,-0.7959 0,-0.66406 0.49804,-1.14258 0.50293,-0.47851 1.28418,-0.47851 0.63965,0 1.1084,0.3125 l 0.94727,0 q 0.20996,0 0.24414,0.0147 0.0342,0.01 0.0488,0.0391 0.0293,0.0439 0.0293,0.15625 0,0.12695 -0.0244,0.17578 -0.0146,0.0244 -0.0537,0.0391 -0.0342,0.0146 -0.24414,0.0146 l -0.58106,0 q 0.27344,0.35156 0.27344,0.89844 0,0.625 -0.47852,1.06933 -0.47851,0.44434 -1.28417,0.44434 -0.33204,0 -0.67872,-0.0977 -0.21484,0.18555 -0.29296,0.32715 -0.0733,0.13672 -0.0733,0.23438 0,0.083 0.0781,0.16113 0.083,0.0781 0.31738,0.11231 0.13672,0.0195 0.68359,0.0342 1.00586,0.0244 1.30372,0.0684 0.4541,0.0635 0.72265,0.33692 0.27344,0.27344 0.27344,0.67383 0,0.55175 -0.51758,1.03515 -0.76172,0.71289 -1.9873,0.71289 -0.94239,0 -1.5918,-0.4248 -0.36621,-0.24414 -0.36621,-0.50781 0,-0.11719 0.0537,-0.23438 0.083,-0.18066 0.3418,-0.50293 0.0342,-0.0439 0.49804,-0.52734 -0.2539,-0.15137 -0.36132,-0.26856 -0.10254,-0.12207 -0.10254,-0.27343 0,-0.1709 0.13672,-0.4004 0.1416,-0.22949 0.64453,-0.64941 z m 0.84961,-2.73926 q -0.36133,0 -0.60547,0.28809 -0.24414,0.28808 -0.24414,0.88379 0,0.77148 0.33203,1.19629 0.2539,0.32226 0.64453,0.32226 0.37109,0 0.61035,-0.27832 0.23926,-0.27832 0.23926,-0.87402 0,-0.77637 -0.33692,-1.21582 -0.24902,-0.32227 -0.63964,-0.32227 z m -0.89844,4.37012 q -0.22949,0.24902 -0.34668,0.46387 -0.11719,0.21484 -0.11719,0.39551 0,0.23437 0.2832,0.41015 0.48829,0.30274 1.41114,0.30274 0.8789,0 1.29394,-0.3125 0.41992,-0.30762 0.41992,-0.65918 0,-0.25391 -0.24902,-0.36133 -0.25391,-0.10742 -1.00586,-0.12696 -1.09863,-0.0293 -1.68945,-0.1123 z" /><path
         id="path9103"
         style="font-style:normal;font-variant:normal;font-weight:normal;font-stretch:normal;font-family:'Times New Roman';-inkscape-font-specification:'Times New Roman, '"
         d="m 127.85091,-681.54712 0,3.27149 q 0.542,-0.59571 0.85938,-0.76172 0.31738,-0.1709 0.63476,-0.1709 0.38086,0 0.6543,0.20996 0.27344,0.20996 0.40527,0.65918 0.0928,0.3125 0.0928,1.14258 l 0,1.58203 q 0,0.4248 0.0684,0.58105 0.0488,0.11719 0.16601,0.18555 0.11719,0.0684 0.42969,0.0684 l 0,0.17578 -2.19726,0 0,-0.17578 0.10253,0 q 0.3125,0 0.43457,-0.0928 0.12207,-0.0977 0.1709,-0.28321 0.0146,-0.0781 0.0146,-0.45898 l 0,-1.58203 q 0,-0.73243 -0.0781,-0.96192 -0.0733,-0.22949 -0.23926,-0.34179 -0.16602,-0.11719 -0.40039,-0.11719 -0.23926,0 -0.49805,0.12695 -0.25879,0.12695 -0.62012,0.5127 l 0,2.36328 q 0,0.45898 0.0488,0.57129 0.0537,0.1123 0.19043,0.19043 0.1416,0.0732 0.4834,0.0732 l 0,0.17578 -2.2168,0 0,-0.17578 q 0.29785,0 0.46875,-0.0928 0.0977,-0.0488 0.15625,-0.18555 0.0586,-0.13672 0.0586,-0.55664 l 0,-4.04785 q 0,-0.76661 -0.0391,-0.94239 -0.0342,-0.17578 -0.1123,-0.23925 -0.0732,-0.0635 -0.2002,-0.0635 -0.10253,0 -0.33203,0.0781 l -0.0684,-0.17089 1.33789,-0.54688 0.22461,0 z" /><path
         id="path9105"
         style="font-style:normal;font-variant:normal;font-weight:normal;font-stretch:normal;font-family:'Times New Roman';-inkscape-font-specification:'Times New Roman, '"
         d="m 133.80795,-679.07642 2.10449,0 0,0.18067 -0.13672,0 q -0.19043,0 -0.29297,0.0928 -0.0977,0.0928 -0.0977,0.24902 0,0.1709 0.10254,0.40528 l 1.04004,2.4707 1.04492,-2.56348 q 0.11231,-0.27343 0.11231,-0.41503 0,-0.0684 -0.0391,-0.11231 -0.0537,-0.0732 -0.13672,-0.0977 -0.083,-0.0293 -0.33692,-0.0293 l 0,-0.18067 1.45996,0 0,0.18067 q -0.2539,0.0195 -0.35156,0.10254 -0.1709,0.14648 -0.30762,0.48828 l -1.58691,3.83789 -0.2002,0 -1.59667,-3.77442 q -0.10743,-0.26367 -0.20508,-0.37597 -0.0977,-0.11719 -0.24903,-0.19531 -0.083,-0.0439 -0.32714,-0.083 l 0,-0.18067 z" /><path
         id="path9107"
         style="font-style:normal;font-variant:normal;font-weight:normal;font-stretch:normal;font-family:'Times New Roman';-inkscape-font-specification:'Times New Roman, '"
         d="m 141.22494,-679.20825 q 1.01562,0 1.63086,0.77148 0.52246,0.65918 0.52246,1.51367 0,0.60059 -0.28809,1.21582 -0.28808,0.61524 -0.7959,0.92774 -0.50293,0.3125 -1.12304,0.3125 -1.01075,0 -1.60645,-0.80567 -0.50293,-0.67871 -0.50293,-1.52343 0,-0.61524 0.30274,-1.22071 0.30761,-0.61035 0.80566,-0.89843 0.49805,-0.29297 1.05469,-0.29297 z m -0.15137,0.31738 q -0.25879,0 -0.52246,0.15625 -0.25879,0.15137 -0.41992,0.53711 -0.16114,0.38574 -0.16114,0.99121 0,0.97656 0.38575,1.68457 0.39062,0.70801 1.02539,0.70801 0.47363,0 0.78125,-0.39063 0.30761,-0.39062 0.30761,-1.34277 0,-1.19141 -0.51269,-1.875 -0.34668,-0.46875 -0.88379,-0.46875 z" /><path
         id="path9109"
         style="font-style:normal;font-variant:normal;font-weight:normal;font-stretch:normal;font-family:'Times New Roman';-inkscape-font-specification:'Times New Roman, '"
         d="m 145.57552,-681.54712 0,5.93262 q 0,0.41992 0.0586,0.55664 0.0635,0.13672 0.19043,0.20996 0.12695,0.0684 0.47363,0.0684 l 0,0.17578 -2.19238,0 0,-0.17578 q 0.30761,0 0.41992,-0.0635 0.1123,-0.0635 0.17578,-0.20996 0.0635,-0.14648 0.0635,-0.56152 l 0,-4.0625 q 0,-0.75684 -0.0342,-0.92774 -0.0342,-0.17578 -0.11231,-0.23925 -0.0732,-0.0635 -0.19043,-0.0635 -0.12695,0 -0.32226,0.0781 l -0.083,-0.17089 1.33301,-0.54688 0.21972,0 z" /><path
         id="path9111"
         style="font-style:normal;font-variant:normal;font-weight:normal;font-stretch:normal;font-family:'Times New Roman';-inkscape-font-specification:'Times New Roman, '"
         d="m 148.1097,-680.54614 0,1.46972 1.04492,0 0,0.3418 -1.04492,0 0,2.90039 q 0,0.43457 0.12207,0.58594 0.12696,0.15137 0.32227,0.15137 0.16113,0 0.3125,-0.0977 0.15137,-0.10254 0.23437,-0.29785 l 0.19043,0 q -0.17089,0.47851 -0.48339,0.72265 -0.3125,0.23926 -0.64454,0.23926 -0.22461,0 -0.43945,-0.12207 -0.21484,-0.12695 -0.31738,-0.35644 -0.10254,-0.23438 -0.10254,-0.71778 l 0,-3.00781 -0.70801,0 0,-0.16113 q 0.26856,-0.10742 0.54688,-0.36133 0.2832,-0.25879 0.50293,-0.61035 0.1123,-0.18555 0.3125,-0.67871 l 0.15136,0 z" /><path
         id="path9113"
         style="font-style:normal;font-variant:normal;font-weight:normal;font-stretch:normal;font-family:'Times New Roman';-inkscape-font-specification:'Times New Roman, '"
         d="m 152.11849,-675.24829 q -0.68847,0.53223 -0.86426,0.61523 -0.26367,0.12207 -0.56152,0.12207 -0.46387,0 -0.7666,-0.31738 -0.29785,-0.31738 -0.29785,-0.83496 0,-0.32715 0.14648,-0.56641 0.2002,-0.33203 0.69336,-0.625 0.49805,-0.29297 1.65039,-0.71289 l 0,-0.17578 q 0,-0.66894 -0.21484,-0.91797 -0.20996,-0.24902 -0.61524,-0.24902 -0.30761,0 -0.48828,0.16602 -0.18554,0.16601 -0.18554,0.38085 l 0.01,0.28321 q 0,0.22461 -0.11719,0.34668 -0.1123,0.12207 -0.29785,0.12207 -0.18066,0 -0.29785,-0.12696 -0.1123,-0.12695 -0.1123,-0.34668 0,-0.41992 0.42968,-0.77148 0.42969,-0.35156 1.20606,-0.35156 0.5957,0 0.97656,0.20019 0.28809,0.15137 0.42481,0.47364 0.0879,0.20996 0.0879,0.85937 l 0,1.51856 q 0,0.63964 0.0244,0.78613 0.0244,0.1416 0.0781,0.19043 0.0586,0.0488 0.13183,0.0488 0.0781,0 0.13672,-0.0342 0.10254,-0.0635 0.39551,-0.35645 l 0,0.27344 q -0.54688,0.73242 -1.04492,0.73242 -0.23926,0 -0.38086,-0.16601 -0.14161,-0.16602 -0.14649,-0.56641 z m 0,-0.31738 0,-1.70411 q -0.7373,0.29297 -0.95215,0.41504 -0.38574,0.21485 -0.55175,0.44922 -0.16602,0.23438 -0.16602,0.5127 0,0.35156 0.20996,0.58594 0.20996,0.22949 0.4834,0.22949 0.37109,0 0.97656,-0.48828 z" /><path
         id="path9115"
         style="font-style:normal;font-variant:normal;font-weight:normal;font-stretch:normal;font-family:'Times New Roman';-inkscape-font-specification:'Times New Roman, '"
         d="m 155.2142,-676.23462 q -0.41016,-0.20019 -0.62989,-0.55664 -0.21972,-0.36133 -0.21972,-0.7959 0,-0.66406 0.49804,-1.14258 0.50293,-0.47851 1.28418,-0.47851 0.63965,0 1.1084,0.3125 l 0.94727,0 q 0.20996,0 0.24414,0.0147 0.0342,0.01 0.0488,0.0391 0.0293,0.0439 0.0293,0.15625 0,0.12695 -0.0244,0.17578 -0.0146,0.0244 -0.0537,0.0391 -0.0342,0.0146 -0.24414,0.0146 l -0.58106,0 q 0.27344,0.35156 0.27344,0.89844 0,0.625 -0.47852,1.06933 -0.47851,0.44434 -1.28418,0.44434 -0.33203,0 -0.67871,-0.0977 -0.21484,0.18555 -0.29297,0.32715 -0.0732,0.13672 -0.0732,0.23438 0,0.083 0.0781,0.16113 0.083,0.0781 0.31738,0.11231 0.13672,0.0195 0.68359,0.0342 1.00586,0.0244 1.30371,0.0684 0.45411,0.0635 0.72266,0.33692 0.27344,0.27344 0.27344,0.67383 0,0.55175 -0.51758,1.03515 -0.76172,0.71289 -1.9873,0.71289 -0.94239,0 -1.5918,-0.4248 -0.36621,-0.24414 -0.36621,-0.50781 0,-0.11719 0.0537,-0.23438 0.083,-0.18066 0.3418,-0.50293 0.0342,-0.0439 0.49804,-0.52734 -0.2539,-0.15137 -0.36133,-0.26856 -0.10253,-0.12207 -0.10253,-0.27343 0,-0.1709 0.13671,-0.4004 0.14161,-0.22949 0.64454,-0.64941 z m 0.8496,-2.73926 q -0.36132,0 -0.60546,0.28809 -0.24414,0.28808 -0.24414,0.88379 0,0.77148 0.33203,1.19629 0.2539,0.32226 0.64453,0.32226 0.37109,0 0.61035,-0.27832 0.23926,-0.27832 0.23926,-0.87402 0,-0.77637 -0.33692,-1.21582 -0.24902,-0.32227 -0.63965,-0.32227 z m -0.89843,4.37012 q -0.2295,0.24902 -0.34668,0.46387 -0.11719,0.21484 -0.11719,0.39551 0,0.23437 0.2832,0.41015 0.48828,0.30274 1.41114,0.30274 0.8789,0 1.29394,-0.3125 0.41992,-0.30762 0.41992,-0.65918 0,-0.25391 -0.24902,-0.36133 -0.25391,-0.10742 -1.00586,-0.12696 -1.09863,-0.0293 -1.68945,-0.1123 z" /><path
         id="path9117"
         style="font-style:normal;font-variant:normal;font-weight:normal;font-stretch:normal;font-family:'Times New Roman';-inkscape-font-specification:'Times New Roman, '"
         d="m 159.76986,-677.39185 q -0.005,0.9961 0.4834,1.5625 0.48828,0.56641 1.14746,0.56641 0.43945,0 0.76172,-0.23926 0.32715,-0.24414 0.54687,-0.83008 l 0.15137,0.0977 q -0.10254,0.66895 -0.5957,1.2207 -0.49317,0.54688 -1.23536,0.54688 -0.80566,0 -1.38183,-0.625 -0.57129,-0.62988 -0.57129,-1.68945 0,-1.14747 0.58594,-1.78711 0.59082,-0.64453 1.47949,-0.64453 0.75195,0 1.23535,0.49804 0.4834,0.49317 0.4834,1.32324 l -3.09082,0 z m 0,-0.2832 2.07031,0 q -0.0244,-0.42969 -0.10254,-0.60547 -0.12207,-0.27344 -0.36621,-0.42969 -0.23926,-0.15625 -0.50293,-0.15625 -0.40527,0 -0.72754,0.31739 -0.31738,0.3125 -0.37109,0.87402 z" /></g><g
       id="text8620-1"
       style="font-style:normal;font-weight:normal;font-size:32px;line-height:125%;font-family:sans-serif;letter-spacing:0px;word-spacing:0px;fill:#000000;fill-opacity:1;stroke:none;stroke-width:1px;stroke-linecap:butt;stroke-linejoin:miter;stroke-opacity:1"
       transform="scale(1,-1)"><path
         id="path9076"
         style="font-style:normal;font-variant:normal;font-weight:normal;font-stretch:normal;font-family:'Times New Roman';-inkscape-font-specification:'Times New Roman, '"
         d="m 180.1021,-681.54712 0,5.93262 q 0,0.41992 0.0586,0.55664 0.0635,0.13672 0.19043,0.20996 0.12695,0.0684 0.47363,0.0684 l 0,0.17578 -2.19238,0 0,-0.17578 q 0.30762,0 0.41992,-0.0635 0.11231,-0.0635 0.17578,-0.20996 0.0635,-0.14648 0.0635,-0.56152 l 0,-4.0625 q 0,-0.75684 -0.0342,-0.92774 -0.0342,-0.17578 -0.1123,-0.23925 -0.0733,-0.0635 -0.19043,-0.0635 -0.12696,0 -0.32227,0.0781 l -0.083,-0.17089 1.33301,-0.54688 0.21973,0 z" /><path
         id="path9078"
         style="font-style:normal;font-variant:normal;font-weight:normal;font-stretch:normal;font-family:'Times New Roman';-inkscape-font-specification:'Times New Roman, '"
         d="m 183.52495,-679.20825 q 1.01562,0 1.63086,0.77148 0.52246,0.65918 0.52246,1.51367 0,0.60059 -0.28809,1.21582 -0.28808,0.61524 -0.7959,0.92774 -0.50293,0.3125 -1.12304,0.3125 -1.01075,0 -1.60645,-0.80567 -0.50293,-0.67871 -0.50293,-1.52343 0,-0.61524 0.30274,-1.22071 0.30761,-0.61035 0.80566,-0.89843 0.49805,-0.29297 1.05469,-0.29297 z m -0.15137,0.31738 q -0.25879,0 -0.52246,0.15625 -0.25879,0.15137 -0.41992,0.53711 -0.16113,0.38574 -0.16113,0.99121 0,0.97656 0.38574,1.68457 0.39062,0.70801 1.02539,0.70801 0.47363,0 0.78125,-0.39063 0.30762,-0.39062 0.30762,-1.34277 0,-1.19141 -0.5127,-1.875 -0.34668,-0.46875 -0.88379,-0.46875 z" /><path
         id="path9080"
         style="font-style:normal;font-variant:normal;font-weight:normal;font-stretch:normal;font-family:'Times New Roman';-inkscape-font-specification:'Times New Roman, '"
         d="m 186.08842,-679.07642 1.875,0 0,0.18067 q -0.25878,0.0195 -0.34179,0.0928 -0.0781,0.0732 -0.0781,0.20996 0,0.15137 0.083,0.36621 l 0.95703,2.57325 0.96192,-2.09473 -0.25391,-0.65918 q -0.11719,-0.29297 -0.30762,-0.40527 -0.10742,-0.0684 -0.40039,-0.083 l 0,-0.18067 2.12891,0 0,0.18067 q -0.35156,0.0147 -0.49805,0.12695 -0.0977,0.0781 -0.0977,0.24902 0,0.0977 0.0391,0.2002 l 1.01562,2.56836 0.94239,-2.47559 q 0.0976,-0.26367 0.0976,-0.41992 0,-0.0928 -0.0976,-0.16601 -0.0928,-0.0733 -0.3711,-0.083 l 0,-0.18067 1.41113,0 0,0.18067 q -0.4248,0.0635 -0.625,0.57617 l -1.49414,3.85254 -0.20019,0 -1.11817,-2.85645 -1.30371,2.85645 -0.18066,0 -1.43555,-3.75977 q -0.1416,-0.35644 -0.27832,-0.47851 -0.13672,-0.12696 -0.42969,-0.19043 l 0,-0.18067 z" /><path
         id="path9082"
         style="font-style:normal;font-variant:normal;font-weight:normal;font-stretch:normal;font-family:'Times New Roman';-inkscape-font-specification:'Times New Roman, '"
         d="m 195.83452,-679.07642 2.10449,0 0,0.18067 -0.13672,0 q -0.19043,0 -0.29297,0.0928 -0.0977,0.0928 -0.0977,0.24902 0,0.1709 0.10254,0.40528 l 1.04003,2.4707 1.04493,-2.56348 q 0.1123,-0.27343 0.1123,-0.41503 0,-0.0684 -0.0391,-0.11231 -0.0537,-0.0732 -0.13672,-0.0977 -0.083,-0.0293 -0.33691,-0.0293 l 0,-0.18067 1.45996,0 0,0.18067 q -0.25391,0.0195 -0.35157,0.10254 -0.17089,0.14648 -0.30761,0.48828 l -1.58692,3.83789 -0.20019,0 -1.59668,-3.77442 q -0.10742,-0.26367 -0.20508,-0.37597 -0.0977,-0.11719 -0.24902,-0.19531 -0.083,-0.0439 -0.32715,-0.083 l 0,-0.18067 z" /><path
         id="path9084"
         style="font-style:normal;font-variant:normal;font-weight:normal;font-stretch:normal;font-family:'Times New Roman';-inkscape-font-specification:'Times New Roman, '"
         d="m 203.25151,-679.20825 q 1.01563,0 1.63086,0.77148 0.52246,0.65918 0.52246,1.51367 0,0.60059 -0.28809,1.21582 -0.28808,0.61524 -0.79589,0.92774 -0.50293,0.3125 -1.12305,0.3125 -1.01074,0 -1.60645,-0.80567 -0.50293,-0.67871 -0.50293,-1.52343 0,-0.61524 0.30274,-1.22071 0.30762,-0.61035 0.80566,-0.89843 0.49805,-0.29297 1.05469,-0.29297 z m -0.15137,0.31738 q -0.25879,0 -0.52246,0.15625 -0.25879,0.15137 -0.41992,0.53711 -0.16113,0.38574 -0.16113,0.99121 0,0.97656 0.38574,1.68457 0.39062,0.70801 1.02539,0.70801 0.47363,0 0.78125,-0.39063 0.30762,-0.39062 0.30762,-1.34277 0,-1.19141 -0.5127,-1.875 -0.34668,-0.46875 -0.88379,-0.46875 z" /><path
         id="path9086"
         style="font-style:normal;font-variant:normal;font-weight:normal;font-stretch:normal;font-family:'Times New Roman';-inkscape-font-specification:'Times New Roman, '"
         d="m 207.6021,-681.54712 0,5.93262 q 0,0.41992 0.0586,0.55664 0.0635,0.13672 0.19043,0.20996 0.12695,0.0684 0.47363,0.0684 l 0,0.17578 -2.19238,0 0,-0.17578 q 0.30762,0 0.41992,-0.0635 0.11231,-0.0635 0.17578,-0.20996 0.0635,-0.14648 0.0635,-0.56152 l 0,-4.0625 q 0,-0.75684 -0.0342,-0.92774 -0.0342,-0.17578 -0.1123,-0.23925 -0.0733,-0.0635 -0.19043,-0.0635 -0.12696,0 -0.32227,0.0781 l -0.083,-0.17089 1.33301,-0.54688 0.21973,0 z" /><path
         id="path9088"
         style="font-style:normal;font-variant:normal;font-weight:normal;font-stretch:normal;font-family:'Times New Roman';-inkscape-font-specification:'Times New Roman, '"
         d="m 210.13628,-680.54614 0,1.46972 1.04492,0 0,0.3418 -1.04492,0 0,2.90039 q 0,0.43457 0.12207,0.58594 0.12695,0.15137 0.32226,0.15137 0.16113,0 0.3125,-0.0977 0.15137,-0.10254 0.23438,-0.29785 l 0.19043,0 q -0.1709,0.47851 -0.4834,0.72265 -0.3125,0.23926 -0.64453,0.23926 -0.22461,0 -0.43946,-0.12207 -0.21484,-0.12695 -0.31738,-0.35644 -0.10254,-0.23438 -0.10254,-0.71778 l 0,-3.00781 -0.70801,0 0,-0.16113 q 0.26856,-0.10742 0.54688,-0.36133 0.2832,-0.25879 0.50293,-0.61035 0.1123,-0.18555 0.3125,-0.67871 l 0.15137,0 z" /><path
         id="path9090"
         style="font-style:normal;font-variant:normal;font-weight:normal;font-stretch:normal;font-family:'Times New Roman';-inkscape-font-specification:'Times New Roman, '"
         d="m 214.14507,-675.24829 q -0.68848,0.53223 -0.86426,0.61523 -0.26367,0.12207 -0.56153,0.12207 -0.46386,0 -0.7666,-0.31738 -0.29785,-0.31738 -0.29785,-0.83496 0,-0.32715 0.14649,-0.56641 0.20019,-0.33203 0.69335,-0.625 0.49805,-0.29297 1.6504,-0.71289 l 0,-0.17578 q 0,-0.66894 -0.21485,-0.91797 -0.20996,-0.24902 -0.61523,-0.24902 -0.30762,0 -0.48828,0.16602 -0.18555,0.16601 -0.18555,0.38085 l 0.01,0.28321 q 0,0.22461 -0.11718,0.34668 -0.11231,0.12207 -0.29785,0.12207 -0.18067,0 -0.29786,-0.12696 -0.1123,-0.12695 -0.1123,-0.34668 0,-0.41992 0.42969,-0.77148 0.42968,-0.35156 1.20605,-0.35156 0.5957,0 0.97656,0.20019 0.28809,0.15137 0.42481,0.47364 0.0879,0.20996 0.0879,0.85937 l 0,1.51856 q 0,0.63964 0.0244,0.78613 0.0244,0.1416 0.0781,0.19043 0.0586,0.0488 0.13183,0.0488 0.0781,0 0.13672,-0.0342 0.10254,-0.0635 0.39551,-0.35645 l 0,0.27344 q -0.54687,0.73242 -1.04492,0.73242 -0.23926,0 -0.38086,-0.16601 -0.1416,-0.16602 -0.14648,-0.56641 z m 0,-0.31738 0,-1.70411 q -0.73731,0.29297 -0.95215,0.41504 -0.38575,0.21485 -0.55176,0.44922 -0.16602,0.23438 -0.16602,0.5127 0,0.35156 0.20996,0.58594 0.20997,0.22949 0.4834,0.22949 0.3711,0 0.97657,-0.48828 z" /><path
         id="path9092"
         style="font-style:normal;font-variant:normal;font-weight:normal;font-stretch:normal;font-family:'Times New Roman';-inkscape-font-specification:'Times New Roman, '"
         d="m 217.24077,-676.23462 q -0.41016,-0.20019 -0.62988,-0.55664 -0.21973,-0.36133 -0.21973,-0.7959 0,-0.66406 0.49805,-1.14258 0.50293,-0.47851 1.28418,-0.47851 0.63964,0 1.10839,0.3125 l 0.94727,0 q 0.20996,0 0.24414,0.0147 0.0342,0.01 0.0488,0.0391 0.0293,0.0439 0.0293,0.15625 0,0.12695 -0.0244,0.17578 -0.0147,0.0244 -0.0537,0.0391 -0.0342,0.0146 -0.24414,0.0146 l -0.58106,0 q 0.27344,0.35156 0.27344,0.89844 0,0.625 -0.47851,1.06933 -0.47852,0.44434 -1.28418,0.44434 -0.33203,0 -0.67871,-0.0977 -0.21485,0.18555 -0.29297,0.32715 -0.0732,0.13672 -0.0732,0.23438 0,0.083 0.0781,0.16113 0.083,0.0781 0.31738,0.11231 0.13672,0.0195 0.6836,0.0342 1.00586,0.0244 1.30371,0.0684 0.4541,0.0635 0.72265,0.33692 0.27344,0.27344 0.27344,0.67383 0,0.55175 -0.51758,1.03515 -0.76172,0.71289 -1.9873,0.71289 -0.94238,0 -1.5918,-0.4248 -0.36621,-0.24414 -0.36621,-0.50781 0,-0.11719 0.0537,-0.23438 0.083,-0.18066 0.3418,-0.50293 0.0342,-0.0439 0.49805,-0.52734 -0.25391,-0.15137 -0.36133,-0.26856 -0.10254,-0.12207 -0.10254,-0.27343 0,-0.1709 0.13672,-0.4004 0.1416,-0.22949 0.64453,-0.64941 z m 0.84961,-2.73926 q -0.36133,0 -0.60547,0.28809 -0.24414,0.28808 -0.24414,0.88379 0,0.77148 0.33203,1.19629 0.25391,0.32226 0.64453,0.32226 0.37109,0 0.61035,-0.27832 0.23926,-0.27832 0.23926,-0.87402 0,-0.77637 -0.33691,-1.21582 -0.24903,-0.32227 -0.63965,-0.32227 z m -0.89844,4.37012 q -0.22949,0.24902 -0.34668,0.46387 -0.11719,0.21484 -0.11719,0.39551 0,0.23437 0.28321,0.41015 0.48828,0.30274 1.41113,0.30274 0.87891,0 1.29394,-0.3125 0.41993,-0.30762 0.41993,-0.65918 0,-0.25391 -0.24903,-0.36133 -0.2539,-0.10742 -1.00586,-0.12696 -1.09863,-0.0293 -1.68945,-0.1123 z" /><path
         id="path9094"
         style="font-style:normal;font-variant:normal;font-weight:normal;font-stretch:normal;font-family:'Times New Roman';-inkscape-font-specification:'Times New Roman, '"
         d="m 221.79643,-677.39185 q -0.005,0.9961 0.4834,1.5625 0.48828,0.56641 1.14746,0.56641 0.43945,0 0.76172,-0.23926 0.32715,-0.24414 0.54688,-0.83008 l 0.15136,0.0977 q -0.10254,0.66895 -0.5957,1.2207 -0.49316,0.54688 -1.23535,0.54688 -0.80567,0 -1.38184,-0.625 -0.57129,-0.62988 -0.57129,-1.68945 0,-1.14747 0.58594,-1.78711 0.59082,-0.64453 1.47949,-0.64453 0.75196,0 1.23535,0.49804 0.4834,0.49317 0.4834,1.32324 l -3.09082,0 z m 0,-0.2832 2.07031,0 q -0.0244,-0.42969 -0.10253,-0.60547 -0.12207,-0.27344 -0.36622,-0.42969 -0.23925,-0.15625 -0.50292,-0.15625 -0.40528,0 -0.72754,0.31739 -0.31739,0.3125 -0.3711,0.87402 z" /></g><g
       id="text8620-9"
       style="font-style:normal;font-weight:normal;font-size:32px;line-height:125%;font-family:sans-serif;letter-spacing:0px;word-spacing:0px;fill:#000000;fill-opacity:1;stroke:none;stroke-width:1px;stroke-linecap:butt;stroke-linejoin:miter;stroke-opacity:1"
       transform="scale(1,-1)"><path
         id="path9055"
         style="font-style:normal;font-variant:normal;font-weight:normal;font-stretch:normal;font-family:'Times New Roman';-inkscape-font-specification:'Times New Roman, '"
         d="m 171.62216,-751.94714 0,5.93261 q 0,0.41993 0.0586,0.55664 0.0635,0.13672 0.19043,0.20997 0.12695,0.0684 0.47363,0.0684 l 0,0.17579 -2.19238,0 0,-0.17579 q 0.30761,0 0.41992,-0.0635 0.1123,-0.0635 0.17578,-0.20996 0.0635,-0.14649 0.0635,-0.56153 l 0,-4.0625 q 0,-0.75683 -0.0342,-0.92773 -0.0342,-0.17578 -0.11231,-0.23926 -0.0732,-0.0635 -0.19043,-0.0635 -0.12695,0 -0.32226,0.0781 l -0.083,-0.1709 1.33301,-0.54687 0.21972,0 z" /><path
         id="path9057"
         style="font-style:normal;font-variant:normal;font-weight:normal;font-stretch:normal;font-family:'Times New Roman';-inkscape-font-specification:'Times New Roman, '"
         d="m 175.04501,-749.60828 q 1.01563,0 1.63086,0.77149 0.52246,0.65918 0.52246,1.51367 0,0.60059 -0.28808,1.21582 -0.28809,0.61523 -0.7959,0.92773 -0.50293,0.3125 -1.12305,0.3125 -1.01074,0 -1.60644,-0.80566 -0.50293,-0.67871 -0.50293,-1.52344 0,-0.61523 0.30273,-1.2207 0.30762,-0.61035 0.80567,-0.89844 0.49804,-0.29297 1.05468,-0.29297 z m -0.15136,0.31739 q -0.25879,0 -0.52246,0.15625 -0.25879,0.15136 -0.41993,0.53711 -0.16113,0.38574 -0.16113,0.99121 0,0.97656 0.38574,1.68457 0.39063,0.708 1.02539,0.708 0.47364,0 0.78125,-0.39062 0.30762,-0.39063 0.30762,-1.34277 0,-1.19141 -0.51269,-1.875 -0.34668,-0.46875 -0.88379,-0.46875 z" /><path
         id="path9059"
         style="font-style:normal;font-variant:normal;font-weight:normal;font-stretch:normal;font-family:'Times New Roman';-inkscape-font-specification:'Times New Roman, '"
         d="m 177.60849,-749.47644 1.875,0 0,0.18066 q -0.25879,0.0195 -0.3418,0.0928 -0.0781,0.0732 -0.0781,0.20996 0,0.15137 0.083,0.36621 l 0.95703,2.57324 0.96191,-2.09473 -0.25391,-0.65918 q -0.11718,-0.29296 -0.30761,-0.40527 -0.10742,-0.0684 -0.40039,-0.083 l 0,-0.18066 2.1289,0 0,0.18066 q -0.35156,0.0147 -0.49804,0.12696 -0.0977,0.0781 -0.0977,0.24902 0,0.0977 0.0391,0.2002 l 1.01563,2.56835 0.94238,-2.47558 q 0.0977,-0.26367 0.0977,-0.41992 0,-0.0928 -0.0977,-0.16602 -0.0928,-0.0732 -0.37109,-0.083 l 0,-0.18066 1.41113,0 0,0.18066 q -0.42481,0.0635 -0.625,0.57618 l -1.49414,3.85253 -0.2002,0 -1.11816,-2.85644 -1.30371,2.85644 -0.18067,0 -1.43554,-3.75976 q -0.1416,-0.35645 -0.27832,-0.47852 -0.13672,-0.12695 -0.42969,-0.19043 l 0,-0.18066 z" /><path
         id="path9061"
         style="font-style:normal;font-variant:normal;font-weight:normal;font-stretch:normal;font-family:'Times New Roman';-inkscape-font-specification:'Times New Roman, '"
         d="m 187.35458,-749.47644 2.1045,0 0,0.18066 -0.13672,0 q -0.19043,0 -0.29297,0.0928 -0.0977,0.0928 -0.0977,0.24902 0,0.1709 0.10254,0.40527 l 1.04004,2.47071 1.04492,-2.56348 q 0.11231,-0.27344 0.11231,-0.41504 0,-0.0684 -0.0391,-0.1123 -0.0537,-0.0733 -0.13671,-0.0977 -0.083,-0.0293 -0.33692,-0.0293 l 0,-0.18066 1.45996,0 0,0.18066 q -0.2539,0.0195 -0.35156,0.10254 -0.1709,0.14649 -0.30762,0.48828 l -1.58691,3.83789 -0.2002,0 -1.59668,-3.77441 q -0.10742,-0.26367 -0.20507,-0.37598 -0.0977,-0.11718 -0.24903,-0.19531 -0.083,-0.0439 -0.32715,-0.083 l 0,-0.18066 z" /><path
         id="path9063"
         style="font-style:normal;font-variant:normal;font-weight:normal;font-stretch:normal;font-family:'Times New Roman';-inkscape-font-specification:'Times New Roman, '"
         d="m 194.77158,-749.60828 q 1.01562,0 1.63086,0.77149 0.52246,0.65918 0.52246,1.51367 0,0.60059 -0.28809,1.21582 -0.28809,0.61523 -0.7959,0.92773 -0.50293,0.3125 -1.12305,0.3125 -1.01074,0 -1.60644,-0.80566 -0.50293,-0.67871 -0.50293,-1.52344 0,-0.61523 0.30273,-1.2207 0.30762,-0.61035 0.80567,-0.89844 0.49805,-0.29297 1.05469,-0.29297 z m -0.15137,0.31739 q -0.25879,0 -0.52246,0.15625 -0.25879,0.15136 -0.41992,0.53711 -0.16114,0.38574 -0.16114,0.99121 0,0.97656 0.38575,1.68457 0.39062,0.708 1.02539,0.708 0.47363,0 0.78125,-0.39062 0.30761,-0.39063 0.30761,-1.34277 0,-1.19141 -0.51269,-1.875 -0.34668,-0.46875 -0.88379,-0.46875 z" /><path
         id="path9065"
         style="font-style:normal;font-variant:normal;font-weight:normal;font-stretch:normal;font-family:'Times New Roman';-inkscape-font-specification:'Times New Roman, '"
         d="m 199.12216,-751.94714 0,5.93261 q 0,0.41993 0.0586,0.55664 0.0635,0.13672 0.19043,0.20997 0.12695,0.0684 0.47363,0.0684 l 0,0.17579 -2.19238,0 0,-0.17579 q 0.30761,0 0.41992,-0.0635 0.1123,-0.0635 0.17578,-0.20996 0.0635,-0.14649 0.0635,-0.56153 l 0,-4.0625 q 0,-0.75683 -0.0342,-0.92773 -0.0342,-0.17578 -0.11231,-0.23926 -0.0732,-0.0635 -0.19043,-0.0635 -0.12695,0 -0.32226,0.0781 l -0.083,-0.1709 1.33301,-0.54687 0.21972,0 z" /><path
         id="path9067"
         style="font-style:normal;font-variant:normal;font-weight:normal;font-stretch:normal;font-family:'Times New Roman';-inkscape-font-specification:'Times New Roman, '"
         d="m 201.65634,-750.94617 0,1.46973 1.04492,0 0,0.3418 -1.04492,0 0,2.90039 q 0,0.43457 0.12207,0.58593 0.12695,0.15137 0.32227,0.15137 0.16113,0 0.3125,-0.0977 0.15136,-0.10254 0.23437,-0.29786 l 0.19043,0 q -0.1709,0.47852 -0.4834,0.72266 -0.3125,0.23926 -0.64453,0.23926 -0.22461,0 -0.43945,-0.12207 -0.21484,-0.12696 -0.31738,-0.35645 -0.10254,-0.23437 -0.10254,-0.71777 l 0,-3.00781 -0.70801,0 0,-0.16114 q 0.26855,-0.10742 0.54687,-0.36132 0.28321,-0.25879 0.50293,-0.61036 0.11231,-0.18554 0.3125,-0.67871 l 0.15137,0 z" /><path
         id="path9069"
         style="font-style:normal;font-variant:normal;font-weight:normal;font-stretch:normal;font-family:'Times New Roman';-inkscape-font-specification:'Times New Roman, '"
         d="m 205.66513,-745.64832 q -0.68848,0.53223 -0.86426,0.61524 -0.26367,0.12207 -0.56152,0.12207 -0.46387,0 -0.7666,-0.31738 -0.29785,-0.31739 -0.29785,-0.83496 0,-0.32715 0.14648,-0.56641 0.2002,-0.33203 0.69336,-0.625 0.49805,-0.29297 1.65039,-0.71289 l 0,-0.17578 q 0,-0.66895 -0.21484,-0.91797 -0.20996,-0.24902 -0.61524,-0.24902 -0.30761,0 -0.48828,0.16601 -0.18555,0.16602 -0.18555,0.38086 l 0.01,0.2832 q 0,0.22461 -0.11719,0.34668 -0.1123,0.12207 -0.29785,0.12207 -0.18066,0 -0.29785,-0.12695 -0.11231,-0.12695 -0.11231,-0.34668 0,-0.41992 0.42969,-0.77148 0.42969,-0.35157 1.20606,-0.35157 0.5957,0 0.97656,0.2002 0.28809,0.15137 0.4248,0.47363 0.0879,0.20996 0.0879,0.85938 l 0,1.51855 q 0,0.63965 0.0244,0.78613 0.0244,0.14161 0.0781,0.19043 0.0586,0.0488 0.13184,0.0488 0.0781,0 0.13672,-0.0342 0.10254,-0.0635 0.39551,-0.35644 l 0,0.27343 q -0.54688,0.73243 -1.04493,0.73243 -0.23925,0 -0.38086,-0.16602 -0.1416,-0.16601 -0.14648,-0.56641 z m 0,-0.31738 0,-1.7041 q -0.7373,0.29297 -0.95215,0.41504 -0.38574,0.21484 -0.55176,0.44922 -0.16601,0.23437 -0.16601,0.51269 0,0.35157 0.20996,0.58594 0.20996,0.22949 0.4834,0.22949 0.37109,0 0.97656,-0.48828 z" /><path
         id="path9071"
         style="font-style:normal;font-variant:normal;font-weight:normal;font-stretch:normal;font-family:'Times New Roman';-inkscape-font-specification:'Times New Roman, '"
         d="m 208.76083,-746.63464 q -0.41015,-0.2002 -0.62988,-0.55664 -0.21973,-0.36133 -0.21973,-0.7959 0,-0.66407 0.49805,-1.14258 0.50293,-0.47852 1.28418,-0.47852 0.63965,0 1.1084,0.3125 l 0.94726,0 q 0.20997,0 0.24415,0.0147 0.0342,0.01 0.0488,0.0391 0.0293,0.0439 0.0293,0.15625 0,0.12696 -0.0244,0.17579 -0.0146,0.0244 -0.0537,0.0391 -0.0342,0.0147 -0.24415,0.0147 l -0.58105,0 q 0.27344,0.35156 0.27344,0.89843 0,0.625 -0.47852,1.06934 -0.47851,0.44434 -1.28418,0.44434 -0.33203,0 -0.67871,-0.0977 -0.21484,0.18555 -0.29297,0.32715 -0.0732,0.13672 -0.0732,0.23437 0,0.083 0.0781,0.16114 0.083,0.0781 0.31738,0.1123 0.13672,0.0195 0.68359,0.0342 1.00586,0.0244 1.30371,0.0684 0.4541,0.0635 0.72266,0.33691 0.27344,0.27344 0.27344,0.67383 0,0.55176 -0.51758,1.03516 -0.76172,0.71289 -1.98731,0.71289 -0.94238,0 -1.59179,-0.42481 -0.36621,-0.24414 -0.36621,-0.50781 0,-0.11719 0.0537,-0.23437 0.083,-0.18067 0.34179,-0.50293 0.0342,-0.0439 0.49805,-0.52735 -0.25391,-0.15136 -0.36133,-0.26855 -0.10254,-0.12207 -0.10254,-0.27344 0,-0.1709 0.13672,-0.40039 0.1416,-0.22949 0.64453,-0.64941 z m 0.84961,-2.73926 q -0.36133,0 -0.60547,0.28808 -0.24414,0.28809 -0.24414,0.88379 0,0.77149 0.33203,1.19629 0.25391,0.32227 0.64454,0.32227 0.37109,0 0.61035,-0.27832 0.23926,-0.27832 0.23926,-0.87403 0,-0.77636 -0.33692,-1.21582 -0.24902,-0.32226 -0.63965,-0.32226 z m -0.89843,4.37012 q -0.2295,0.24902 -0.34668,0.46386 -0.11719,0.21485 -0.11719,0.39551 0,0.23438 0.2832,0.41016 0.48828,0.30273 1.41113,0.30273 0.87891,0 1.29395,-0.3125 0.41992,-0.30762 0.41992,-0.65918 0,-0.2539 -0.24902,-0.36133 -0.25391,-0.10742 -1.00586,-0.12695 -1.09863,-0.0293 -1.68945,-0.1123 z" /><path
         id="path9073"
         style="font-style:normal;font-variant:normal;font-weight:normal;font-stretch:normal;font-family:'Times New Roman';-inkscape-font-specification:'Times New Roman, '"
         d="m 213.3165,-747.79187 q -0.005,0.99609 0.4834,1.5625 0.48828,0.56641 1.14746,0.56641 0.43945,0 0.76172,-0.23926 0.32714,-0.24414 0.54687,-0.83008 l 0.15137,0.0977 q -0.10254,0.66894 -0.59571,1.2207 -0.49316,0.54687 -1.23535,0.54687 -0.80566,0 -1.38183,-0.625 -0.57129,-0.62988 -0.57129,-1.68945 0,-1.14746 0.58594,-1.78711 0.59082,-0.64453 1.47949,-0.64453 0.75195,0 1.23535,0.49805 0.4834,0.49316 0.4834,1.32324 l -3.09082,0 z m 0,-0.2832 2.07031,0 q -0.0244,-0.42969 -0.10254,-0.60547 -0.12207,-0.27344 -0.36621,-0.42969 -0.23926,-0.15625 -0.50293,-0.15625 -0.40527,0 -0.72754,0.31738 -0.31738,0.3125 -0.37109,0.87403 z" /></g></g></svg>